<svg width="378px" height="320px" viewBox="0 0 378 320" version="1.1" xmlns="http://www.w3.org/2000/svg" xmlns:xlink="http://www.w3.org/1999/xlink">
    <!-- Generator: Sketch 51 (57462) - http://www.bohemiancoding.com/sketch -->
    <desc>Created with Sketch.</desc>
    <defs></defs>
    <g id="Page-1" stroke="none" stroke-width="1" fill="none" fill-rule="evenodd">
        <g id="attack" transform="translate(-11.000000, -9.000000)" fill="#E75424">
            <path d="M34.155,9.842 C33.781,9.997 32.787,10.324 31.946,10.569 C28.421,11.596 24.063,14.416 20.561,17.937 C16.666,21.854 12.574,29.225 12.574,32.327 C12.574,32.79 12.416,33.328 12.222,33.522 C11.743,34 11.766,40.284 12.253,42.349 C12.866,44.943 13.965,48.041 14.457,48.561 C14.898,49.028 20.298,47.656 21.223,46.843 C21.401,46.687 21.889,46.559 22.308,46.559 C22.727,46.559 23.164,46.406 23.28,46.219 C23.395,46.032 23.832,45.879 24.251,45.879 C24.67,45.879 25.158,45.734 25.336,45.557 C26.757,44.137 31.638,45.949 40.612,51.23 C41.733,51.89 43.339,52.816 44.18,53.287 C45.021,53.758 46.321,54.536 47.069,55.016 C47.816,55.495 48.734,56.055 49.108,56.261 C50.267,56.897 51.436,57.592 51.809,57.867 C52.006,58.011 54.843,59.937 58.114,62.145 C66.386,67.731 70.975,71.145 77.788,76.783 C80.145,78.733 82.15,80.416 82.243,80.523 C82.336,80.629 83.789,81.937 85.472,83.428 C91.053,88.374 101.404,98.941 105.952,104.333 C112.094,111.616 111.971,111.37 110.561,113.601 C110.061,114.391 109.048,116.185 108.31,117.587 C107.572,118.989 106.853,120.289 106.711,120.476 C106.328,120.981 99.86,133.35 95.871,141.206 C94.637,143.636 93.513,145.675 93.373,145.738 C93.233,145.8 93.118,146.144 93.118,146.502 C93.118,146.861 92.965,147.154 92.778,147.154 C92.591,147.154 92.438,147.37 92.438,147.635 C92.438,148.223 90.183,152.569 89.522,153.256 C89.13,153.663 88.848,153.678 87.915,153.341 C85.913,152.617 81.285,152.832 79.524,153.731 C75.954,155.554 73.935,162.361 76.188,164.979 C76.341,165.156 76.466,165.504 76.466,165.751 C76.466,165.998 76.878,166.823 77.382,167.585 C81.621,173.99 92.675,174.01 95.346,167.617 C95.903,166.283 96.013,161.916 95.497,161.597 C95.31,161.482 95.157,160.87 95.157,160.238 C95.157,159.606 95.004,158.994 94.817,158.879 C93.658,158.162 94.667,157.384 100.85,154.233 C107.564,150.811 114.797,147.068 118.777,144.958 C120.085,144.264 122.115,143.077 123.288,142.321 C125.694,140.769 125.359,140.693 128.143,143.415 C128.812,144.07 131.871,146.975 134.941,149.873 C138.01,152.77 142.225,156.784 144.308,158.794 C148.819,163.146 147.772,163.039 152.363,159.617 C156.544,156.501 167.417,148.432 173.927,143.615 C176.222,141.916 179.127,139.758 180.384,138.819 C181.64,137.879 184.607,135.684 186.978,133.941 C189.348,132.198 191.366,130.568 191.462,130.319 C191.622,129.901 188.314,127.342 173.322,116.283 C171.172,114.698 168.573,112.761 167.545,111.979 C166.517,111.197 164.911,109.988 163.976,109.292 C163.042,108.596 162.048,107.845 161.767,107.623 C161.487,107.401 160.219,106.481 158.949,105.579 C156.334,103.72 156.386,104.152 158.248,99.8 C158.875,98.335 159.388,96.918 159.388,96.652 C159.388,96.385 159.526,95.902 159.695,95.577 C159.864,95.253 160.187,94.299 160.413,93.458 C160.64,92.617 160.943,91.623 161.088,91.249 C161.232,90.875 161.541,89.881 161.774,89.04 C162.613,86.02 162.885,85.121 163.166,84.452 C163.488,83.685 164.182,81.459 164.81,79.184 C165.042,78.343 165.37,77.39 165.539,77.065 C165.707,76.74 165.845,76.099 165.845,75.641 C165.845,75.182 165.998,74.712 166.185,74.596 C166.372,74.481 166.525,73.967 166.525,73.455 C166.525,72.943 166.663,72.378 166.832,72.201 C167.001,72.023 167.192,71.591 167.257,71.24 C167.365,70.657 167.7,70.607 171.164,70.663 C178.001,70.773 181.138,68.093 181.138,62.144 C181.138,57.716 176.97,51.657 173.923,51.657 C173.667,51.657 173.29,51.489 173.084,51.283 C172.504,50.703 167.256,50.83 165.773,51.459 C161.19,53.405 159.836,57.314 161.747,63.082 C162.522,65.42 162.656,66.192 162.342,66.509 C162.119,66.734 158.879,69.213 155.14,72.017 C151.402,74.822 148.19,77.243 148.003,77.396 C147.816,77.55 147.052,78.13 146.304,78.685 C145.557,79.24 143.484,80.841 141.699,82.243 C139.913,83.645 137.939,85.174 137.312,85.641 C135.753,86.802 131.051,90.511 130.841,90.744 C130.089,91.583 125.361,95.157 125.005,95.156 C124.757,95.155 124.019,94.825 123.364,94.421 C122.71,94.018 121.41,93.277 120.476,92.774 C117.8,91.336 114.53,89.383 112.423,87.964 C111.359,87.248 110.396,86.661 110.285,86.661 C110.173,86.661 109.897,86.505 109.671,86.313 C109.446,86.122 107.502,84.784 105.353,83.339 C99.391,79.332 93.795,75.141 88.063,70.391 C77.17,61.361 63.844,48.182 55.905,38.586 C55.157,37.682 54.383,36.774 54.183,36.568 C53.681,36.048 49.071,30.057 47.785,28.254 C47.204,27.439 46.375,26.368 45.943,25.875 C45.097,24.909 45.077,23.406 45.846,18.522 C46.52,14.238 46.907,10.77 46.73,10.593 C45.767,9.63 36.071,9.051 34.155,9.842 M354.715,9.95 C353.293,10.358 353.034,11.74 353.761,15.033 C354.242,17.212 354.744,20.316 354.984,22.6 L355.198,24.639 L353.371,27.018 C352.366,28.326 350.835,30.391 349.969,31.606 C349.103,32.821 348.115,34.121 347.772,34.494 C347.43,34.868 346.386,36.092 345.453,37.213 C344.519,38.335 343.679,39.329 343.585,39.422 C343.492,39.516 342.347,40.816 341.042,42.311 C328.972,56.137 310.088,73.185 297.561,81.563 C287.407,88.355 283.926,90.525 278.335,93.55 C277.307,94.106 276.139,94.763 275.741,95.011 C275.021,95.457 274.072,94.888 271.593,92.522 C271.344,92.283 270.579,91.671 269.894,91.161 C269.209,90.651 268.573,90.156 268.479,90.061 C268.386,89.967 267.545,89.283 266.61,88.542 C265.675,87.8 264.834,87.11 264.741,87.008 C264.647,86.905 263.35,85.906 261.858,84.787 C260.366,83.668 257.613,81.559 255.741,80.099 C251.112,76.491 251.621,76.875 244.405,71.538 C240.868,68.921 237.901,66.543 237.813,66.253 C237.65,65.72 238.372,62.859 238.943,61.772 C240.127,59.515 238.824,54.267 236.739,52.901 C231.652,49.567 226.444,50.18 222.221,54.607 C215.382,61.777 219.046,70.688 228.832,70.688 L232.713,70.688 L233.054,71.623 C233.242,72.137 233.584,73.246 233.814,74.087 C234.044,74.928 234.349,75.922 234.491,76.296 C234.634,76.669 235.169,78.352 235.679,80.034 C236.19,81.716 236.726,83.475 236.87,83.942 C237.013,84.41 237.474,85.939 237.892,87.341 C238.311,88.743 238.77,90.195 238.913,90.569 C239.055,90.943 239.755,93.084 240.467,95.327 C241.18,97.57 241.868,99.635 241.997,99.915 C242.126,100.195 242.42,100.884 242.651,101.444 C242.881,102.005 243.21,102.737 243.381,103.072 C243.759,103.809 243.595,103.984 240.442,106.216 C239.133,107.141 237.833,108.087 237.553,108.317 C237.273,108.547 235.667,109.738 233.985,110.965 C232.302,112.192 230.695,113.381 230.414,113.607 C229.648,114.222 221.278,120.457 216.83,123.726 C214.685,125.303 210.02,128.763 206.465,131.415 C202.909,134.067 198.889,137.049 197.531,138.042 C196.173,139.035 191.876,142.231 187.982,145.146 C184.088,148.06 179.846,151.19 178.556,152.101 C177.266,153.012 176.134,153.842 176.041,153.946 C175.947,154.05 174.418,155.19 172.642,156.479 C170.867,157.769 168.573,159.462 167.545,160.242 C165.171,162.043 162.521,164.028 161.427,164.824 C160.96,165.164 159.354,166.346 157.859,167.451 C156.364,168.555 153.84,170.413 152.251,171.58 C148.97,173.99 148.714,174.18 144.819,177.121 C143.254,178.303 141.014,179.958 139.842,180.799 C138.67,181.64 137.197,182.721 136.57,183.201 C135.942,183.681 133.594,185.426 131.351,187.079 C129.108,188.731 126.432,190.723 125.404,191.505 C122.906,193.404 120.648,195.093 119.499,195.922 C118.98,196.296 117.229,197.584 115.608,198.785 C113.986,199.985 111.512,201.809 110.11,202.837 C108.709,203.865 106.72,205.344 105.692,206.122 C102.987,208.172 98.411,211.58 95.667,213.59 C91.319,216.773 87.517,219.576 86.989,219.986 C85.621,221.048 75.978,228.201 70.688,232.077 C67.464,234.44 67.258,234.593 63.252,237.614 C61.686,238.796 59.774,240.208 59.004,240.753 C57.423,241.872 52.772,245.315 51.997,245.94 C51.716,246.166 50.569,247.022 49.448,247.843 C48.326,248.663 45.29,250.927 42.7,252.874 C40.11,254.821 37.654,256.6 37.241,256.827 C36.327,257.331 35.968,258.056 35.009,261.342 C33.758,265.626 33.572,266.228 33.111,267.46 C32.867,268.114 32.483,269.261 32.259,270.008 C32.035,270.756 31.74,271.674 31.603,272.048 C31.285,272.919 30.13,276.697 29.577,278.675 C29.342,279.516 29.035,280.51 28.895,280.884 C28.755,281.257 28.377,282.404 28.055,283.432 C27.733,284.46 27.347,285.607 27.198,285.981 C27.048,286.355 26.738,287.349 26.508,288.19 C26.279,289.031 25.973,290.025 25.83,290.399 C25.687,290.773 25.223,292.226 24.799,293.628 C23.722,297.192 21.717,303.519 21.407,304.333 C21.265,304.707 20.963,305.701 20.736,306.542 C20.51,307.383 20.187,308.337 20.018,308.661 C19.849,308.986 19.711,309.551 19.711,309.916 C19.711,310.281 19.558,310.675 19.371,310.79 C19.184,310.906 19.031,311.376 19.031,311.834 C19.031,312.293 18.899,312.934 18.737,313.259 C18.395,313.945 17.842,315.531 17.109,317.927 C16.824,318.862 16.451,319.892 16.281,320.216 C16.112,320.541 15.973,321.182 15.973,321.641 C15.973,322.099 15.82,322.569 15.633,322.685 C15.446,322.8 15.293,323.194 15.293,323.559 C15.293,323.924 15.161,324.489 14.999,324.813 C14.297,326.221 13.951,327.765 14.266,328.081 C14.577,328.392 23.258,327.483 24.469,327.013 C25.021,326.799 28.654,326.368 32.455,326.065 C33.764,325.961 35.14,325.74 35.514,325.575 C35.888,325.409 37.188,325.189 38.403,325.087 C39.618,324.984 41.759,324.748 43.161,324.564 C44.562,324.379 46.856,324.083 48.258,323.906 C53.741,323.212 56.383,322.85 59.813,322.323 C61.776,322.021 64.452,321.639 65.76,321.474 C70.491,320.876 73.964,320.433 76.381,320.117 C77.736,319.941 79.953,319.657 81.308,319.486 C88.037,318.639 86.389,319.645 95.837,310.619 C99.295,307.316 105.341,301.568 109.272,297.846 C113.204,294.124 118.921,288.709 121.977,285.811 C125.032,282.914 128.1,280.008 128.793,279.354 C134.147,274.304 153.698,255.772 161.767,248.1 C165.225,244.813 169.116,241.133 170.413,239.923 C171.71,238.713 174.845,235.723 177.38,233.277 C179.914,230.832 183.059,227.863 184.367,226.678 C185.675,225.493 188.971,222.371 191.69,219.739 C194.409,217.107 197.544,214.122 198.657,213.106 C199.769,212.09 202.674,209.338 205.112,206.989 C207.55,204.64 210.608,201.728 211.909,200.516 C213.21,199.305 217.254,195.482 220.897,192.02 C224.54,188.559 228.664,184.656 230.061,183.347 C231.458,182.039 232.989,180.581 233.463,180.108 C234.61,178.963 240.567,173.307 247.231,167.035 C250.21,164.231 253.436,161.172 254.4,160.238 C255.363,159.303 258.502,156.321 261.376,153.611 C264.249,150.901 268.055,147.281 269.833,145.567 C271.612,143.853 273.483,142.125 273.992,141.727 L274.916,141.003 L276.88,142.261 C280.097,144.323 283.914,146.366 296.177,152.595 C305.881,157.525 306.119,157.707 305.236,159.524 C304.895,160.225 304.65,161.347 304.277,163.902 C303.997,165.823 305.314,169.061 306.926,170.418 C311.918,174.619 320.839,172.152 323.711,165.778 C327.529,157.304 321.239,150.88 311.625,153.434 C310.629,153.698 311.077,154.448 304.518,141.546 C302.332,137.247 299.652,132.048 298.562,129.992 C297.472,127.935 295.938,125.03 295.152,123.534 C294.366,122.039 293.32,120.089 292.826,119.201 C292.332,118.314 291.529,116.861 291.041,115.973 C290.553,115.085 289.787,113.732 289.34,112.967 L288.527,111.575 L289.605,110.078 C296.147,100.989 312.292,84.798 324.756,74.826 C330.272,70.412 348.465,57.434 349.136,57.434 C349.222,57.434 350.723,56.539 352.471,55.445 C354.219,54.351 356.415,53.027 357.349,52.503 C370.292,45.245 372.346,44.433 375.021,45.514 C375.395,45.665 376.083,45.944 376.551,46.135 C377.018,46.326 378.088,46.669 378.929,46.899 C379.771,47.128 380.765,47.437 381.138,47.586 C385.473,49.304 385.604,49.301 386.429,47.435 C388.314,43.174 388.905,37.577 387.95,33.036 C385.793,22.783 376.219,12.311 366.982,10.103 C364.931,9.613 356.269,9.505 354.715,9.95 M249.899,177.657 C245.892,181.424 236.625,190.235 232.626,194.078 C230.57,196.055 227.514,198.961 225.836,200.536 C224.157,202.11 221.099,205.005 219.039,206.969 C216.979,208.933 213.496,212.217 211.3,214.267 C209.104,216.317 207.307,218.093 207.307,218.213 C207.307,218.478 210.137,221.343 213.119,224.099 C214.315,225.203 218.045,228.721 221.408,231.915 C224.771,235.109 228.507,238.641 229.712,239.762 C230.916,240.884 232.691,242.566 233.657,243.5 C237.29,247.018 242.322,251.808 247.079,256.275 C253.404,262.216 278.63,286.122 287.001,294.11 C290.552,297.499 294.451,301.185 295.665,302.302 C296.88,303.419 298.575,305.021 299.433,305.862 C302.52,308.889 311.152,317.026 312.15,317.849 C313.164,318.686 313.652,318.804 318.946,319.484 C320.442,319.676 322.736,319.974 324.044,320.146 C325.353,320.317 327.647,320.608 329.142,320.79 C335.211,321.532 337.331,321.821 337.978,321.992 C338.637,322.167 347.084,323.335 351.912,323.918 C354.259,324.202 357.462,324.612 362.107,325.226 C363.415,325.398 365.48,325.629 366.695,325.739 C367.91,325.848 369.439,326.081 370.093,326.256 C370.748,326.431 372.124,326.646 373.152,326.734 C374.18,326.822 376.627,327.138 378.59,327.436 C386.418,328.624 386.573,328.605 385.762,326.524 C385.594,326.095 385.271,325.055 385.043,324.214 C384.816,323.373 384.511,322.379 384.367,322.005 C384.223,321.631 383.917,320.637 383.687,319.796 C383.458,318.955 383.152,317.961 383.008,317.587 C382.865,317.213 382.174,315.072 381.474,312.829 C380.775,310.586 380.086,308.445 379.944,308.071 C379.803,307.698 379.499,306.703 379.269,305.862 C379.04,305.021 378.735,304.027 378.591,303.653 C378.448,303.28 377.761,301.138 377.064,298.895 C376.368,296.653 375.679,294.511 375.533,294.138 C375.388,293.764 375.083,292.77 374.857,291.929 C374.63,291.088 374.307,290.134 374.138,289.809 C373.97,289.485 373.832,288.92 373.832,288.555 C373.832,288.189 373.679,287.796 373.492,287.681 C373.305,287.565 373.152,287.095 373.152,286.636 C373.152,286.178 373.014,285.537 372.846,285.212 C372.678,284.887 371.973,282.787 371.279,280.544 C370.585,278.301 369.882,276.2 369.716,275.875 C369.55,275.551 369.414,275.052 369.414,274.766 C369.414,274.481 369.276,273.982 369.107,273.657 C368.938,273.333 368.61,272.379 368.377,271.538 C367.825,269.548 364.998,260.693 364.633,259.813 C364.478,259.439 364.304,258.831 364.246,258.462 C364.145,257.82 358.803,253.57 352.591,249.189 C351.096,248.135 349.796,247.182 349.703,247.073 C349.609,246.963 348.003,245.762 346.134,244.404 C344.265,243.046 342.503,241.752 342.219,241.528 C341.553,241.005 334.746,235.931 331.011,233.174 C329.422,232.001 327.74,230.758 327.273,230.412 C326.805,230.065 325.047,228.769 323.364,227.53 C321.682,226.292 320.071,225.096 319.785,224.874 C319.115,224.353 314.99,221.283 311.3,218.56 C309.711,217.387 308.029,216.145 307.562,215.798 C307.094,215.452 305.336,214.155 303.653,212.917 C301.971,211.678 300.363,210.483 300.08,210.26 C299.502,209.805 294.837,206.334 289.695,202.531 C281.156,196.216 272.157,189.548 268.366,186.727 C266.092,185.034 262.931,182.691 261.342,181.52 C259.754,180.35 257.995,179.037 257.434,178.604 C252.337,174.663 252.995,174.746 249.899,177.657" id="path1"></path>
        </g>
    </g>
</svg>
