<?xml version="1.0" encoding="UTF-8"?>
<svg width="158px" height="124px" viewBox="0 0 158 124" version="1.1" fill="#fff" stroke="#fff" 
    xmlns="http://www.w3.org/2000/svg" 
    xmlns:xlink="http://www.w3.org/1999/xlink">
    <path d="M145.403842,15.6051284 L117.541241,10.5650475 C115.882753,4.6849532 109.580498,0.316883117 103.278243,0.316883117 L51.5334132,0.316883117 C45.0653094,0.316883117 41.5824843,4.6849532 40.7532402,10.7330502 L12.5589417,15.6051284 C5.26159388,16.94915 -0.377265821,24.0052632 0.949524696,31.5653845 L14.3832787,110.694654 C15.7100692,118.086773 22.5098706,123.126853 29.9730673,121.782832 L78.4009211,113.046692 L126.994624,121.782832 C134.291972,123.126853 141.423471,118.086773 142.750261,110.694654 L156.515713,31.5653845 C157.676655,24.0052632 152.70119,16.7811473 145.403842,15.6051284 Z M56.6747264,10.7330502 L82.0495951,10.7330502 C80.3911069,12.5810799 79.2301652,14.9331176 78.7326188,17.453158 L64.9671672,96.5824276 C64.9671672,96.7504303 64.9671672,96.918433 64.9671672,97.0864356 L54.1869942,97.0864356 C52.0309596,97.0864356 50.8700179,96.2464222 50.8700179,94.0623871 L50.8700179,13.9251014 C50.8700179,11.7410664 52.0309596,10.9010529 54.1869942,10.9010529 L56.6747264,10.9010529 L56.6747264,10.7330502 Z M27.9828815,112.206678 C25.8268469,112.542684 23.8366611,111.030659 23.5049635,109.014627 L9.73951187,29.7173548 C9.40781424,27.5333198 12.0613953,25.5172874 14.2174299,25.181282 L40.4215426,20.6452093 L40.4215426,94.2303898 C40.4215426,101.790511 44.0702165,107.838608 51.5334132,107.838608 L52.8602037,107.838608 L27.9828815,112.206678 Z M146.896482,29.7173548 L133.13103,108.846624 C132.799332,111.030659 130.809147,112.374681 128.653112,112.038676 L77.7375259,102.96653 C75.5814913,102.630525 74.2547008,100.614492 74.5863984,98.4304572 L88.35185,19.3011877 C88.6835476,17.1171527 90.6737334,15.7731311 92.829768,16.1091365 L143.745354,25.181282 C145.73554,25.5172874 147.228179,27.7013225 146.896482,29.7173548 Z"></path>
</svg>
