<svg width="400px" height="263px" viewBox="0 0 400 263" version="1.1" xmlns="http://www.w3.org/2000/svg" xmlns:xlink="http://www.w3.org/1999/xlink">
    <!-- Generator: Sketch 51 (57462) - http://www.bohemiancoding.com/sketch -->
    <desc>Created with Sketch.</desc>
    <defs></defs>
    <g id="Page-1" stroke="none" stroke-width="1" fill="none" fill-rule="evenodd">
        <g id="constant">
            <path d="M267.594,17.752 C267.24,18.176 266.682,19.324 263.485,26.212 C262.916,27.438 261.834,29.738 261.08,31.324 C260.326,32.91 259.293,35.092 258.785,36.173 C258.278,37.254 257.111,39.708 256.192,41.625 C255.273,43.542 254.522,45.155 254.522,45.208 C254.522,45.261 253.709,46.995 252.716,49.061 C251.723,51.127 250.418,53.879 249.816,55.177 C249.213,56.474 248.148,58.716 247.449,60.157 C245.915,63.321 245.511,62.795 251.638,65.608 C256.555,67.865 259.098,69.042 262.647,70.701 C265.764,72.159 267.658,73.033 269.069,73.665 C269.79,73.988 271.482,74.767 272.829,75.396 C274.176,76.025 275.312,76.54 275.353,76.54 C275.394,76.54 276.651,77.116 278.147,77.821 C279.642,78.525 281.543,79.41 282.372,79.787 C284.87,80.922 286.767,81.796 289.343,82.998 C291.524,84.017 292.267,84.29 292.267,84.075 C292.267,84.038 291.962,83.183 291.588,82.174 C291.215,81.166 290.813,80.046 290.694,79.685 C290.576,79.325 290.107,78.028 289.651,76.802 C288.024,72.425 286.767,68.802 286.765,68.48 C286.758,67.41 297.932,68.592 304.98,70.407 C314.125,72.763 325.284,78.405 331.106,83.617 C331.347,83.834 332.291,84.658 333.203,85.45 C334.531,86.601 339.975,92.219 341.153,93.652 C346.927,100.677 352.795,112.558 354.515,120.708 C354.606,121.14 354.792,122.025 354.928,122.674 C362.184,157.344 342.285,191.578 308.519,202.516 C305.896,203.365 305.453,203.48 301.114,204.44 C291.999,206.457 279.777,206.104 270.159,203.547 C262.185,201.426 251.809,196.506 247.027,192.578 C246.752,192.352 245.524,191.367 244.299,190.388 C241.329,188.018 237.869,184.665 235.565,181.924 C234.531,180.693 233.619,179.626 233.539,179.554 C233.101,179.16 229.992,174.636 228.744,172.579 C225.823,167.763 222.946,161.354 221.757,157.012 C221.579,156.363 221.337,155.537 221.219,155.177 C219.912,151.169 218.882,143.887 218.865,138.532 C218.827,125.893 216.114,109.817 212.585,101.311 C212.465,101.022 211.815,99.371 211.14,97.641 C201.972,74.148 182.911,53.448 159.895,41.988 C155.671,39.885 152.685,38.532 152.267,38.532 C152.134,38.532 151.82,38.428 151.569,38.301 C150.957,37.989 149.996,37.603 148.886,37.221 C148.381,37.048 147.733,36.812 147.444,36.697 C144.293,35.439 136.391,33.384 131.455,32.537 C112.495,29.286 93.781,30.941 76.147,37.429 C74.175,38.155 73.489,38.429 70.904,39.525 C69.097,40.291 62.332,43.668 60.55,44.693 C59.613,45.232 58.458,45.896 57.982,46.168 C48.082,51.835 36.076,62.685 28.26,73.03 C26.43,75.453 22.018,81.892 22.018,82.141 C22.018,82.203 21.539,83.043 20.952,84.008 C19.932,85.688 16.34,92.824 15.409,95.02 C15.165,95.596 14.767,96.54 14.525,97.117 C5.747,118.043 4.381,145.043 11.012,166.579 C11.322,167.588 11.673,168.768 11.792,169.201 C12.214,170.746 13.645,174.623 14.185,175.685 C14.313,175.935 14.417,176.255 14.417,176.396 C14.417,177.294 19.314,187.106 21.973,191.537 C29.645,204.319 42.066,217.407 53.437,224.689 C53.817,224.933 54.246,225.233 54.391,225.356 C54.535,225.479 55.891,226.333 57.405,227.252 C71.553,235.846 84.91,240.376 102.359,242.496 C106.38,242.985 117.242,242.916 120.446,242.381 C130.096,240.771 131.097,240.511 129.554,240.02 C129.302,239.939 128.329,239.444 127.392,238.918 C126.455,238.392 124.921,237.544 123.984,237.033 C121.653,235.762 119.6,234.639 118.349,233.952 C117.772,233.635 116.239,232.803 114.941,232.104 C113.644,231.404 111.874,230.442 111.009,229.965 C110.144,229.488 108.817,228.778 108.06,228.387 C106.566,227.614 106.436,227.28 107.164,226.081 C107.426,225.649 108.15,224.351 108.772,223.198 C109.394,222.045 109.987,220.983 110.089,220.839 C110.191,220.695 110.753,219.692 111.337,218.611 C111.921,217.529 113.427,214.817 114.684,212.582 C119.218,204.52 119.084,205.068 116.418,205.481 C113.21,205.979 104.948,205.641 101.573,204.874 C101.284,204.809 100.282,204.614 99.345,204.441 C91.641,203.02 83.549,199.796 76.063,195.166 C74.054,193.923 70.674,191.555 70.249,191.092 C70.177,191.014 69.469,190.425 68.676,189.784 C58.924,181.896 49.566,167.589 46.641,156.094 C46.531,155.662 46.272,154.659 46.064,153.866 C45.361,151.175 44.71,147.674 44.311,144.43 C43.958,141.571 43.955,131.862 44.306,129.408 C44.921,125.106 45.416,122.318 45.874,120.577 C46.597,117.823 47.532,114.725 47.969,113.63 C48.084,113.342 48.329,112.693 48.513,112.189 C52.482,101.319 60.801,90.189 70.904,82.231 C75.002,79.004 85.925,72.87 87.576,72.87 C87.709,72.87 88.023,72.766 88.274,72.639 C89.051,72.243 90.001,71.868 90.957,71.579 C91.461,71.426 92.405,71.136 93.054,70.933 C94.118,70.601 96.006,70.131 98.952,69.465 C100.239,69.173 102.741,68.77 105.45,68.418 C108.103,68.073 117.709,68.075 120.133,68.421 C130.423,69.892 136.481,71.726 144.168,75.697 C148.185,77.772 153.978,81.54 156.133,83.478 C156.298,83.627 157.57,84.751 158.959,85.976 C165.93,92.125 173.334,102.646 176.391,110.747 C176.717,111.612 177.084,112.556 177.207,112.844 C177.329,113.132 177.777,114.43 178.202,115.727 C180.489,122.71 181.652,130.554 181.651,139 C181.651,141.338 181.763,144.194 181.901,145.347 C182.038,146.501 182.281,148.624 182.442,150.066 C182.602,151.507 182.836,153.218 182.963,153.866 C183.089,154.515 183.385,156.107 183.621,157.405 C184.438,161.909 187.318,171.94 188.589,174.705 C188.787,175.138 189.204,176.14 189.515,176.933 C191.031,180.8 194.01,186.754 196.533,190.957 C205.586,206.041 218.826,219.352 233.421,228.044 C237.68,230.581 247.39,235.387 248.257,235.387 C248.391,235.387 248.705,235.491 248.955,235.618 C252.801,237.575 263.557,240.496 271.166,241.652 C278.371,242.745 279.508,242.824 287.811,242.809 C296.123,242.794 297.821,242.667 304.849,241.532 C310.082,240.687 315.632,239.319 320.674,237.632 C324.351,236.402 325.745,235.878 327.979,234.889 C328.662,234.586 329.286,234.338 329.366,234.338 C329.942,234.338 340.569,228.855 342.084,227.776 C342.482,227.493 342.881,227.261 342.972,227.261 C343.273,227.261 348.511,223.659 351.428,221.446 C362.254,213.233 371.738,202.696 378.517,191.35 C380.103,188.694 383.644,181.889 384.612,179.635 C386.087,176.2 387.646,172.111 388.392,169.725 C388.617,169.004 388.977,167.883 389.192,167.235 C389.407,166.586 389.674,165.642 389.786,165.138 C389.897,164.633 390.175,163.544 390.403,162.718 C394.157,149.091 394.54,130.471 391.376,115.465 C390.704,112.279 390.348,110.818 389.266,106.815 C388.989,105.79 387.722,101.984 387.434,101.311 C387.31,101.022 387.067,100.374 386.894,99.869 C386.435,98.533 386.328,98.272 384.531,94.102 C383.723,92.228 380.834,86.463 379.867,84.797 C379.616,84.364 379.067,83.421 378.647,82.7 C369.052,66.228 353.08,51.32 335.449,42.38 C331.932,40.597 331.146,40.231 328.571,39.174 C327.995,38.938 327.169,38.592 326.737,38.406 C325.977,38.079 324.449,37.506 321.56,36.463 C309.796,32.217 293.161,30.119 279.924,31.211 C277.558,31.407 275.094,31.571 274.447,31.576 L273.272,31.586 L272.282,28.965 C270.961,25.467 270.086,23.056 269.331,20.839 C268.183,17.465 268.043,17.216 267.594,17.752 M249.264,38.519 C248.895,38.631 248.128,38.927 247.56,39.178 C246.992,39.429 246.291,39.734 246.003,39.856 C245.714,39.978 243.837,40.859 241.832,41.814 C236.979,44.125 234.555,45.489 229.096,48.983 C222.08,53.473 213.246,61.253 207.386,68.102 C203.992,72.068 204.087,71.525 206.221,74.733 C213.336,85.432 218.713,97.602 221.69,109.749 C222.841,114.442 222.764,114.376 223.866,111.599 C229.442,97.552 240.986,84.788 254.984,77.195 C256.313,76.474 257.401,75.81 257.403,75.719 C257.405,75.532 255.277,74.491 248.984,71.603 C248.065,71.181 246.37,70.399 245.216,69.864 C244.063,69.329 241.94,68.356 240.498,67.701 C237.188,66.198 237.298,66.325 238.009,64.826 C238.337,64.132 239.106,62.503 239.716,61.206 C240.326,59.908 241.386,57.667 242.07,56.225 C242.754,54.784 243.636,52.896 244.03,52.031 C244.423,51.166 245.284,49.338 245.942,47.969 C250.947,37.555 250.769,38.062 249.264,38.519 M176.933,160.237 C176.933,162.368 171.06,173.424 167.118,178.713 C165.028,181.518 157.787,189.122 156.145,190.236 C155.667,190.56 155.048,191.032 154.768,191.284 C154.07,191.914 149.749,195.02 149.571,195.02 C149.491,195.02 148.52,195.611 147.413,196.334 C146.305,197.057 145.345,197.595 145.28,197.529 C145.17,197.42 144.035,193.684 142.845,189.515 C140.734,182.121 140.336,180.865 140.103,180.865 C139.883,180.865 137.434,185.065 134.102,191.153 C132.809,193.516 132.044,194.891 131.586,195.675 C131.333,196.107 130.772,197.11 130.34,197.903 C129.2,199.994 127.327,203.359 124.017,209.267 C122.413,212.129 121.101,214.508 121.101,214.554 C121.101,214.6 120.511,215.659 119.79,216.907 C119.069,218.155 118.48,219.217 118.48,219.266 C118.48,219.315 117.89,220.377 117.169,221.626 C115.237,224.971 115.229,224.855 117.486,226.017 C118.537,226.558 120.164,227.424 121.101,227.941 C122.038,228.458 123.689,229.362 124.771,229.948 C125.852,230.535 127.798,231.6 129.096,232.316 C133.234,234.598 136.432,236.344 138.794,237.614 C139.803,238.157 141.219,238.924 141.94,239.318 C142.661,239.713 144.076,240.483 145.085,241.029 C146.094,241.575 148.571,242.927 150.59,244.033 C152.608,245.14 155.203,246.553 156.356,247.175 C157.51,247.796 158.571,248.387 158.716,248.489 C160.27,249.585 160.261,249.506 157.923,241.547 C156.948,238.231 156.099,235.102 156.035,234.594 L155.92,233.67 L158.497,232.442 C160.743,231.372 163.491,229.891 167.059,227.827 C175.089,223.182 186.375,213.478 193.291,205.273 C196.139,201.893 196.122,201.945 194.92,200.297 C190.006,193.562 184.298,182.04 181.09,172.384 C179.462,167.484 178.774,164.969 177.833,160.485 C177.703,159.863 176.933,159.651 176.933,160.237" id="path1"></path>
        </g>
    </g>
</svg>
