<?xml version="1.0" encoding="UTF-8"?>
<svg width="99px" height="122px" viewBox="0 0 99 122" version="1.1" stroke="#fff" fill="#fff" 
    xmlns="http://www.w3.org/2000/svg" 
    xmlns:xlink="http://www.w3.org/1999/xlink">
    <path d="M21.9999993,122 C21.9999993,122 76.9999983,122 87.9999991,122 C94.6000005,122 99,117.563637 99,110.909094 C99,110.909094 99,22.1818174 99,22.1818174 C99,15.527272 99,15.527272 96.7999982,13.3090912 C96.7999982,13.3090912 85.7999974,2.21818166 85.7999974,2.21818166 C83.5999996,-7.10542736e-15 83.5999996,-7.10542736e-15 75.6799988,-7.10542736e-15 C75.6799988,-7.10542736e-15 21.9999993,-7.10542736e-15 10.9999992,-7.10542736e-15 C4.39999953,-7.10542736e-15 0,4.43636372 0,11.0909091 C0,11.0909091 0,88.7272731 0,99.8181834 C0,106.47273 0,106.47273 2.19999977,108.69091 C2.19999977,108.69091 13.1999994,119.78182 13.1999994,119.78182 C15.3999992,122 15.3999992,122 21.9999993,122 Z M84.3586186,15.527272 C88.7586181,15.527272 90.9586199,17.7454537 90.9586199,22.1818174 C90.9586199,22.1818174 90.9586199,105.631348 90.9586199,107.849531 C90.9586199,112.285895 88.7586181,114.504078 84.3586186,114.504078 C84.3586186,114.504078 24.1999999,114.504078 21.9999993,114.504078 C17.5999993,114.504078 15.3999992,112.285895 15.3999992,107.849531 C15.3999992,107.849531 15.3999992,24.399999 15.3999992,22.1818174 C15.3999992,17.7454537 17.5999993,15.527272 21.9999993,15.527272 C24.1999999,15.527272 82.1586208,15.527272 84.3586186,15.527272 Z"></path>
</svg>
