<svg width="378px" height="361px" viewBox="0 0 378 361" version="1.1" xmlns="http://www.w3.org/2000/svg" xmlns:xlink="http://www.w3.org/1999/xlink">
    <!-- Generator: Sketch 51 (57462) - http://www.bohemiancoding.com/sketch -->
    <desc>Created with Sketch.</desc>
    <defs></defs>
    <g id="Page-1" stroke="none" stroke-width="1" fill="none" fill-rule="evenodd">
        <g id="defend" transform="translate(-11.000000, -22.000000)">
            <path d="M198.803,23.115 C195.398,26.186 188.011,30.98 181.746,34.184 C179.278,35.446 172.58,38.492 172.273,38.492 C172.109,38.492 171.268,38.833 170.405,39.25 C169.541,39.668 167.767,40.374 166.461,40.821 C165.156,41.267 163.016,42.017 161.706,42.487 C158.873,43.503 150.852,45.952 148.611,46.484 C147.738,46.692 146.399,47.012 145.635,47.197 C143.957,47.602 138.897,48.763 136.706,49.247 C135.078,49.606 129.825,50.524 125.595,51.189 C114.008,53.01 93.502,53.334 83.532,51.854 C73.977,50.436 71.993,50.069 64.087,48.261 C61.39,47.644 60.141,47.324 57.044,46.451 C56.225,46.22 54.975,45.872 54.266,45.676 C51.076,44.797 45.997,43.165 44.246,42.456 C43.81,42.279 41.667,41.467 39.484,40.652 C34.162,38.664 27.588,35.659 23.611,33.399 C22.302,32.654 20.427,31.596 19.444,31.048 C18.462,30.499 16.534,29.271 15.16,28.319 C13.785,27.366 12.501,26.587 12.307,26.587 C10.905,26.587 11.436,60.769 13.075,75.992 C13.286,77.956 13.655,81.528 13.895,83.929 C14.135,86.329 14.489,89.365 14.681,90.675 C14.874,91.984 15.322,95.109 15.678,97.619 C16.033,100.129 16.491,102.731 16.694,103.401 C16.897,104.071 17.063,105.108 17.063,105.706 C17.063,106.303 17.232,107.54 17.438,108.455 C17.644,109.37 18.084,111.548 18.417,113.294 C18.75,115.04 19.493,118.611 20.068,121.23 C20.643,123.849 21.267,126.706 21.454,127.579 C21.793,129.161 23.141,134.425 24.655,140.079 C25.709,144.018 25.976,144.941 28.094,151.984 C29.143,155.475 31.351,162.315 31.744,163.294 C31.919,163.73 32.244,164.623 32.466,165.278 C33.339,167.85 35.002,172.462 35.329,173.214 C35.519,173.651 35.938,174.812 36.261,175.794 C37.063,178.233 42.216,190.801 43.882,194.381 C44.628,195.982 45.238,197.353 45.238,197.427 C45.238,198.788 59.801,227.306 64.354,234.862 C65.189,236.248 65.873,237.467 65.873,237.57 C65.873,237.673 66.677,239 67.659,240.518 C68.641,242.037 69.444,243.376 69.444,243.496 C69.444,244.835 90.913,276.086 97.081,283.724 C97.348,284.055 98.956,286.111 100.653,288.294 C102.35,290.476 103.836,292.351 103.955,292.46 C104.074,292.569 106.397,295.337 109.118,298.611 C123.051,315.377 143.065,335.944 159.524,350.409 C161.379,352.039 162.986,353.462 163.095,353.571 C163.672,354.148 169.391,358.996 173.17,362.112 C175.546,364.071 178.246,366.3 179.169,367.063 C180.092,367.827 181.79,369.167 182.941,370.04 C184.093,370.913 185.59,372.091 186.268,372.658 C190.95,376.575 199.528,382.69 200.298,382.659 C201.221,382.622 202.913,381.407 213.685,373.041 C223.302,365.571 236.329,354.724 243.496,348.217 C260.573,332.715 284.322,308.012 293.452,296.256 C294.107,295.413 295.893,293.185 297.421,291.305 C298.948,289.425 301.09,286.728 302.18,285.312 C303.27,283.896 304.377,282.47 304.639,282.143 C313.607,270.957 330.893,244.751 338.274,231.151 C339.103,229.623 339.914,228.194 340.075,227.976 C341.336,226.276 354.762,199.454 354.762,198.637 C354.762,198.552 355.371,197.173 356.115,195.571 C356.859,193.969 357.947,191.498 358.533,190.079 C359.12,188.661 359.828,186.964 360.107,186.31 C364.191,176.73 370.948,157.503 373.775,147.421 C374.448,145.02 375.17,142.52 375.379,141.865 C375.834,140.445 378.066,131.815 378.561,129.563 C378.753,128.69 379.188,126.815 379.529,125.397 C380.573,121.045 381.245,117.854 382.12,113.095 C382.581,110.585 383.126,107.728 383.332,106.746 C383.69,105.036 384.636,99.176 385.094,95.833 C386.29,87.116 386.434,85.803 388.175,67.857 C388.718,62.25 388.88,29.054 388.373,27.232 L388.055,26.09 L387.182,26.892 C385.988,27.988 380.715,31.349 380.188,31.349 C379.954,31.349 379.761,31.483 379.759,31.647 C379.757,31.811 379.355,32.14 378.866,32.379 C378.377,32.618 376.012,33.809 373.611,35.025 C366.856,38.446 360.369,41.146 353.379,43.444 C345.513,46.03 337.9,48.063 330.556,49.538 C329.355,49.779 327.48,50.157 326.389,50.377 C324.428,50.773 319.442,51.495 312.5,52.387 C303.539,53.54 279.886,52.439 269.643,50.393 C257.542,47.975 252.151,46.692 245.437,44.631 C243.69,44.094 241.637,43.464 240.873,43.23 C240.109,42.996 239.127,42.65 238.69,42.46 C238.254,42.271 236.736,41.725 235.317,41.248 C233.899,40.771 231.795,39.956 230.643,39.436 C229.491,38.917 228.372,38.492 228.157,38.492 C227.943,38.492 227.457,38.325 227.078,38.121 C226.699,37.917 223.71,36.461 220.437,34.885 C213.102,31.355 202.655,24.665 201.468,22.738 C200.991,21.963 199.912,22.116 198.803,23.115 M205.16,93.686 C209.892,96.69 212.437,98.107 219.048,101.42 C224.831,104.317 227.351,105.43 234.722,108.343 C238.173,109.706 244.062,111.695 247.619,112.699 C251.035,113.663 256.351,115.012 258.532,115.467 C259.841,115.74 261.448,116.111 262.103,116.291 C264.043,116.823 271.498,117.958 280.556,119.099 C282.728,119.373 290.252,119.602 298.314,119.64 C306.007,119.677 312.328,119.781 312.36,119.873 C312.392,119.965 312.296,120.486 312.148,121.032 C311.316,124.082 311.004,125.173 309.883,128.968 C309.205,131.26 308.509,133.671 308.336,134.325 C307.939,135.829 304.834,145.169 304.379,146.23 C304.192,146.667 303.384,148.81 302.584,150.992 C300.872,155.659 298.32,162.038 296.981,164.992 C296.459,166.144 296.032,167.167 296.032,167.265 C296.032,167.931 286.673,187.283 284.136,191.865 C280.914,197.681 276.211,205.921 275.076,207.738 C274.394,208.829 273.538,210.258 273.172,210.913 C272.404,212.289 261.869,228.274 261.533,228.571 C261.41,228.681 261.131,229.068 260.913,229.431 C258.274,233.83 243.603,252.555 235.95,261.293 C224.777,274.05 201.672,297.222 200.126,297.222 C199.079,297.222 177.494,275.747 169.832,267.082 C168.2,265.237 166.049,262.826 165.052,261.725 C164.054,260.623 161.912,258.115 160.291,256.151 C158.67,254.187 157.244,252.49 157.123,252.381 C155.543,250.962 141.674,232.585 138.76,228.049 C138.366,227.435 137.8,226.631 137.503,226.263 C136.65,225.205 130.952,216.66 130.952,216.437 C130.952,216.327 130.769,216.021 130.545,215.757 C130.321,215.493 129.636,214.474 129.022,213.492 C126.453,209.383 124.534,206.252 123.849,205.05 C119.336,197.142 118.045,194.827 116.056,191.071 C111.235,181.973 106.688,172.496 103.773,165.476 C103.184,164.058 102.468,162.361 102.181,161.706 C99.352,155.242 92.867,137.16 91.65,132.341 C91.259,130.796 89.026,123.203 88.46,121.498 C87.843,119.637 87.116,119.734 102.473,119.626 C118.974,119.509 125.593,118.859 140.278,115.913 C142.478,115.471 151.113,113.283 152.976,112.695 C155.003,112.055 159.256,110.718 160.714,110.263 C161.478,110.024 162.639,109.598 163.294,109.315 C163.948,109.033 166.002,108.235 167.857,107.543 C174.955,104.897 186.678,99.058 194.048,94.499 C200.987,90.205 199.811,90.291 205.16,93.686" id="path1"></path>
        </g>
    </g>
</svg>
