<?xml version="1.0" encoding="UTF-8"?>
<svg width="122px" height="122px" viewBox="0 0 122 122" version="1.1" fill="#fff" stroke="#fff" 
    xmlns="http://www.w3.org/2000/svg" 
    xmlns:xlink="http://www.w3.org/1999/xlink">
    <path d="M61,122 C27.3113636,122 0,94.6886364 0,61 C0,27.3113636 27.3113636,0 61,0 C94.6886364,0 122,27.3113636 122,61 C122,94.6886364 94.6886364,122 61,122 Z M61,11.0909091 C33.4113636,11.0909091 11.0909091,33.4113636 11.0909091,61 C11.0909091,88.5886364 33.4113636,110.909091 61,110.909091 C88.5886364,110.909091 110.909091,88.5886364 110.909091,61 C110.909091,33.4113636 88.5886364,11.0909091 61,11.0909091 Z"></path>
    <g id="Group" transform="translate(54.068182, 30.500000)">
        <path d="M6.93181818,62.3863636 C3.88181818,62.3863636 1.38636364,59.8909091 1.38636364,56.8409091 L1.38636364,24.9545455 C1.38636364,21.9045455 3.88181818,19.4090909 6.93181818,19.4090909 C9.98181818,19.4090909 12.4772727,21.9045455 12.4772727,24.9545455 L12.4772727,56.8409091 C12.4772727,59.8909091 9.98181818,62.3863636 6.93181818,62.3863636 Z"></path>
        <circle cx="6.93181818" cy="6.93181818" r="5.54545455"></circle>
        <path d="M6.93181818,13.8636364 C3.05,13.8636364 0,10.8136364 0,6.93181818 C0,3.05 3.05,0 6.93181818,0 C10.8136364,0 13.8636364,3.05 13.8636364,6.93181818 C13.8636364,10.8136364 10.8136364,13.8636364 6.93181818,13.8636364 Z M6.93181818,2.77272727 C4.575,2.77272727 2.77272727,4.575 2.77272727,6.93181818 C2.77272727,9.28863636 4.575,11.0909091 6.93181818,11.0909091 C9.28863636,11.0909091 11.0909091,9.28863636 11.0909091,6.93181818 C11.0909091,4.575 9.28863636,2.77272727 6.93181818,2.77272727 Z"></path>
    </g>
</svg>
