
<svg width="400px" height="400px" viewBox="0 0 400 400" version="1.1" xmlns="http://www.w3.org/2000/svg" xmlns:xlink="http://www.w3.org/1999/xlink">
    <!-- Generator: Sketch 51 (57462) - http://www.bohemiancoding.com/sketch -->
    <desc>Created with Sketch.</desc>
    <defs></defs>
    <g id="Page-1" stroke="none" stroke-width="1" fill="none" fill-rule="evenodd">
        <g id="image2vector">
            <path d="M184.1,0.267 C181.312,0.357 179.2,0.592 179.2,0.812 C179.2,1.028 177.87,1.2 176.2,1.2 C174.467,1.2 173.2,1.369 173.2,1.6 C173.2,1.829 172,2 170.4,2 C168.8,2 167.6,2.171 167.6,2.4 C167.6,2.62 166.61,2.8 165.4,2.8 C164.19,2.8 163.2,2.961 163.2,3.158 C163.2,3.354 161.579,3.643 159.597,3.8 C157.616,3.957 155.895,4.246 155.774,4.443 C155.652,4.639 154.933,4.8 154.176,4.8 C153.419,4.8 152.8,4.98 152.8,5.2 C152.8,5.42 152.08,5.6 151.2,5.6 C150.32,5.6 149.6,5.78 149.6,6 C149.6,6.22 148.97,6.4 148.2,6.4 C147.43,6.4 146.8,6.58 146.8,6.8 C146.8,7.02 146.181,7.2 145.424,7.2 C144.667,7.2 143.936,7.38 143.8,7.6 C143.664,7.82 143.113,8 142.576,8 C142.039,8 141.6,8.18 141.6,8.4 C141.6,8.62 141.06,8.8 140.4,8.8 C139.74,8.8 139.2,8.967 139.2,9.171 C139.2,9.375 138.21,9.666 137,9.817 C135.79,9.968 134.8,10.251 134.8,10.446 C134.8,10.641 134.26,10.8 133.6,10.8 C132.94,10.8 132.4,10.98 132.4,11.2 C132.4,11.42 131.95,11.6 131.4,11.6 C130.85,11.6 130.4,11.78 130.4,12 C130.4,12.22 129.86,12.4 129.2,12.4 C128.54,12.4 128,12.58 128,12.8 C128,13.02 127.64,13.2 127.2,13.2 C126.76,13.2 126.4,13.38 126.4,13.6 C126.4,13.82 125.95,14 125.4,14 C124.85,14 124.4,14.18 124.4,14.4 C124.4,14.62 124.04,14.8 123.6,14.8 C123.16,14.8 122.8,14.98 122.8,15.2 C122.8,15.42 122.351,15.6 121.803,15.6 C120.663,15.6 117.6,16.835 117.6,17.294 C117.6,17.462 117.24,17.6 116.8,17.6 C116.36,17.6 116,17.78 116,18 C116,18.22 115.64,18.4 115.2,18.4 C114.76,18.4 114.4,18.58 114.4,18.8 C114.4,19.02 113.95,19.2 113.4,19.2 C112.85,19.2 112.4,19.38 112.4,19.6 C112.4,19.82 112.04,20 111.6,20 C111.16,20 110.8,20.18 110.8,20.4 C110.8,20.62 110.44,20.8 110,20.8 C109.56,20.8 109.2,20.98 109.2,21.2 C109.2,21.42 108.862,21.6 108.449,21.6 C108.036,21.6 107.474,21.87 107.2,22.2 C106.926,22.53 106.454,22.8 106.151,22.8 C105.848,22.8 105.6,22.98 105.6,23.2 C105.6,23.42 105.24,23.6 104.8,23.6 C104.36,23.6 104,23.78 104,24 C104,24.22 103.64,24.4 103.2,24.4 C102.76,24.4 102.4,24.58 102.4,24.8 C102.4,25.02 102.04,25.2 101.6,25.2 C101.16,25.2 100.8,25.38 100.8,25.6 C100.8,25.82 100.596,26 100.347,26 C100.098,26 99.603,26.336 99.247,26.746 C98.891,27.157 98.039,27.616 97.354,27.766 C96.669,27.917 95.731,28.391 95.271,28.82 C94.81,29.249 94.286,29.6 94.105,29.6 C93.924,29.6 93.517,29.96 93.2,30.4 C92.883,30.84 92.303,31.2 91.912,31.2 C91.52,31.2 91.2,31.38 91.2,31.6 C91.2,31.82 90.88,32 90.488,32 C90.097,32 89.517,32.36 89.2,32.8 C88.883,33.24 88.401,33.6 88.13,33.6 C87.858,33.6 87.186,34.05 86.636,34.6 C86.086,35.15 85.398,35.6 85.106,35.6 C84.815,35.6 84.317,35.96 84,36.4 C83.683,36.84 83.265,37.2 83.072,37.2 C82.879,37.2 82.217,37.74 81.6,38.4 C80.983,39.06 80.199,39.6 79.858,39.6 C79.516,39.6 78.786,40.05 78.236,40.6 C77.686,41.15 77.12,41.6 76.979,41.6 C76.837,41.6 76.217,42.14 75.6,42.8 C74.983,43.46 74.304,44 74.09,44 C73.875,44 72.855,44.81 71.822,45.8 C70.788,46.79 69.784,47.6 69.59,47.6 C69.396,47.6 67.524,49.31 65.431,51.4 C63.337,53.49 61.349,55.2 61.012,55.2 C60.676,55.2 60.4,55.348 60.4,55.529 C60.4,55.848 57.127,59.188 55.3,60.733 C54.805,61.151 54.4,61.711 54.4,61.975 C54.4,62.24 52.87,63.966 51,65.811 C49.13,67.656 47.6,69.341 47.6,69.554 C47.6,69.768 46.79,70.788 45.8,71.822 C44.81,72.855 44,73.872 44,74.081 C44,74.291 43.28,75.154 42.4,76 C41.52,76.846 40.8,77.654 40.8,77.797 C40.8,77.94 40.575,78.308 40.3,78.615 C39.098,79.955 38.8,80.394 38.8,80.823 C38.8,81.074 38.26,81.783 37.6,82.4 C36.94,83.017 36.4,83.679 36.4,83.872 C36.4,84.065 36.04,84.483 35.6,84.8 C35.16,85.117 34.8,85.697 34.8,86.088 C34.8,86.48 34.632,86.8 34.427,86.8 C34.222,86.8 33.926,87.205 33.77,87.7 C33.613,88.195 33.151,88.891 32.743,89.247 C32.334,89.603 32,90.148 32,90.459 C32,90.769 31.64,91.283 31.2,91.6 C30.76,91.917 30.4,92.457 30.4,92.8 C30.4,93.143 30.04,93.683 29.6,94 C29.16,94.317 28.8,94.807 28.8,95.088 C28.8,95.37 28.62,95.6 28.4,95.6 C28.18,95.6 28,95.947 28,96.371 C28,96.796 27.73,97.413 27.4,97.743 C27.07,98.073 26.8,98.626 26.8,98.971 C26.8,99.317 26.62,99.6 26.4,99.6 C26.18,99.6 26,99.87 26,100.2 C26,100.53 25.82,100.8 25.6,100.8 C25.38,100.8 25.2,101.12 25.2,101.512 C25.2,101.903 24.84,102.483 24.4,102.8 C23.96,103.117 23.6,103.697 23.6,104.088 C23.6,104.48 23.42,104.8 23.2,104.8 C22.98,104.8 22.8,105.16 22.8,105.6 C22.8,106.04 22.628,106.4 22.418,106.4 C22.208,106.4 21.918,107.03 21.774,107.8 C21.629,108.57 21.351,109.2 21.155,109.2 C20.96,109.2 20.8,109.56 20.8,110 C20.8,110.44 20.62,110.8 20.4,110.8 C20.18,110.8 20,111.16 20,111.6 C20,112.04 19.82,112.4 19.6,112.4 C19.38,112.4 19.2,112.67 19.2,113 C19.2,113.33 19.02,113.6 18.8,113.6 C18.58,113.6 18.4,113.96 18.4,114.4 C18.4,114.84 18.22,115.2 18,115.2 C17.78,115.2 17.6,115.56 17.6,116 C17.6,116.44 17.42,116.8 17.2,116.8 C16.98,116.8 16.8,117.149 16.8,117.576 C16.8,118.003 16.636,118.454 16.435,118.578 C16.234,118.703 15.948,119.523 15.8,120.402 C15.651,121.281 15.366,122 15.165,122 C14.964,122 14.8,122.36 14.8,122.8 C14.8,123.24 14.62,123.6 14.4,123.6 C14.18,123.6 14,124.05 14,124.6 C14,125.15 13.82,125.6 13.6,125.6 C13.38,125.6 13.2,125.96 13.2,126.4 C13.2,126.84 13.02,127.2 12.8,127.2 C12.58,127.2 12.4,127.74 12.4,128.4 C12.4,129.06 12.22,129.6 12,129.6 C11.78,129.6 11.6,130.05 11.6,130.6 C11.6,131.15 11.42,131.6 11.2,131.6 C10.98,131.6 10.8,132.14 10.8,132.8 C10.8,133.46 10.631,134 10.425,134 C10.218,134 9.927,134.812 9.778,135.805 C9.629,136.798 9.348,137.708 9.154,137.829 C8.959,137.949 8.8,138.667 8.8,139.424 C8.8,140.181 8.62,140.8 8.4,140.8 C8.18,140.8 8,141.34 8,142 C8,142.66 7.82,143.2 7.6,143.2 C7.38,143.2 7.2,143.639 7.2,144.176 C7.2,144.713 7.02,145.264 6.8,145.4 C6.58,145.536 6.4,146.267 6.4,147.024 C6.4,147.781 6.22,148.4 6,148.4 C5.78,148.4 5.6,149.03 5.6,149.8 C5.6,150.57 5.42,151.2 5.2,151.2 C4.98,151.2 4.8,151.92 4.8,152.8 C4.8,153.68 4.641,154.4 4.447,154.4 C4.253,154.4 3.967,155.93 3.811,157.8 C3.656,159.67 3.364,161.2 3.164,161.2 C2.964,161.2 2.8,162.19 2.8,163.4 C2.8,164.61 2.62,165.6 2.4,165.6 C2.18,165.6 2,166.59 2,167.8 C2,169.01 1.82,170 1.6,170 C1.369,170 1.2,171.256 1.2,172.967 C1.2,174.984 1.04,175.987 0.7,176.1 C0.307,176.231 0.2,181.449 0.2,200.4 C0.2,219.351 0.307,224.569 0.7,224.7 C1.031,224.81 1.2,225.736 1.2,227.433 C1.2,228.878 1.375,230 1.6,230 C1.826,230 2,231.133 2,232.6 C2,234.067 2.174,235.2 2.4,235.2 C2.62,235.2 2.8,236.1 2.8,237.2 C2.8,238.3 2.957,239.2 3.148,239.2 C3.34,239.2 3.622,240.64 3.776,242.4 C3.929,244.16 4.223,245.6 4.427,245.6 C4.632,245.6 4.8,246.5 4.8,247.6 C4.8,248.7 4.98,249.6 5.2,249.6 C5.42,249.6 5.6,250.05 5.6,250.6 C5.6,251.15 5.78,251.6 6,251.6 C6.22,251.6 6.4,252.32 6.4,253.2 C6.4,254.08 6.58,254.8 6.8,254.8 C7.02,254.8 7.2,255.43 7.2,256.2 C7.2,256.97 7.38,257.6 7.6,257.6 C7.82,257.6 8,258.14 8,258.8 C8,259.46 8.18,260 8.4,260 C8.62,260 8.8,260.54 8.8,261.2 C8.8,261.86 8.967,262.4 9.171,262.4 C9.375,262.4 9.666,263.39 9.817,264.6 C9.968,265.81 10.251,266.8 10.446,266.8 C10.641,266.8 10.8,267.124 10.8,267.52 C10.8,268.414 11.694,270.393 12.1,270.397 C12.265,270.399 12.4,270.94 12.4,271.6 C12.4,272.26 12.58,272.8 12.8,272.8 C13.02,272.8 13.2,273.34 13.2,274 C13.2,274.66 13.38,275.2 13.6,275.2 C13.82,275.2 14,275.47 14,275.8 C14,276.13 14.18,276.4 14.4,276.4 C14.62,276.4 14.8,276.76 14.8,277.2 C14.8,277.64 14.98,278 15.2,278 C15.42,278 15.6,278.449 15.6,278.997 C15.6,280.137 16.835,283.2 17.294,283.2 C17.462,283.2 17.6,283.56 17.6,284 C17.6,284.44 17.78,284.8 18,284.8 C18.22,284.8 18.4,285.34 18.4,286 C18.4,286.66 18.58,287.2 18.8,287.2 C19.02,287.2 19.2,287.47 19.2,287.8 C19.2,288.13 19.38,288.4 19.6,288.4 C19.82,288.4 20,288.76 20,289.2 C20,289.64 20.18,290 20.4,290 C20.62,290 20.8,290.36 20.8,290.8 C20.8,291.24 20.98,291.6 21.2,291.6 C21.42,291.6 21.6,291.938 21.6,292.351 C21.6,292.764 21.87,293.326 22.2,293.6 C22.53,293.874 22.8,294.346 22.8,294.649 C22.8,294.952 22.98,295.2 23.2,295.2 C23.42,295.2 23.6,295.56 23.6,296 C23.6,296.44 23.78,296.8 24,296.8 C24.22,296.8 24.4,297.16 24.4,297.6 C24.4,298.04 24.58,298.4 24.8,298.4 C25.02,298.4 25.2,298.748 25.2,299.173 C25.2,299.598 25.56,300.06 26,300.2 C26.44,300.34 26.8,300.802 26.8,301.227 C26.8,301.652 26.98,302 27.2,302 C27.42,302 27.6,302.287 27.6,302.638 C27.6,303.344 28.827,305.723 29.3,305.933 C29.465,306.007 29.6,306.282 29.6,306.545 C29.6,306.808 29.96,307.283 30.4,307.6 C30.84,307.917 31.2,308.457 31.2,308.8 C31.2,309.143 31.56,309.683 32,310 C32.44,310.317 32.8,310.878 32.8,311.246 C32.8,311.613 33.07,312.018 33.4,312.145 C33.73,312.271 34,312.701 34,313.099 C34,313.497 34.36,314.083 34.8,314.4 C35.24,314.717 35.6,315.225 35.6,315.528 C35.6,315.831 36.14,316.583 36.8,317.2 C37.46,317.817 38,318.479 38,318.672 C38,318.865 38.36,319.283 38.8,319.6 C39.24,319.917 39.6,320.491 39.6,320.875 C39.6,321.259 40.23,322.203 41,322.973 C41.77,323.743 42.4,324.483 42.4,324.618 C42.4,324.753 43.12,325.554 44,326.4 C44.88,327.246 45.6,328.151 45.6,328.412 C45.6,328.673 46.59,329.845 47.8,331.017 C49.01,332.189 50,333.34 50,333.574 C50,333.808 50.18,334 50.4,334 C50.62,334 50.8,334.178 50.8,334.396 C50.8,334.916 65.094,349.2 65.614,349.2 C65.835,349.2 67.185,350.37 68.615,351.8 C70.045,353.23 71.406,354.4 71.639,354.4 C71.872,354.4 72.754,355.12 73.6,356 C74.446,356.88 75.421,357.6 75.769,357.6 C76.116,357.6 76.4,357.752 76.4,357.939 C76.4,358.486 77.851,360 78.375,360 C78.64,360 79.108,360.225 79.415,360.5 C80.802,361.744 81.206,362 81.783,362 C82.122,362 82.4,362.152 82.4,362.339 C82.4,362.928 83.87,364.4 84.459,364.4 C84.769,364.4 85.283,364.76 85.6,365.2 C85.917,365.64 86.497,366 86.888,366 C87.28,366 87.6,366.168 87.6,366.373 C87.6,366.578 88.005,366.874 88.5,367.03 C88.995,367.187 89.691,367.649 90.047,368.057 C90.403,368.466 90.948,368.8 91.259,368.8 C91.569,368.8 92.083,369.16 92.4,369.6 C92.717,370.04 93.297,370.4 93.688,370.4 C94.08,370.4 94.4,370.58 94.4,370.8 C94.4,371.02 94.604,371.2 94.853,371.2 C95.102,371.2 95.597,371.536 95.953,371.946 C96.309,372.357 97.23,372.831 98,373 C98.77,373.169 99.691,373.643 100.047,374.054 C100.403,374.464 100.898,374.8 101.147,374.8 C101.396,374.8 101.6,374.98 101.6,375.2 C101.6,375.42 101.96,375.6 102.4,375.6 C102.84,375.6 103.2,375.78 103.2,376 C103.2,376.22 103.56,376.4 104,376.4 C104.44,376.4 104.8,376.58 104.8,376.8 C104.8,377.02 105.16,377.2 105.6,377.2 C106.04,377.2 106.4,377.38 106.4,377.6 C106.4,377.82 106.593,378 106.829,378 C107.064,378 107.527,378.27 107.857,378.6 C108.187,378.93 108.804,379.2 109.229,379.2 C109.653,379.2 110,379.38 110,379.6 C110,379.82 110.36,380 110.8,380 C111.24,380 111.6,380.18 111.6,380.4 C111.6,380.62 112.05,380.8 112.6,380.8 C113.15,380.8 113.6,380.98 113.6,381.2 C113.6,381.42 113.96,381.6 114.4,381.6 C114.84,381.6 115.2,381.78 115.2,382 C115.2,382.22 115.56,382.4 116,382.4 C116.44,382.4 116.8,382.58 116.8,382.8 C116.8,383.02 117.16,383.2 117.6,383.2 C118.04,383.2 118.4,383.336 118.4,383.502 C118.4,383.919 120.294,384.695 122.1,385.02 C122.925,385.168 123.6,385.449 123.6,385.645 C123.6,385.84 123.96,386 124.4,386 C124.84,386 125.2,386.18 125.2,386.4 C125.2,386.62 125.65,386.8 126.2,386.8 C126.75,386.8 127.2,386.98 127.2,387.2 C127.2,387.42 127.74,387.6 128.4,387.6 C129.06,387.6 129.6,387.78 129.6,388 C129.6,388.22 129.96,388.4 130.4,388.4 C130.84,388.4 131.2,388.58 131.2,388.8 C131.2,389.02 131.65,389.2 132.2,389.2 C132.75,389.2 133.2,389.38 133.2,389.6 C133.2,389.82 133.74,390 134.4,390 C135.06,390 135.6,390.167 135.6,390.371 C135.6,390.575 136.59,390.866 137.8,391.017 C139.01,391.168 140,391.451 140,391.646 C140,391.841 140.72,392 141.6,392 C142.48,392 143.2,392.18 143.2,392.4 C143.2,392.62 143.65,392.8 144.2,392.8 C144.75,392.8 145.2,392.98 145.2,393.2 C145.2,393.42 145.92,393.6 146.8,393.6 C147.68,393.6 148.4,393.78 148.4,394 C148.4,394.22 149.03,394.4 149.8,394.4 C150.57,394.4 151.2,394.58 151.2,394.8 C151.2,395.02 151.92,395.2 152.8,395.2 C153.68,395.2 154.4,395.38 154.4,395.6 C154.4,395.82 154.952,396 155.626,396 C156.301,396 157.173,396.171 157.564,396.381 C157.956,396.59 159.924,396.886 161.938,397.038 C163.952,397.19 165.6,397.469 165.6,397.657 C165.6,397.846 166.59,398 167.8,398 C169.01,398 170,398.18 170,398.4 C170,398.631 171.256,398.8 172.967,398.8 C174.984,398.8 175.987,398.96 176.1,399.3 C176.344,400.032 222.856,400.032 223.1,399.3 C223.213,398.96 224.216,398.8 226.233,398.8 C227.944,398.8 229.2,398.631 229.2,398.4 C229.2,398.18 230.19,398 231.4,398 C232.61,398 233.6,397.847 233.6,397.659 C233.6,397.472 235.353,397.195 237.495,397.044 C239.637,396.894 241.563,396.597 241.775,396.385 C241.987,396.173 242.844,396 243.68,396 C244.516,396 245.2,395.82 245.2,395.6 C245.2,395.38 245.83,395.2 246.6,395.2 C247.37,395.2 248,395.02 248,394.8 C248,394.58 248.72,394.4 249.6,394.4 C250.48,394.4 251.2,394.22 251.2,394 C251.2,393.78 251.83,393.6 252.6,393.6 C253.37,393.6 254,393.42 254,393.2 C254,392.98 254.619,392.8 255.376,392.8 C256.133,392.8 256.864,392.62 257,392.4 C257.136,392.18 257.687,392 258.224,392 C258.761,392 259.2,391.841 259.2,391.646 C259.2,391.451 260.19,391.168 261.4,391.017 C262.61,390.866 263.6,390.575 263.6,390.371 C263.6,390.167 264.14,390 264.8,390 C265.46,390 266,389.82 266,389.6 C266,389.38 266.54,389.2 267.2,389.2 C267.86,389.2 268.4,389.02 268.4,388.8 C268.4,388.58 268.85,388.4 269.4,388.4 C269.95,388.4 270.4,388.22 270.4,388 C270.4,387.78 270.76,387.6 271.2,387.6 C271.64,387.6 272,387.42 272,387.2 C272,386.98 272.54,386.8 273.2,386.8 C273.86,386.8 274.4,386.62 274.4,386.4 C274.4,386.18 274.67,386 275,386 C275.33,386 275.6,385.843 275.6,385.652 C275.6,385.46 276.5,385.184 277.6,385.038 C278.7,384.892 279.6,384.599 279.6,384.386 C279.6,384.174 279.96,384 280.4,384 C280.84,384 281.2,383.82 281.2,383.6 C281.2,383.38 281.47,383.2 281.8,383.2 C282.13,383.2 282.4,383.02 282.4,382.8 C282.4,382.58 282.94,382.4 283.6,382.4 C284.26,382.4 284.8,382.22 284.8,382 C284.8,381.78 285.16,381.6 285.6,381.6 C286.04,381.6 286.4,381.42 286.4,381.2 C286.4,380.98 286.76,380.8 287.2,380.8 C287.64,380.8 288,380.62 288,380.4 C288,380.18 288.27,380 288.6,380 C288.93,380 289.2,379.836 289.2,379.635 C289.2,379.434 289.92,379.149 290.8,379 C291.68,378.851 292.4,378.566 292.4,378.365 C292.4,378.164 292.63,378 292.912,378 C293.193,378 293.683,377.64 294,377.2 C294.317,376.76 294.897,376.4 295.288,376.4 C295.68,376.4 296,376.22 296,376 C296,375.78 296.36,375.6 296.8,375.6 C297.24,375.6 297.6,375.42 297.6,375.2 C297.6,374.98 297.96,374.8 298.4,374.8 C298.84,374.8 299.2,374.62 299.2,374.4 C299.2,374.18 299.393,374 299.629,374 C299.864,374 300.327,373.73 300.657,373.4 C300.987,373.07 301.604,372.8 302.029,372.8 C302.453,372.8 302.8,372.62 302.8,372.4 C302.8,372.18 303.12,372 303.512,372 C303.903,372 304.483,371.64 304.8,371.2 C305.117,370.76 305.567,370.4 305.8,370.4 C306.033,370.4 306.483,370.04 306.8,369.6 C307.117,369.16 307.657,368.8 308,368.8 C308.343,368.8 308.883,368.44 309.2,368 C309.517,367.56 310.075,367.2 310.439,367.2 C310.804,367.2 311.326,366.93 311.6,366.6 C311.874,366.27 312.306,366 312.561,366 C312.815,366 313.283,365.64 313.6,365.2 C313.917,364.76 314.457,364.4 314.8,364.4 C315.143,364.4 315.683,364.04 316,363.6 C316.317,363.16 316.774,362.8 317.016,362.8 C317.258,362.8 317.847,362.35 318.325,361.8 C318.803,361.25 319.484,360.8 319.837,360.8 C320.19,360.8 320.983,360.26 321.6,359.6 C322.217,358.94 322.843,358.4 322.992,358.4 C323.141,358.4 323.954,357.68 324.8,356.8 C325.646,355.92 326.531,355.2 326.769,355.2 C327.006,355.2 327.2,355.02 327.2,354.8 C327.2,354.58 327.462,354.4 327.782,354.4 C328.386,354.4 329.769,353.137 330.788,351.655 C331.112,351.185 331.607,350.8 331.888,350.8 C332.17,350.8 332.4,350.62 332.4,350.4 C332.4,350.18 332.595,350 332.832,350 C333.449,350 350.8,332.513 350.8,331.892 C350.8,331.608 351.185,331.112 351.655,330.788 C353.162,329.752 354.4,328.382 354.4,327.75 C354.4,327.413 355.12,326.446 356,325.6 C356.88,324.754 357.6,323.953 357.6,323.818 C357.6,323.683 358.197,322.976 358.927,322.247 C359.656,321.517 360.488,320.353 360.775,319.66 C361.062,318.967 361.455,318.4 361.649,318.4 C361.842,318.4 362,318.202 362,317.96 C362,317.719 362.54,317.017 363.2,316.4 C363.86,315.783 364.4,315.031 364.4,314.728 C364.4,314.425 364.76,313.917 365.2,313.6 C365.64,313.283 366,312.815 366,312.561 C366,312.306 366.27,311.874 366.6,311.6 C366.93,311.326 367.2,310.804 367.2,310.439 C367.2,310.075 367.56,309.517 368,309.2 C368.44,308.883 368.8,308.343 368.8,308 C368.8,307.657 369.16,307.117 369.6,306.8 C370.04,306.483 370.4,305.993 370.4,305.712 C370.4,305.43 370.58,305.2 370.8,305.2 C371.02,305.2 371.2,304.906 371.2,304.547 C371.2,304.188 371.536,303.603 371.946,303.247 C372.357,302.891 372.821,302.014 372.978,301.3 C373.135,300.585 373.429,300 373.632,300 C373.834,300 374,299.68 374,299.288 C374,298.897 374.36,298.317 374.8,298 C375.24,297.683 375.6,297.103 375.6,296.712 C375.6,296.32 375.78,296 376,296 C376.22,296 376.4,295.64 376.4,295.2 C376.4,294.76 376.58,294.4 376.8,294.4 C377.02,294.4 377.2,294.13 377.2,293.8 C377.2,293.47 377.38,293.2 377.6,293.2 C377.82,293.2 378,292.84 378,292.4 C378,291.96 378.164,291.6 378.365,291.6 C378.566,291.6 378.851,290.88 379,290 C379.149,289.12 379.434,288.4 379.635,288.4 C379.836,288.4 380,288.13 380,287.8 C380,287.47 380.18,287.2 380.4,287.2 C380.62,287.2 380.8,286.84 380.8,286.4 C380.8,285.96 380.98,285.6 381.2,285.6 C381.42,285.6 381.6,285.24 381.6,284.8 C381.6,284.36 381.78,284 382,284 C382.22,284 382.4,283.64 382.4,283.2 C382.4,282.76 382.58,282.4 382.8,282.4 C383.02,282.4 383.2,281.95 383.2,281.4 C383.2,280.85 383.38,280.4 383.6,280.4 C383.82,280.4 384,280.04 384,279.6 C384,279.16 384.169,278.8 384.375,278.8 C384.582,278.8 384.872,277.99 385.021,277 C385.169,276.01 385.45,275.2 385.645,275.2 C385.84,275.2 386,274.84 386,274.4 C386,273.96 386.18,273.6 386.4,273.6 C386.62,273.6 386.8,273.06 386.8,272.4 C386.8,271.74 386.98,271.2 387.2,271.2 C387.42,271.2 387.6,270.84 387.6,270.4 C387.6,269.96 387.78,269.6 388,269.6 C388.22,269.6 388.4,269.15 388.4,268.6 C388.4,268.05 388.58,267.6 388.8,267.6 C389.02,267.6 389.2,267.06 389.2,266.4 C389.2,265.74 389.38,265.2 389.6,265.2 C389.82,265.2 390,264.761 390,264.224 C390,263.687 390.167,263.144 390.372,263.017 C390.577,262.891 390.867,261.8 391.018,260.594 C391.169,259.387 391.451,258.4 391.646,258.4 C391.841,258.4 392,257.77 392,257 C392,256.23 392.18,255.6 392.4,255.6 C392.62,255.6 392.8,255.06 392.8,254.4 C392.8,253.74 392.98,253.2 393.2,253.2 C393.42,253.2 393.6,252.581 393.6,251.824 C393.6,251.067 393.78,250.336 394,250.2 C394.22,250.064 394.4,249.344 394.4,248.6 C394.4,247.856 394.58,247.136 394.8,247 C395.02,246.864 395.2,246.043 395.2,245.176 C395.2,244.309 395.362,243.6 395.56,243.6 C395.95,243.6 396.145,242.458 396.87,235.9 C397.132,233.535 397.493,231.6 397.673,231.6 C397.853,231.6 398,230.43 398,229 C398,227.533 398.174,226.4 398.4,226.4 C398.635,226.4 398.8,225.011 398.8,223.033 C398.8,220.708 398.954,219.615 399.296,219.501 C400.011,219.263 400,180.733 399.285,180.495 C398.956,180.385 398.8,179.25 398.8,176.967 C398.8,174.989 398.635,173.6 398.4,173.6 C398.174,173.6 398,172.467 398,171 C398,169.57 397.843,168.4 397.652,168.4 C397.46,168.4 397.175,166.6 397.019,164.4 C396.863,162.2 396.57,160.4 396.368,160.4 C396.166,160.4 396,159.5 396,158.4 C396,157.3 395.82,156.4 395.6,156.4 C395.38,156.4 395.2,155.77 395.2,155 C395.2,154.23 395.02,153.6 394.8,153.6 C394.58,153.6 394.4,152.88 394.4,152 C394.4,151.12 394.22,150.4 394,150.4 C393.78,150.4 393.6,149.77 393.6,149 C393.6,148.23 393.42,147.6 393.2,147.6 C392.98,147.6 392.8,146.88 392.8,146 C392.8,145.12 392.62,144.4 392.4,144.4 C392.18,144.4 392,143.95 392,143.4 C392,142.85 391.841,142.4 391.646,142.4 C391.451,142.4 391.169,141.413 391.018,140.206 C390.867,139 390.577,137.909 390.372,137.783 C390.167,137.656 390,137.113 390,136.576 C390,136.039 389.82,135.6 389.6,135.6 C389.38,135.6 389.2,135.06 389.2,134.4 C389.2,133.74 389.02,133.2 388.8,133.2 C388.58,133.2 388.4,132.75 388.4,132.2 C388.4,131.65 388.22,131.2 388,131.2 C387.78,131.2 387.6,130.66 387.6,130 C387.6,129.34 387.42,128.8 387.2,128.8 C386.98,128.8 386.8,128.44 386.8,128 C386.8,127.56 386.62,127.2 386.4,127.2 C386.18,127.2 386,126.66 386,126 C386,125.34 385.822,124.8 385.605,124.8 C385.387,124.8 385.094,124.076 384.952,123.191 C384.811,122.306 384.539,121.486 384.347,121.368 C384.156,121.249 384,120.803 384,120.376 C384,119.949 383.82,119.6 383.6,119.6 C383.38,119.6 383.2,119.33 383.2,119 C383.2,118.67 383.02,118.4 382.8,118.4 C382.58,118.4 382.4,118.04 382.4,117.6 C382.4,117.16 382.22,116.8 382,116.8 C381.78,116.8 381.6,116.26 381.6,115.6 C381.6,114.94 381.42,114.4 381.2,114.4 C380.98,114.4 380.8,114.04 380.8,113.6 C380.8,113.16 380.62,112.8 380.4,112.8 C380.18,112.8 380,112.53 380,112.2 C380,111.87 379.836,111.6 379.635,111.6 C379.434,111.6 379.149,110.88 379,110 C378.851,109.12 378.609,108.4 378.462,108.4 C378.316,108.4 377.94,107.815 377.628,107.1 C377.316,106.385 376.732,105.509 376.33,105.153 C375.929,104.797 375.6,104.212 375.6,103.853 C375.6,103.494 375.42,103.2 375.2,103.2 C374.98,103.2 374.8,102.84 374.8,102.4 C374.8,101.96 374.62,101.6 374.4,101.6 C374.18,101.6 374,101.33 374,101 C374,100.67 373.834,100.4 373.632,100.4 C373.429,100.4 373.145,99.86 373,99.2 C372.855,98.54 372.571,98 372.368,98 C372.166,98 372,97.732 372,97.405 C372,96.857 371.37,95.922 370.1,94.584 C369.825,94.294 369.6,93.814 369.6,93.517 C369.6,93.22 369.24,92.717 368.8,92.4 C368.36,92.083 368,91.503 368,91.112 C368,90.72 367.832,90.4 367.627,90.4 C367.422,90.4 367.126,89.995 366.97,89.5 C366.813,89.005 366.351,88.309 365.943,87.953 C365.534,87.597 365.2,87.052 365.2,86.741 C365.2,86.431 364.84,85.917 364.4,85.6 C363.96,85.283 363.6,84.769 363.6,84.459 C363.6,83.87 362.128,82.4 361.539,82.4 C361.352,82.4 361.2,82.048 361.2,81.618 C361.2,81.188 360.75,80.386 360.2,79.836 C359.65,79.286 359.2,78.624 359.2,78.365 C359.2,77.849 357.681,76.4 357.139,76.4 C356.952,76.4 356.8,76.124 356.8,75.787 C356.8,75.449 356.215,74.559 355.5,73.808 C353.828,72.053 353.2,71.289 353.2,71.009 C353.2,70.886 352.03,69.615 350.6,68.185 C349.17,66.755 348,65.407 348,65.19 C348,64.636 334.932,51.6 334.376,51.6 C334.126,51.6 332.891,50.52 331.631,49.2 C330.371,47.88 329.134,46.8 328.881,46.8 C328.628,46.8 327.611,45.99 326.621,45 C325.631,44.01 324.709,43.2 324.571,43.2 C324.433,43.2 323.817,42.66 323.2,42 C322.583,41.34 321.874,40.8 321.623,40.8 C321.194,40.8 320.755,40.502 319.415,39.3 C319.108,39.025 318.737,38.8 318.589,38.8 C318.442,38.8 317.817,38.26 317.2,37.6 C316.583,36.94 315.831,36.4 315.528,36.4 C315.225,36.4 314.717,36.04 314.4,35.6 C314.083,35.16 313.522,34.8 313.154,34.8 C312.787,34.8 312.382,34.53 312.255,34.2 C312.129,33.87 311.699,33.6 311.301,33.6 C310.903,33.6 310.317,33.24 310,32.8 C309.683,32.36 309.143,32 308.8,32 C308.457,32 307.917,31.64 307.6,31.2 C307.283,30.76 306.833,30.4 306.6,30.4 C306.367,30.4 305.917,30.04 305.6,29.6 C305.283,29.16 304.703,28.8 304.312,28.8 C303.92,28.8 303.6,28.62 303.6,28.4 C303.6,28.18 303.253,28 302.829,28 C302.404,28 301.787,27.73 301.457,27.4 C301.127,27.07 300.664,26.8 300.429,26.8 C300.193,26.8 300,26.62 300,26.4 C300,26.18 299.64,26 299.2,26 C298.76,26 298.4,25.82 298.4,25.6 C298.4,25.38 298.08,25.2 297.688,25.2 C297.297,25.2 296.717,24.84 296.4,24.4 C296.083,23.96 295.503,23.6 295.112,23.6 C294.72,23.6 294.4,23.42 294.4,23.2 C294.4,22.98 294.13,22.8 293.8,22.8 C293.47,22.8 293.2,22.636 293.2,22.435 C293.2,22.234 292.48,21.949 291.6,21.8 C290.72,21.651 290,21.366 290,21.165 C290,20.964 289.64,20.8 289.2,20.8 C288.76,20.8 288.4,20.62 288.4,20.4 C288.4,20.18 288.13,20 287.8,20 C287.47,20 287.2,19.82 287.2,19.6 C287.2,19.38 286.84,19.2 286.4,19.2 C285.96,19.2 285.6,19.02 285.6,18.8 C285.6,18.58 285.24,18.4 284.8,18.4 C284.36,18.4 284,18.22 284,18 C284,17.78 283.55,17.6 283,17.6 C282.45,17.6 282,17.42 282,17.2 C282,16.98 281.64,16.8 281.2,16.8 C280.76,16.8 280.4,16.636 280.4,16.435 C280.4,16.234 279.68,15.949 278.8,15.8 C277.92,15.651 277.2,15.366 277.2,15.165 C277.2,14.964 276.75,14.8 276.2,14.8 C275.65,14.8 275.2,14.62 275.2,14.4 C275.2,14.18 274.84,14 274.4,14 C273.96,14 273.6,13.82 273.6,13.6 C273.6,13.38 273.06,13.2 272.4,13.2 C271.74,13.2 271.2,13.02 271.2,12.8 C271.2,12.58 270.75,12.4 270.2,12.4 C269.65,12.4 269.2,12.22 269.2,12 C269.2,11.78 268.84,11.6 268.4,11.6 C267.96,11.6 267.6,11.42 267.6,11.2 C267.6,10.98 267.06,10.8 266.4,10.8 C265.74,10.8 265.2,10.633 265.2,10.429 C265.2,10.225 264.21,9.934 263,9.783 C261.79,9.632 260.8,9.349 260.8,9.154 C260.8,8.959 260.26,8.8 259.6,8.8 C258.94,8.8 258.4,8.62 258.4,8.4 C258.4,8.18 257.77,8 257,8 C256.23,8 255.6,7.82 255.6,7.6 C255.6,7.38 255.06,7.2 254.4,7.2 C253.74,7.2 253.2,7.02 253.2,6.8 C253.2,6.58 252.581,6.4 251.824,6.4 C251.067,6.4 250.336,6.22 250.2,6 C250.064,5.78 249.333,5.6 248.576,5.6 C247.819,5.6 247.2,5.439 247.2,5.242 C247.2,4.859 246.282,4.68 240.5,3.936 C238.465,3.674 236.8,3.311 236.8,3.13 C236.8,2.948 235.81,2.8 234.6,2.8 C233.39,2.8 232.4,2.62 232.4,2.4 C232.4,2.174 231.267,2 229.8,2 C228.333,2 227.2,1.826 227.2,1.6 C227.2,1.365 225.811,1.2 223.833,1.2 C221.89,1.2 220.409,1.027 220.33,0.79 C220.186,0.358 193.332,-0.029 184.1,0.267 M215.767,21.573 C217.105,21.778 220.09,22.16 222.4,22.422 C229.629,23.241 238.308,24.892 245.4,26.796 C250.546,28.178 251.89,28.578 258.8,30.785 C260.238,31.244 265.11,33.158 267.096,34.044 C268.028,34.46 268.901,34.8 269.035,34.8 C269.867,34.8 282.707,41.088 287.968,44.072 C324.141,64.587 352.043,96.867 367.082,135.6 C370.071,143.298 371.862,149 373.74,156.8 C375.992,166.154 376.64,169.64 377.976,179.6 C379.65,192.072 379.278,214.485 377.198,226.5 C376.979,227.765 376.605,229.925 376.367,231.3 C375.849,234.293 375.251,237.288 374.789,239.2 C374.603,239.97 374.237,241.5 373.976,242.6 C372.853,247.342 369.131,259.608 368.03,262.2 C367.843,262.64 367.014,264.71 366.188,266.8 C364.045,272.223 359.123,282.575 356.394,287.4 C353.381,292.728 345.388,304.994 343.068,307.851 C342.733,308.263 341.326,310.04 339.94,311.8 C338.555,313.56 337.324,315.09 337.205,315.2 C337.086,315.31 335.248,317.38 333.119,319.8 C328.966,324.522 323.331,330.133 318.238,334.616 C316.499,336.147 314.879,337.584 314.638,337.809 C314.113,338.299 313.654,338.65 306.742,343.858 C303.779,346.09 300.015,348.786 298.378,349.849 C295.239,351.888 289.155,355.6 288.954,355.6 C288.889,355.6 287.882,356.162 286.718,356.849 C282.716,359.209 268.672,366 267.793,366 C267.682,366 266.828,366.339 265.896,366.753 C264.963,367.167 263.57,367.725 262.8,367.993 C262.03,368.261 261.04,368.638 260.6,368.83 C257.203,370.312 242.523,374.457 236.6,375.606 C235.28,375.862 233.39,376.234 232.4,376.432 C221.415,378.626 204.762,379.752 191.9,379.171 C179.358,378.604 171.081,377.501 158.9,374.775 C153.734,373.619 141.296,369.974 138.6,368.826 C138.16,368.639 135.19,367.439 132,366.16 C107.47,356.326 83.892,339.714 66.199,319.8 C64.439,317.82 62.906,316.11 62.79,316 C61.988,315.236 55.935,307.348 53.033,303.287 C46.715,294.443 40.132,282.873 36.03,273.4 C35.077,271.2 33.977,268.68 33.586,267.8 C31.107,262.226 26.305,246.872 24.829,239.8 C23.513,233.499 23.182,231.771 22.642,228.4 C22.071,224.831 21.821,222.665 20.809,212.486 C19.685,201.178 20.866,180.88 23.42,167.6 C24.438,162.311 24.878,160.224 25.193,159.2 C25.362,158.65 25.72,157.21 25.988,156 C26.255,154.79 26.637,153.26 26.836,152.6 C27.923,148.995 30.897,139.687 31.182,139 C31.364,138.56 32.367,136.04 33.41,133.4 C35.358,128.47 41.474,115.762 43.614,112.2 C44.274,111.1 44.972,109.84 45.163,109.4 C45.571,108.459 54.753,94.66 55.941,93.2 C56.389,92.65 57.888,90.76 59.273,89 C60.658,87.24 61.973,85.599 62.196,85.353 C62.418,85.107 63.59,83.727 64.8,82.287 C68.252,78.179 79.8,66.854 84.414,63.052 C87.409,60.583 94.501,55.133 96.2,53.994 C97.3,53.256 98.29,52.55 98.4,52.425 C98.765,52.01 106.964,46.804 109.808,45.182 C115.874,41.72 124.605,37.326 129.336,35.352 C130.691,34.786 132.34,34.092 133,33.809 C133.66,33.526 134.83,33.075 135.6,32.807 C136.37,32.539 137.36,32.158 137.8,31.96 C139.449,31.22 149.706,28 150.415,28 C150.821,28 151.264,27.82 151.4,27.6 C151.536,27.38 152.166,27.2 152.8,27.2 C153.434,27.2 154.052,27.04 154.173,26.844 C154.294,26.649 154.979,26.388 155.696,26.266 C156.413,26.144 157.855,25.854 158.9,25.622 C166.407,23.954 174.238,22.71 184,21.634 C188.213,21.17 212.827,21.122 215.767,21.573 M187.6,29.62 C186.61,29.797 184.795,29.954 183.567,29.97 C182.338,29.987 180.358,30.169 179.167,30.376 C177.975,30.583 175.65,30.956 174,31.206 C168.567,32.028 164.257,32.859 160.2,33.867 C158,34.414 155.57,35.011 154.8,35.194 C151.455,35.988 142.025,39.096 137.8,40.796 C129.444,44.16 116.782,50.275 114.6,52 C114.38,52.174 113.3,52.812 112.2,53.419 C107.175,56.189 93.408,66.049 89,70.036 C88.56,70.434 87.218,71.623 86.017,72.68 C83.388,74.992 75.776,82.562 73,85.623 C68.825,90.229 64.377,95.708 61.492,99.8 C60.251,101.56 59.093,103.18 58.918,103.4 C57.879,104.707 51.6,114.693 51.6,115.037 C51.6,115.136 51.159,115.915 50.619,116.77 C49.564,118.442 45.456,126.529 44,129.8 C43.511,130.9 42.681,132.75 42.155,133.912 C41.63,135.073 41.2,136.252 41.2,136.532 C41.2,136.811 41.041,137.211 40.847,137.42 C40.489,137.805 38.453,143.331 37.316,147 C36.975,148.1 36.373,149.99 35.978,151.2 C34.655,155.25 32.075,166.545 31.182,172.2 C30.939,173.74 30.579,175.99 30.383,177.2 C28.955,186.009 28.48,207.296 29.518,216 C30.196,221.687 30.763,225.8 31.199,228.2 C31.4,229.3 31.776,231.37 32.037,232.8 C33.748,242.2 38.432,257.75 41.977,265.8 C42.365,266.68 43.021,268.21 43.435,269.2 C46.479,276.473 53.404,288.81 58.781,296.54 C60.441,298.927 62.066,301.267 62.39,301.74 C70.259,313.204 87.86,330.469 100.8,339.418 C102.67,340.711 104.29,341.871 104.4,341.997 C104.663,342.296 113.032,347.445 116.6,349.502 C124.642,354.139 137.405,359.767 146,362.466 C147.43,362.915 148.96,363.424 149.4,363.596 C149.84,363.768 151.01,364.13 152,364.401 C152.99,364.671 154.25,365.038 154.8,365.215 C155.35,365.392 157.42,365.919 159.4,366.386 C161.38,366.853 163.63,367.393 164.4,367.586 C166.126,368.019 177.716,369.79 182.6,370.367 C196.328,371.989 219.272,370.9 233.5,367.952 C239.091,366.794 246.433,364.979 247.8,364.417 C248.24,364.236 249.77,363.768 251.2,363.377 C252.63,362.985 253.971,362.515 254.18,362.332 C254.389,362.15 254.886,362 255.285,362 C255.684,362 256.323,361.833 256.705,361.629 C257.087,361.425 259.523,360.432 262.118,359.423 C275.643,354.161 293.721,344.158 301.911,337.405 C302.29,337.093 303.77,335.918 305.2,334.794 C313.15,328.545 322.629,319.458 329.21,311.778 C336.877,302.83 342.09,295.423 348.902,283.8 C351.57,279.248 359.6,261.977 359.6,260.792 C359.6,260.57 359.775,260.077 359.989,259.695 C360.647,258.519 364.07,247.706 365.401,242.6 C366.252,239.331 368.216,229.315 368.773,225.4 C369.023,223.64 369.394,221.03 369.597,219.6 C370.929,210.231 370.919,190.976 369.577,180.8 C368.009,168.902 365.967,159.285 362.867,149.2 C356.186,127.465 342.355,103.057 327.625,87.012 C320.094,78.81 321.19,79.906 312.988,72.375 C302.098,62.378 284.187,50.715 270.2,44.512 C268.66,43.829 266.59,42.911 265.6,42.471 C261.075,40.461 252.559,37.424 247.4,35.981 C244.642,35.209 242.92,34.733 241.6,34.378 C235.253,32.668 222.93,30.657 212.4,29.612 C207.593,29.135 190.294,29.141 187.6,29.62 M237.285,62.1 C239.847,65.969 240.57,66.8 241.375,66.8 C241.913,66.8 242.464,66.98 242.6,67.2 C242.736,67.42 243.199,67.6 243.629,67.6 C244.059,67.6 244.761,67.819 245.189,68.086 C246.059,68.629 247.107,68.345 251.4,66.4 C252.72,65.802 254.453,65.079 255.251,64.794 L256.703,64.274 L261.127,67.837 C266.047,71.798 265.905,71.489 264.806,75.849 C263.288,81.88 263.299,82.518 264.979,85.784 C266.386,88.52 268.015,90 269.618,90 C269.997,90 273.085,91.287 274.495,92.033 C274.877,92.235 275.458,92.4 275.787,92.4 C276.524,92.4 276.63,92.909 277.238,99.375 C277.702,104.309 277.69,104.577 276.963,105.112 C276.543,105.421 274.533,106.733 272.496,108.027 C270.39,109.366 268.641,110.774 268.444,111.291 C268.253,111.791 267.71,113.407 267.238,114.882 L266.379,117.565 L267.236,119.482 C267.706,120.537 268.516,122.34 269.035,123.489 C270.753,127.292 270.833,126.998 266.741,131.943 C262.545,137.011 263.577,136.654 257.445,135.166 C253.155,134.125 252.963,134.149 249.081,136.213 L245.672,138.027 L243.878,142.513 L242.084,147 L239.542,147.45 C238.144,147.697 235.443,148.002 233.539,148.127 L230.078,148.356 L229.089,146.878 C228.545,146.065 227.3,144.14 226.321,142.6 C224.586,139.871 224.482,139.787 222.238,139.272 C220.972,138.982 219.18,138.42 218.257,138.025 L216.579,137.305 L212.033,139.255 C208.251,140.877 207.38,141.12 206.849,140.702 C204.605,138.938 198.95,134.151 198.707,133.81 C198.409,133.394 198.607,131.575 199.188,129.4 C200.54,124.335 200.557,123.834 199.443,122.067 C198.864,121.15 197.968,119.447 197.453,118.282 L196.517,116.165 L192.411,114.582 C187.346,112.63 187.304,112.57 186.803,106.437 C186.582,103.736 186.308,101.375 186.194,101.19 C186.079,101.004 187.024,100.188 188.293,99.376 C195.254,94.92 194.797,95.394 196.197,91.184 C197.21,88.138 197.383,87.169 197.055,86.384 C195.891,83.6 194.342,80.12 193.994,79.505 C193.34,78.353 193.471,78.104 197.1,73.596 C201.136,68.582 200.554,68.779 207.024,70.231 L211.619,71.261 L214.932,69.565 L218.245,67.869 L220.172,62.969 L222.1,58.07 L225.35,57.683 C227.137,57.47 229.854,57.319 231.386,57.348 L234.173,57.4 L237.285,62.1 M225.925,87.17 C214.448,91.658 211.166,106.155 219.671,114.796 C232.595,127.924 254.449,113.458 247.236,96.55 C243.785,88.46 233.831,84.079 225.925,87.17 M167.6,122.744 C169.25,123.217 173.159,124.253 176.287,125.048 C183.882,126.978 182.941,125.739 185.222,136.8 C187.089,145.852 187.594,147.569 188.539,148.075 C189.36,148.514 193.845,151.848 196.26,153.815 L197.519,154.84 L204.06,154.433 C215.043,153.75 217.685,153.747 218.06,154.414 C218.241,154.736 219.768,157.34 221.454,160.2 C228.736,172.555 228.745,172.575 227.99,173.798 C226.215,176.67 223.379,181.144 220.67,185.346 C218.986,187.956 217.68,190.206 217.766,190.346 C218.144,190.958 219.2,198.199 219.2,200.178 C219.2,202.633 219.315,202.801 223.625,206.654 C229.425,211.837 232.494,214.548 233.317,215.215 L234.183,215.915 L233.236,219.458 C232.716,221.406 232.147,223.63 231.971,224.4 C231.796,225.17 231.449,226.52 231.2,227.4 C230.951,228.28 230.591,229.63 230.4,230.4 C230.209,231.17 229.846,232.52 229.594,233.4 C229.341,234.28 229.04,235.483 228.926,236.073 C228.657,237.454 228.761,237.415 221,239.003 C209.016,241.455 210.001,241.047 207.618,244.551 C206.553,246.118 204.524,248.783 203.109,250.474 L200.537,253.548 L200.826,256.074 C200.985,257.463 201.18,261.627 201.258,265.327 L201.4,272.055 L192.2,277.423 C187.14,280.376 182.87,282.794 182.712,282.796 C182.554,282.798 178.99,280.58 174.792,277.867 L167.159,272.933 L165.279,273.264 C161.133,273.993 154.907,274.794 153.361,274.797 C151.468,274.801 151.36,274.885 146.996,279.796 C145.238,281.774 142.99,284.262 142,285.326 C141.01,286.389 140.14,287.426 140.067,287.629 C139.812,288.338 135.799,287.566 127.4,285.194 C125.631,284.695 119.929,283.165 118.975,282.935 C118.332,282.779 118.036,282.192 117.632,280.268 C117.346,278.91 116.963,277.17 116.78,276.4 C116.597,275.63 116.257,274.145 116.024,273.1 C113.977,263.919 114.384,264.804 111.2,262.628 C109.653,261.571 106.924,259.442 105.136,257.896 L101.884,255.086 L95.042,255.391 C91.279,255.558 87.131,255.718 85.824,255.747 L83.448,255.8 L81.585,252.6 C80.561,250.84 78.525,247.352 77.061,244.848 C75.598,242.345 74.396,240.185 74.391,240.048 C74.386,239.912 74.03,239.35 73.6,238.8 C72.398,237.264 72.557,236.799 76.2,231.2 C78.07,228.326 79.6,225.815 79.6,225.62 C79.6,225.426 79.735,225.207 79.9,225.133 C80.709,224.774 82.836,220.599 82.63,219.776 C82.225,218.162 81.207,209.829 81.203,208.1 C81.2,206.161 81.617,206.65 74.803,200.6 C72.077,198.18 69.222,195.643 68.458,194.963 L67.07,193.726 L67.884,190.363 C71.831,174.043 72.49,172 73.808,172 C74.288,172 75.202,171.842 75.84,171.65 C76.478,171.457 77.99,171.088 79.2,170.83 C83.277,169.96 86.676,169.199 90.323,168.338 C92.271,167.878 92.595,167.629 94.248,165.312 C95.239,163.923 97.043,161.617 98.256,160.186 L100.462,157.586 L100.032,148.357 C99.796,143.281 99.518,138.99 99.414,138.823 C98.94,138.056 103.383,135.17 115.6,128.311 C116.37,127.878 117.171,127.362 117.38,127.162 C118.1,126.475 118.766,126.818 126.669,131.938 C136.673,138.42 136.072,138.115 137.902,137.647 C138.726,137.436 140.57,137.153 142,137.018 C148.87,136.37 147.507,137.227 154.846,128.944 L161.4,121.549 L163,121.717 C163.88,121.809 165.95,122.272 167.6,122.744 M267.276,166.189 C269.805,169.987 271.908,170.631 275.84,168.811 C279.141,167.283 278.868,167.252 281.888,169.5 L284.439,171.4 L284.204,173.2 C283.465,178.866 283.449,178.589 284.6,180.328 C285.199,181.233 286.074,182.083 286.545,182.215 C287.015,182.347 288.337,182.82 289.481,183.266 C291.771,184.159 291.531,183.627 292.2,189.3 L292.401,191 L289.692,192.897 C285.96,195.51 285.333,197.681 287.197,201.53 C288.723,204.68 288.743,204.506 286.527,207.375 C285.497,208.709 284.595,209.877 284.522,209.971 C284.45,210.066 282.998,209.917 281.295,209.642 C276.543,208.872 274.317,210.304 272.806,215.102 C272.212,216.992 271.444,217.353 267.272,217.707 C264.885,217.91 264.698,217.793 262.951,215.012 C262.048,213.575 261.455,213.088 260.2,212.75 C259.32,212.513 258.207,212.167 257.727,211.981 C257.085,211.731 256.214,211.953 254.421,212.821 C251.349,214.309 251.574,214.334 248.787,212.19 C245.776,209.873 245.853,210.045 246.395,206.829 C246.906,203.803 245.431,199.99 243.442,199.193 C242.979,199.007 241.769,198.557 240.752,198.193 C238.937,197.543 238.901,197.496 238.668,195.466 C238.537,194.33 238.315,192.755 238.174,191.966 C237.925,190.581 237.989,190.485 240.089,189.091 C242.471,187.51 242.972,186.998 243.31,185.8 C243.434,185.36 243.71,184.442 243.923,183.76 C244.245,182.727 244.117,182.105 243.155,180.036 C241.867,177.265 241.776,176.694 242.5,175.929 C242.966,175.436 245.08,172.718 245.656,171.872 C245.814,171.639 247.153,171.677 249.166,171.971 C252.908,172.518 255.706,171.615 256.503,169.603 C257.068,168.176 257.449,167.188 258.008,165.7 C258.41,164.631 258.719,164.393 259.749,164.36 C260.437,164.338 261.45,164.176 262,164 C264.712,163.131 265.443,163.434 267.276,166.189 M146.8,174.669 C145.185,174.832 142.166,175.525 141,176 C140.56,176.179 139.39,176.628 138.4,176.997 C136.044,177.876 132.462,180.063 130.537,181.797 C129.691,182.559 128.891,183.186 128.757,183.191 C128.231,183.211 123.878,189.065 122.824,191.17 C110.483,215.811 131.328,241.802 158.6,235.778 C160.826,235.287 167.788,231.737 169.4,230.272 C170.28,229.473 171.126,228.814 171.281,228.809 C171.964,228.787 176.515,222.808 177.953,220.044 C186.251,204.094 178.652,183.062 162.4,176.997 C161.41,176.628 160.24,176.176 159.8,175.993 C157.058,174.853 151.045,174.241 146.8,174.669 M262.2,181.31 C252.115,185.445 252.878,198.697 263.328,200.889 C270.954,202.488 277.669,193.679 274.139,186.705 C271.954,182.388 266.063,179.726 262.2,181.31 M257.6,244.979 C259.305,247.719 260.544,249.286 261.2,249.53 C267.715,251.96 267.737,251.96 273,249.593 C277.683,247.486 276.833,247.302 281.888,251.516 C287.041,255.812 286.755,254.971 285.156,261.093 C284.111,265.091 284.172,265.77 285.891,269.29 L287.4,272.379 L292.175,274.303 C297.733,276.543 297.415,276.056 297.967,283.171 C298.398,288.739 298.627,288.191 294.89,290.552 C293.19,291.626 291.165,292.906 290.39,293.398 C289.187,294.161 288.836,294.756 288.002,297.446 C286.885,301.049 286.874,300.868 288.431,304.267 C289.074,305.671 289.6,306.907 289.6,307.014 C289.6,307.121 289.976,308.009 290.436,308.988 L291.273,310.767 L287.736,315.16 C283.911,319.911 283.331,320.223 280.16,319.241 C275.617,317.834 272.869,317.506 271.524,318.211 C270.796,318.592 269.417,319.296 268.46,319.776 C266.785,320.615 266.644,320.835 264.706,325.624 C263.598,328.361 262.671,330.63 262.646,330.666 C262.621,330.702 260.71,330.93 258.4,331.173 C256.09,331.415 253.428,331.698 252.485,331.801 L250.771,331.989 L247.832,327.462 C244.724,322.675 244.789,322.727 240.316,321.409 C237.721,320.644 237.683,320.652 232.26,323.048 C228.965,324.505 228.207,324.709 227.628,324.295 C227.248,324.023 225.184,322.36 223.043,320.6 C218.729,317.054 218.912,317.505 219.953,313 C221.276,307.279 221.292,306.932 220.304,305.319 C219.793,304.483 218.934,302.918 218.394,301.841 C217.667,300.389 217.049,299.736 216.007,299.323 C215.233,299.015 214.195,298.592 213.7,298.382 C213.205,298.172 212.395,297.838 211.9,297.641 C207.925,296.054 208.141,296.302 207.858,293.009 C207.716,291.354 207.487,288.695 207.35,287.1 L207.1,284.199 L211.203,281.6 C213.46,280.17 215.438,278.64 215.599,278.2 C215.76,277.76 216.364,275.908 216.941,274.084 L217.991,270.769 L216.125,266.204 L214.259,261.64 L216.808,258.52 C218.21,256.804 219.914,254.766 220.594,253.992 L221.832,252.583 L225.216,253.335 C231.235,254.673 231.36,254.663 235.553,252.519 L239.306,250.6 L240.236,248.095 C240.748,246.718 241.425,245.008 241.741,244.295 C242.056,243.583 242.418,242.685 242.545,242.3 C242.713,241.789 243.238,241.587 244.487,241.553 C245.429,241.527 246.74,241.368 247.4,241.2 C248.06,241.032 250.04,240.874 251.8,240.848 L255,240.801 L257.6,244.979 M247.067,270.029 C241.691,271.879 238.548,275.1 236.049,281.319 C235.802,281.934 235.6,284.041 235.6,286 C235.6,289.663 235.753,290.285 237.549,293.933 C243.259,305.526 261.813,305.551 267.244,293.973 C267.598,293.218 268.138,292.078 268.443,291.441 C269.195,289.872 269.18,283.159 268.42,280.8 C265.59,272.015 255.74,267.046 247.067,270.029" id="path1"></path>
        </g>
    </g>
</svg>
