<svg width="401px" height="400px" viewBox="0 0 401 400" version="1.1" xmlns="http://www.w3.org/2000/svg" xmlns:xlink="http://www.w3.org/1999/xlink">
    <!-- Generator: Sketch 51 (57462) - http://www.bohemiancoding.com/sketch -->
    <desc>Created with Sketch.</desc>
    <defs></defs>
    <g id="Page-1" stroke="none" stroke-width="1" fill="none" fill-rule="evenodd">
        <g id="play">
            <path d="M199.797,25.517 C199.186,25.953 18.439,387.739 18.656,388.09 C18.914,388.509 381.098,388.488 381.357,388.07 C381.469,387.888 358.665,341.919 330.68,285.916 C302.696,229.913 273.23,170.917 265.2,154.814 C257.17,138.71 250.117,124.604 249.527,123.467 C248.474,121.438 223.397,71.221 212.64,49.6 C209.63,43.55 207.026,38.33 206.853,38 C205.455,35.328 204.198,32.849 202.593,29.6 C200.473,25.308 200.347,25.124 199.797,25.517 M238.443,246.819 C259.282,288.491 276.246,322.725 276.142,322.893 C275.754,323.521 124,323.261 124,322.633 C124,321.582 199.659,170.753 200.11,170.903 C200.355,170.985 217.605,205.147 238.443,246.819" id="path1"></path>
        </g>
    </g>
</svg>
