
<svg width="378px" height="379px" viewBox="0 0 378 379" version="1.1" xmlns="http://www.w3.org/2000/svg" xmlns:xlink="http://www.w3.org/1999/xlink">
    <!-- Generator: Sketch 51 (57462) - http://www.bohemiancoding.com/sketch -->
    <desc>Created with Sketch.</desc>
    <defs></defs>
    <g id="Page-1" stroke="none" stroke-width="1" fill="none" fill-rule="evenodd">
        <g id="push" transform="translate(-11.000000, -10.000000)" fill="#A53796">
            <path d="M190.8,11.274 C189.15,11.463 185.73,11.783 183.2,11.984 C174.171,12.701 162.731,14.381 161.165,15.219 C160.773,15.428 159.959,15.6 159.355,15.6 C158.751,15.6 157.704,15.768 157.028,15.973 C156.353,16.178 154.99,16.553 154,16.806 C152.264,17.25 148.873,18.194 146.8,18.81 C146.25,18.973 144.99,19.329 144,19.599 C143.01,19.87 141.84,20.235 141.4,20.412 C140.96,20.588 139.61,21.054 138.4,21.447 C137.19,21.84 136.029,22.305 135.82,22.481 C135.611,22.656 135.114,22.8 134.715,22.8 C134.316,22.8 133.677,22.959 133.295,23.153 C132.169,23.726 130.795,24.3 127.4,25.617 C124.601,26.703 118.872,29.29 116.645,30.474 C116.23,30.695 114.16,31.785 112.045,32.897 C105.15,36.522 100.134,39.538 94.07,43.702 C89.81,46.628 81.736,52.571 81.2,53.175 C81.09,53.299 79.92,54.299 78.6,55.398 C67.559,64.59 55.236,77.911 46.8,89.772 C45.59,91.473 44.15,93.475 43.6,94.22 C43.05,94.966 42.136,96.346 41.568,97.288 C41.001,98.229 39.606,100.475 38.468,102.278 C37.331,104.081 36.4,105.659 36.4,105.786 C36.4,105.912 35.951,106.728 35.402,107.597 C34.329,109.296 28.925,119.961 27.799,122.6 C27.424,123.48 26.794,124.92 26.4,125.8 C26.005,126.68 25.465,128.03 25.198,128.8 C24.73,130.156 23.842,132.267 23.141,133.695 C22.954,134.077 22.8,134.741 22.8,135.171 C22.8,135.601 22.62,136.064 22.4,136.2 C22.18,136.336 22,136.876 22,137.4 C22,137.924 21.834,138.455 21.631,138.581 C21.428,138.706 21.135,139.386 20.98,140.091 C20.825,140.797 20.559,141.65 20.388,141.987 C20.105,142.546 19.859,143.371 18.712,147.6 C18.503,148.37 18.15,149.54 17.927,150.2 C17.389,151.791 16.567,155.247 15.595,160 C15.393,160.99 14.945,163.15 14.601,164.8 C11.994,177.28 10.915,196.77 11.953,212.6 C12.34,218.485 12.541,220.565 13.501,228.6 C13.685,230.14 14.028,231.76 14.264,232.2 C14.499,232.64 14.605,233.244 14.498,233.543 C14.392,233.842 14.585,235.192 14.927,236.543 C15.27,237.894 15.661,239.54 15.797,240.2 C16.582,244.026 17.431,247.533 17.927,249 C18.785,251.538 19.2,253.082 19.2,253.734 C19.2,254.106 19.363,254.723 19.563,255.105 C19.763,255.487 20.203,256.7 20.54,257.8 C21.198,259.941 22.643,264.087 23.189,265.4 C23.372,265.84 24.011,267.46 24.608,269 C26.272,273.292 26.274,273.296 27.01,275 C31.428,285.225 40.143,300.601 46.341,309.106 C48.643,312.264 55.537,321.029 56.838,322.451 C57.367,323.028 59.42,325.278 61.4,327.451 C64.269,330.599 71.931,338.093 76.302,342.028 C79.355,344.777 91.737,354.4 92.219,354.4 C92.338,354.4 93.371,355.083 94.517,355.917 C96.496,357.359 102.587,361.206 105.6,362.918 C106.37,363.355 107.54,364.044 108.2,364.448 C110.722,365.992 125.608,373.175 128,374.002 C128.77,374.268 129.94,374.717 130.6,375.001 C131.26,375.284 132.34,375.736 133,376.005 C133.66,376.273 134.513,376.652 134.895,376.847 C135.277,377.041 136.006,377.2 136.515,377.2 C137.024,377.2 137.611,377.355 137.82,377.544 C138.029,377.733 139.19,378.208 140.4,378.599 C141.61,378.99 142.96,379.444 143.4,379.609 C143.84,379.774 145.01,380.131 146,380.403 C146.99,380.676 148.61,381.124 149.6,381.4 C150.59,381.676 152.21,382.116 153.2,382.378 C154.19,382.64 155.553,383.022 156.228,383.227 C156.904,383.432 157.881,383.6 158.4,383.6 C158.919,383.6 159.896,383.768 160.572,383.974 C164.886,385.287 174.026,386.693 180.6,387.056 C182.8,387.177 184.793,387.434 185.028,387.627 C185.263,387.82 189.673,388.088 194.828,388.223 C203.664,388.453 205.695,388.367 219,387.199 C226.182,386.569 233.692,385.485 235.326,384.843 C235.945,384.599 237.06,384.4 237.802,384.4 C238.545,384.4 239.264,384.22 239.4,384 C239.536,383.78 240.299,383.6 241.095,383.6 C241.892,383.6 243.096,383.432 243.772,383.227 C244.447,383.022 245.81,382.643 246.8,382.386 C247.79,382.128 249.32,381.689 250.2,381.41 C251.703,380.934 253.514,380.412 256.8,379.506 C257.57,379.294 258.71,378.868 259.332,378.56 C259.955,378.252 260.8,378 261.209,378 C261.618,378 262.064,377.82 262.2,377.6 C262.336,377.38 262.799,377.2 263.229,377.2 C263.659,377.2 264.323,377.038 264.705,376.84 C265.087,376.642 266.66,375.994 268.2,375.401 C269.74,374.808 271.405,374.16 271.9,373.961 C272.395,373.762 273.205,373.444 273.7,373.253 C278.193,371.521 291.09,364.899 295.966,361.821 C296.856,361.26 297.68,360.8 297.798,360.8 C298.144,360.8 302.587,357.829 302.733,357.5 C302.807,357.335 303.059,357.2 303.293,357.2 C303.825,357.2 312.168,351.333 315.4,348.687 C316.72,347.606 318.503,346.154 319.363,345.461 C330.92,336.141 342.701,323.707 352.15,310.853 C354.625,307.486 361.12,297.626 362.593,295 C363.21,293.9 364.235,292.1 364.871,291 C365.912,289.201 370.934,279.064 372.798,275 C373.201,274.12 374.194,271.69 375.004,269.6 C375.813,267.51 376.639,265.487 376.838,265.105 C377.037,264.723 377.2,264.136 377.2,263.8 C377.2,263.464 377.362,262.877 377.559,262.495 C378.13,261.389 379.073,258.754 379.596,256.8 C379.861,255.81 380.24,254.687 380.439,254.305 C380.638,253.923 380.8,253.318 380.8,252.959 C380.8,252.358 381.703,249.287 382.435,247.4 C382.606,246.96 382.84,246.06 382.955,245.4 C383.07,244.74 383.362,243.3 383.603,242.2 C383.845,241.1 384.173,239.3 384.333,238.2 C384.493,237.1 384.775,235.957 384.96,235.66 C385.145,235.363 385.455,234.013 385.649,232.66 C386.642,225.73 386.877,223.91 387.209,220.6 C387.408,218.62 387.722,215.65 387.908,214 C388.338,210.173 388.196,183.433 387.742,182.729 C387.554,182.438 387.275,180.58 387.121,178.6 C386.681,172.922 385.416,164.27 384.907,163.454 C384.751,163.204 384.493,162.1 384.333,161 C383.851,157.682 382.136,150.414 381.281,148.066 C381.067,147.48 380.668,146.19 380.393,145.2 C380.118,144.21 379.365,141.87 378.719,140 C378.073,138.13 377.278,135.79 376.952,134.8 C376.385,133.078 376.162,132.505 375.001,129.8 C374.717,129.14 374.26,127.97 373.985,127.2 C373.71,126.43 372.725,124.18 371.797,122.2 C370.869,120.22 369.606,117.52 368.992,116.2 C368.377,114.88 367.543,113.322 367.137,112.738 C366.732,112.154 366.4,111.471 366.4,111.219 C366.4,110.967 365.77,109.777 365,108.573 C364.23,107.369 363.6,106.301 363.6,106.2 C363.6,106.099 362.97,105.031 362.2,103.827 C361.43,102.623 360.8,101.53 360.8,101.397 C360.8,100.465 349.396,84.477 345.6,80.087 C344.83,79.196 343.57,77.655 342.8,76.661 C340.972,74.302 325.696,59.107 322.6,56.568 C321.28,55.486 320.11,54.51 320,54.4 C318.815,53.215 310.058,46.527 307.429,44.8 C306.927,44.47 306.085,43.886 305.558,43.503 C304.426,42.679 296.013,37.426 294,36.285 C287.666,32.697 280.872,29.233 275.9,27.057 C272.331,25.494 271.626,25.208 268.4,24.015 C266.53,23.323 264.687,22.586 264.305,22.378 C263.923,22.17 263.259,22 262.829,22 C262.399,22 261.945,21.834 261.819,21.631 C261.694,21.428 261.014,21.135 260.309,20.98 C259.603,20.825 258.75,20.563 258.413,20.398 C257.381,19.893 254.982,19.2 254.266,19.2 C253.894,19.2 253.277,19.042 252.895,18.85 C252.209,18.504 249.504,17.702 246,16.806 C245.01,16.553 243.647,16.178 242.972,15.973 C242.296,15.768 241.117,15.6 240.352,15.6 C239.586,15.6 238.789,15.43 238.58,15.223 C237.805,14.455 225.858,12.696 216.6,11.988 C213.96,11.786 210.36,11.449 208.6,11.239 C204.743,10.779 194.946,10.798 190.8,11.274 M214,78.364 C219.29,78.976 222.376,79.481 225.2,80.194 C228.321,80.983 230.937,81.566 232.704,81.866 C233.421,81.988 234.106,82.249 234.227,82.444 C234.348,82.64 234.842,82.801 235.324,82.802 C235.806,82.804 236.716,83.074 237.346,83.402 C237.976,83.731 238.82,84 239.222,84 C239.624,84 240.064,84.18 240.2,84.4 C240.336,84.62 240.851,84.8 241.344,84.8 C241.837,84.8 242.411,84.951 242.62,85.136 C242.829,85.321 243.63,85.708 244.4,85.996 C246.869,86.92 248.518,87.641 252.277,89.44 C254.3,90.408 256.04,91.2 256.144,91.2 C256.249,91.2 257.704,92.01 259.378,93 C261.053,93.99 262.491,94.8 262.575,94.8 C262.997,94.8 274.264,102.652 275.2,103.598 C275.31,103.709 276.3,104.516 277.4,105.391 C282.859,109.735 290.249,117.135 294.586,122.601 C295.459,123.7 296.281,124.69 296.412,124.8 C299.642,127.497 310.518,146.783 313.847,155.717 C314.192,156.643 314.628,157.76 314.816,158.2 C315.109,158.884 316.225,162.389 317.628,167.028 C317.833,167.704 318,168.638 318,169.105 C318,169.571 318.18,170.064 318.4,170.2 C318.62,170.336 318.8,170.982 318.8,171.636 C318.8,172.291 319.07,173.472 319.4,174.262 C319.73,175.051 320,176.45 320,177.369 C320,178.288 320.165,179.211 320.368,179.42 C322.016,181.124 322.015,218.07 320.366,219.78 C320.165,219.989 320,220.873 320,221.745 C320,222.617 319.713,224.336 319.363,225.565 C319.013,226.794 318.577,228.43 318.396,229.2 C317.606,232.55 314.825,241.55 314.008,243.4 C313.813,243.84 313.372,244.875 313.027,245.7 C311.597,249.122 310.993,250.425 308.717,255 C307.405,257.64 306.115,260.07 305.852,260.4 C305.59,260.73 304.94,261.807 304.409,262.793 C303.878,263.779 302.007,266.659 300.25,269.193 C287.404,287.722 268.408,303.266 248.2,311.785 C247.32,312.156 246.06,312.703 245.4,313.001 C244.74,313.299 243.48,313.772 242.6,314.053 C241.72,314.334 240.829,314.707 240.62,314.882 C240.411,315.057 239.862,315.2 239.4,315.2 C238.938,315.2 238.389,315.35 238.18,315.532 C237.971,315.715 236.63,316.182 235.2,316.57 C233.77,316.958 232.287,317.438 231.905,317.638 C231.523,317.837 230.816,318 230.334,318 C229.851,318 228.904,318.164 228.228,318.365 C224.141,319.581 221.726,320.036 214.8,320.892 C209.886,321.5 190.114,321.5 185.2,320.892 C177.522,319.943 174.231,319.324 171.681,318.351 C171.176,318.158 170.329,318 169.8,318 C169.271,318 168.424,317.839 167.919,317.642 C167.413,317.446 165.92,316.959 164.6,316.56 C163.28,316.162 162.029,315.693 161.82,315.518 C161.611,315.343 161.037,315.2 160.544,315.2 C160.051,315.2 159.536,315.02 159.4,314.8 C159.264,314.58 158.801,314.4 158.371,314.4 C157.941,314.4 157.277,314.235 156.895,314.034 C156.513,313.833 155.21,313.273 154,312.789 C149.397,310.95 140.922,306.871 139.6,305.859 C139.27,305.607 138.595,305.175 138.1,304.9 C136.295,303.897 135.444,303.366 132.815,301.6 C120.746,293.495 114.551,287.825 103.96,275.195 C102.037,272.901 95.364,263.184 94.762,261.8 C94.571,261.36 93.97,260.28 93.428,259.4 C92.415,257.755 89.363,251.689 88.296,249.2 C87.966,248.43 87.224,246.76 86.648,245.489 C86.072,244.218 85.6,243.001 85.6,242.784 C85.6,242.567 85.441,242.077 85.247,241.695 C83.922,239.084 81.563,230.587 80.401,224.237 C80.164,222.937 79.857,221.692 79.72,221.47 C77.257,217.485 77.563,186.64 80.173,175.8 C80.544,174.26 80.951,172.231 81.077,171.291 C81.203,170.351 81.462,169.485 81.653,169.367 C81.844,169.249 82,168.771 82,168.305 C82,167.838 82.173,166.904 82.385,166.228 C83.383,163.041 84.885,158.52 85.185,157.8 C85.368,157.36 85.916,156.01 86.404,154.8 C87.667,151.663 88.688,149.353 90.03,146.593 C90.673,145.27 91.2,144.051 91.2,143.885 C91.2,143.719 91.62,142.912 92.133,142.091 C92.646,141.271 93.755,139.43 94.597,138 C96.189,135.297 100.409,128.749 100.785,128.4 C100.903,128.29 102.35,126.406 104,124.214 C107.847,119.103 118.137,108.717 123.8,104.23 C127.839,101.031 136.789,94.8 137.348,94.8 C137.478,94.8 138.533,94.207 139.692,93.481 C146.179,89.423 159.71,83.894 168.7,81.628 C169.635,81.393 171.075,81.038 171.9,80.841 C172.725,80.643 174.3,80.255 175.4,79.979 C177.943,79.342 181.067,78.903 186.555,78.412 C188.951,78.198 191.021,77.912 191.155,77.777 C191.508,77.423 209.966,77.898 214,78.364" id="path2"></path>
        </g>
    </g>
</svg>
