<?xml version="1.0" encoding="UTF-8"?>
<svg width="122px" height="122px" viewBox="0 0 122 122" version="1.1" fill="#fff" stroke="#fff" 
    xmlns="http://www.w3.org/2000/svg" 
    xmlns:xlink="http://www.w3.org/1999/xlink">
    <path d="M48.6455696,0 C21.7746835,0 0,21.7746835 0,48.6455696 C0,75.5164557 21.7746835,97.2911392 48.6455696,97.2911392 C58.2202532,97.2911392 67.0227848,94.5113924 74.435443,89.878481 L103.468354,118.756962 C105.475949,120.764557 108.255696,122 111.189873,122 C114.124051,122 116.749367,120.918987 118.756962,118.756962 C120.764557,116.749367 122,113.96962 122,111.189873 C122,108.410127 120.918987,105.63038 118.756962,103.622785 L89.7240506,74.435443 C94.5113924,66.8683544 97.1367089,58.0658228 97.1367089,48.6455696 C97.2911392,21.7746835 75.5164557,0 48.6455696,0 Z M9.26582278,48.6455696 C9.26582278,26.8708861 26.8708861,9.26582278 48.6455696,9.26582278 C70.4202532,9.26582278 88.0253165,26.8708861 88.0253165,48.6455696 C88.0253165,70.2658228 70.2658228,88.0253165 48.6455696,88.0253165 C27.0253165,88.0253165 9.26582278,70.2658228 9.26582278,48.6455696 Z M112.270886,110.108861 C112.888608,110.726582 112.888608,111.653165 112.270886,112.270886 C111.962025,112.734177 111.498734,112.734177 111.189873,112.734177 C110.881013,112.734177 110.417722,112.734177 110.108861,112.270886 L81.8481013,84.0101266 C82.6202532,83.2379747 83.3924051,82.6202532 84.0101266,81.8481013 L112.270886,110.108861 Z"></path>
</svg>
