<svg width="400px" height="400px" viewBox="0 0 400 400" version="1.1" xmlns="http://www.w3.org/2000/svg" xmlns:xlink="http://www.w3.org/1999/xlink">
    <!-- Generator: Sketch 51 (57462) - http://www.bohemiancoding.com/sketch -->
    <desc>Created with Sketch.</desc>
    <defs></defs>
    <g id="Page-1" stroke="none" stroke-width="1" fill="none" fill-rule="evenodd">
        <g id="image2vector-(1)">
            <path d="M181.7,0.298 C179.422,0.37 177.6,0.6 177.6,0.814 C177.6,1.028 176.261,1.2 174.6,1.2 C172.867,1.2 171.6,1.369 171.6,1.6 C171.6,1.82 170.7,2 169.6,2 C168.5,2 167.6,2.18 167.6,2.4 C167.6,2.626 166.467,2.8 165,2.8 C163.57,2.8 162.4,2.959 162.4,3.153 C162.4,3.347 160.869,3.633 158.999,3.789 C157.128,3.945 155.699,4.236 155.822,4.436 C155.946,4.636 155.317,4.8 154.424,4.8 C153.531,4.8 152.8,4.98 152.8,5.2 C152.8,5.42 152.17,5.6 151.4,5.6 C150.63,5.6 150,5.78 150,6 C150,6.22 149.28,6.4 148.4,6.4 C147.52,6.4 146.8,6.58 146.8,6.8 C146.8,7.02 146.08,7.2 145.2,7.2 C144.32,7.2 143.6,7.38 143.6,7.6 C143.6,7.82 143.15,8 142.6,8 C142.05,8 141.6,8.18 141.6,8.4 C141.6,8.62 141.06,8.8 140.4,8.8 C139.74,8.8 139.2,8.98 139.2,9.2 C139.2,9.42 138.75,9.6 138.2,9.6 C137.65,9.6 137.2,9.749 137.2,9.931 C137.2,10.113 136.66,10.182 136,10.085 C135.28,9.98 134.8,10.087 134.8,10.355 C134.8,10.6 134.26,10.8 133.6,10.8 C132.94,10.8 132.4,10.98 132.4,11.2 C132.4,11.42 131.95,11.6 131.4,11.6 C130.85,11.6 130.4,11.78 130.4,12 C130.4,12.22 130.04,12.4 129.6,12.4 C129.16,12.4 128.8,12.58 128.8,12.8 C128.8,13.02 128.26,13.2 127.6,13.2 C126.94,13.2 126.4,13.36 126.4,13.556 C126.4,13.752 125.59,14.151 124.6,14.443 C123.61,14.735 122.8,15.1 122.8,15.252 C122.8,15.405 122.081,15.651 121.202,15.8 C120.323,15.948 119.503,16.234 119.378,16.435 C119.254,16.636 118.803,16.8 118.376,16.8 C117.949,16.8 117.6,16.98 117.6,17.2 C117.6,17.42 117.24,17.6 116.8,17.6 C116.36,17.6 116,17.78 116,18 C116,18.22 115.64,18.4 115.2,18.4 C114.76,18.4 114.4,18.58 114.4,18.8 C114.4,19.02 114.04,19.2 113.6,19.2 C113.16,19.2 112.8,19.38 112.8,19.6 C112.8,19.82 112.53,20 112.2,20 C111.87,20 111.6,20.18 111.6,20.4 C111.6,20.62 111.24,20.8 110.8,20.8 C110.36,20.8 110,20.98 110,21.2 C110,21.42 109.731,21.6 109.403,21.6 C108.569,21.6 105.6,22.923 105.6,23.294 C105.6,23.462 105.24,23.6 104.8,23.6 C104.36,23.6 104,23.78 104,24 C104,24.22 103.68,24.4 103.288,24.4 C102.897,24.4 102.317,24.76 102,25.2 C101.683,25.64 101.193,26 100.912,26 C100.63,26 100.4,26.18 100.4,26.4 C100.4,26.62 100.04,26.8 99.6,26.8 C99.16,26.8 98.8,26.98 98.8,27.2 C98.8,27.42 98.453,27.6 98.029,27.6 C97.604,27.6 96.987,27.87 96.657,28.2 C96.327,28.53 95.786,28.8 95.456,28.8 C95.125,28.8 94.74,29.16 94.6,29.6 C94.46,30.04 93.998,30.4 93.573,30.4 C93.148,30.4 92.8,30.58 92.8,30.8 C92.8,31.02 92.48,31.2 92.088,31.2 C91.697,31.2 91.117,31.56 90.8,32 C90.483,32.44 89.922,32.8 89.554,32.8 C89.187,32.8 88.782,33.07 88.655,33.4 C88.529,33.73 88.132,34 87.773,34 C87.414,34 86.617,34.54 86,35.2 C85.383,35.86 84.631,36.4 84.328,36.4 C84.025,36.4 83.517,36.76 83.2,37.2 C82.883,37.64 82.475,38 82.294,38 C82.112,38 81.514,38.45 80.964,39 C80.414,39.55 79.684,40 79.342,40 C79.001,40 78.217,40.54 77.6,41.2 C76.983,41.86 76.36,42.4 76.214,42.4 C76.068,42.4 75.071,43.3 74,44.4 C72.929,45.5 71.837,46.4 71.574,46.4 C71.312,46.4 70.146,47.39 68.983,48.6 C67.82,49.81 66.675,50.8 66.439,50.8 C65.881,50.8 51.6,65.079 51.6,65.637 C51.6,65.87 50.43,67.197 49,68.585 C47.57,69.974 46.4,71.324 46.4,71.586 C46.4,71.848 45.68,72.754 44.8,73.6 C43.92,74.446 43.2,75.421 43.2,75.769 C43.2,76.116 43.039,76.4 42.842,76.4 C42.137,76.4 40.129,78.622 39.86,79.7 C39.708,80.305 39.408,80.8 39.192,80.8 C38.977,80.8 38.8,81.16 38.8,81.6 C38.8,82.04 38.648,82.4 38.461,82.4 C37.872,82.4 36.4,83.87 36.4,84.459 C36.4,84.769 36.04,85.283 35.6,85.6 C35.16,85.917 34.8,86.431 34.8,86.742 C34.8,87.054 34.341,87.734 33.779,88.254 C33.218,88.774 32.976,89.2 33.241,89.2 C33.506,89.2 33.335,89.536 32.861,89.947 C32.388,90.358 32,90.948 32,91.259 C32,91.569 31.64,92.083 31.2,92.4 C30.76,92.717 30.4,93.285 30.4,93.661 C30.4,94.038 30.04,94.46 29.6,94.6 C29.16,94.74 28.8,95.202 28.8,95.627 C28.8,96.052 28.62,96.4 28.4,96.4 C28.18,96.4 28,96.747 28,97.171 C28,97.596 27.73,98.213 27.4,98.543 C27.07,98.873 26.8,99.426 26.8,99.771 C26.8,100.117 26.62,100.4 26.4,100.4 C26.18,100.4 26,100.67 26,101 C26,101.33 25.82,101.6 25.6,101.6 C25.38,101.6 25.2,101.96 25.2,102.4 C25.2,102.84 25.02,103.2 24.8,103.2 C24.58,103.2 24.4,103.494 24.4,103.853 C24.4,104.212 24.076,104.797 23.68,105.153 C22.847,105.901 21.6,108.424 21.6,109.36 C21.6,109.712 21.42,110 21.2,110 C20.98,110 20.8,110.36 20.8,110.8 C20.8,111.24 20.62,111.6 20.4,111.6 C20.18,111.6 20,111.87 20,112.2 C20,112.53 19.82,112.8 19.6,112.8 C19.38,112.8 19.2,113.16 19.2,113.6 C19.2,114.04 19.02,114.4 18.8,114.4 C18.58,114.4 18.4,114.94 18.4,115.6 C18.4,116.26 18.22,116.8 18,116.8 C17.78,116.8 17.6,117.16 17.6,117.6 C17.6,118.04 17.42,118.4 17.2,118.4 C16.98,118.4 16.8,118.67 16.8,119 C16.8,119.33 16.626,119.6 16.414,119.6 C16.201,119.6 15.908,120.5 15.762,121.6 C15.616,122.7 15.34,123.6 15.148,123.6 C14.957,123.6 14.8,123.87 14.8,124.2 C14.8,124.53 14.62,124.8 14.4,124.8 C14.18,124.8 14,125.34 14,126 C14,126.66 13.82,127.2 13.6,127.2 C13.38,127.2 13.2,127.56 13.2,128 C13.2,128.44 13.02,128.8 12.8,128.8 C12.58,128.8 12.4,129.34 12.4,130 C12.4,130.66 12.22,131.2 12,131.2 C11.78,131.2 11.6,131.65 11.6,132.2 C11.6,132.75 11.42,133.2 11.2,133.2 C10.98,133.2 10.8,133.74 10.8,134.4 C10.8,135.06 10.597,135.6 10.35,135.6 C10.063,135.6 9.987,136.036 10.14,136.8 C10.275,137.477 10.21,138 9.99,138 C9.775,138 9.6,138.45 9.6,139 C9.6,139.55 9.42,140 9.2,140 C8.98,140 8.8,140.54 8.8,141.2 C8.8,141.86 8.62,142.4 8.4,142.4 C8.18,142.4 8,143.03 8,143.8 C8,144.57 7.82,145.2 7.6,145.2 C7.38,145.2 7.2,145.74 7.2,146.4 C7.2,147.06 7.02,147.6 6.8,147.6 C6.58,147.6 6.4,148.23 6.4,149 C6.4,149.77 6.22,150.4 6,150.4 C5.78,150.4 5.6,151.12 5.6,152 C5.6,152.88 5.42,153.6 5.2,153.6 C4.98,153.6 4.797,154.455 4.794,155.5 C4.79,156.749 4.667,157.21 4.436,156.845 C4.213,156.492 3.979,157.844 3.794,160.545 C3.635,162.885 3.346,164.8 3.152,164.8 C2.958,164.8 2.8,165.79 2.8,167 C2.8,168.21 2.62,169.2 2.4,169.2 C2.174,169.2 2,170.333 2,171.8 C2,173.267 1.826,174.4 1.6,174.4 C1.362,174.4 1.2,175.922 1.2,178.167 C1.2,180.49 1.036,181.988 0.771,182.076 C0.17,182.277 0.17,217.723 0.771,217.924 C1.007,218.002 1.2,218.332 1.2,218.657 C1.2,218.982 1.02,219.136 0.8,219 C0.58,218.864 0.4,218.943 0.4,219.176 C0.4,219.409 0.58,219.6 0.8,219.6 C1.035,219.6 1.2,220.989 1.2,222.967 C1.2,224.818 1.37,226.393 1.578,226.467 C1.785,226.54 1.995,227.725 2.043,229.1 C2.092,230.475 2.282,231.6 2.466,231.6 C2.65,231.6 2.8,232.59 2.8,233.8 C2.8,235.01 2.961,236 3.158,236 C3.354,236 3.643,237.621 3.8,239.603 C3.957,241.584 4.246,243.305 4.443,243.426 C4.639,243.548 4.8,244.267 4.8,245.024 C4.8,245.781 4.98,246.4 5.2,246.4 C5.42,246.4 5.6,247.12 5.6,248 C5.6,248.88 5.78,249.6 6,249.6 C6.22,249.6 6.4,250.23 6.4,251 C6.4,251.77 6.58,252.4 6.8,252.4 C7.02,252.4 7.2,252.94 7.2,253.6 C7.2,254.26 7.38,254.8 7.6,254.8 C7.82,254.8 8,255.43 8,256.2 C8,256.97 8.18,257.6 8.4,257.6 C8.62,257.6 8.8,258.14 8.8,258.8 C8.8,259.46 8.959,260 9.154,260 C9.349,260 9.632,260.99 9.783,262.2 C9.934,263.41 10.225,264.4 10.429,264.4 C10.633,264.4 10.8,264.94 10.8,265.6 C10.8,266.26 10.98,266.8 11.2,266.8 C11.42,266.8 11.6,267.34 11.6,268 C11.6,268.66 11.78,269.2 12,269.2 C12.22,269.2 12.4,269.65 12.4,270.2 C12.4,270.75 12.58,271.2 12.8,271.2 C13.02,271.2 13.2,271.56 13.2,272 C13.2,272.44 13.38,272.8 13.6,272.8 C13.82,272.8 14,273.34 14,274 C14,274.66 14.18,275.2 14.4,275.2 C14.62,275.2 14.8,275.47 14.8,275.8 C14.8,276.13 14.957,276.4 15.148,276.4 C15.34,276.4 15.616,277.3 15.762,278.4 C15.908,279.5 16.201,280.4 16.414,280.4 C16.626,280.4 16.8,280.76 16.8,281.2 C16.8,281.64 16.98,282 17.2,282 C17.42,282 17.6,282.27 17.6,282.6 C17.6,282.93 17.78,283.2 18,283.2 C18.22,283.2 18.4,283.74 18.4,284.4 C18.4,285.06 18.58,285.6 18.8,285.6 C19.02,285.6 19.2,285.96 19.2,286.4 C19.2,286.84 19.38,287.2 19.6,287.2 C19.82,287.2 20,287.47 20,287.8 C20,288.13 20.18,288.4 20.4,288.4 C20.62,288.4 20.8,288.76 20.8,289.2 C20.8,289.64 20.964,290 21.165,290 C21.366,290 21.651,290.72 21.8,291.6 C21.949,292.48 22.234,293.2 22.435,293.2 C22.636,293.2 22.8,293.43 22.8,293.712 C22.8,293.993 23.16,294.483 23.6,294.8 C24.04,295.117 24.4,295.697 24.4,296.088 C24.4,296.48 24.58,296.8 24.8,296.8 C25.02,296.8 25.2,297.16 25.2,297.6 C25.2,298.04 25.38,298.4 25.6,298.4 C25.82,298.4 26,298.748 26,299.173 C26,299.598 26.345,300.056 26.768,300.19 C27.273,300.35 27.622,300.949 27.791,301.945 C27.931,302.776 28.396,303.709 28.823,304.017 C29.25,304.325 29.6,304.897 29.6,305.288 C29.6,305.68 29.78,306 30,306 C30.22,306 30.4,306.23 30.4,306.512 C30.4,306.793 30.76,307.283 31.2,307.6 C31.64,307.917 32,308.457 32,308.8 C32,309.143 32.36,309.683 32.8,310 C33.24,310.317 33.6,310.903 33.6,311.301 C33.6,311.699 33.87,312.129 34.2,312.255 C34.53,312.382 34.8,312.787 34.8,313.154 C34.8,313.522 35.16,314.083 35.6,314.4 C36.04,314.717 36.4,315.231 36.4,315.541 C36.4,316.13 37.872,317.6 38.461,317.6 C38.648,317.6 38.8,317.883 38.8,318.229 C38.8,318.574 39.025,319.108 39.3,319.415 C40.502,320.755 40.8,321.194 40.8,321.623 C40.8,322.147 43.106,324.4 43.642,324.4 C43.839,324.4 44,324.676 44,325.013 C44,325.351 44.63,326.257 45.4,327.027 C46.17,327.797 46.8,328.781 46.8,329.213 C46.8,329.646 46.971,330 47.18,330 C47.704,330 53.203,335.463 52.942,335.724 C52.827,335.84 55.537,338.747 58.966,342.185 C62.395,345.623 65.2,348.239 65.2,347.998 C65.2,347.758 66.451,348.83 67.981,350.38 C69.51,351.931 70.868,353.2 70.998,353.2 C71.288,353.2 72.035,353.811 73.808,355.5 C74.559,356.215 75.449,356.8 75.787,356.8 C76.124,356.8 76.4,356.952 76.4,357.139 C76.4,357.681 77.849,359.2 78.365,359.2 C78.624,359.2 79.286,359.65 79.836,360.2 C80.386,360.75 81.188,361.2 81.618,361.2 C82.048,361.2 82.4,361.352 82.4,361.539 C82.4,362.128 83.87,363.6 84.459,363.6 C84.769,363.6 85.283,363.96 85.6,364.4 C85.917,364.84 86.431,365.2 86.741,365.2 C87.052,365.2 87.597,365.534 87.953,365.943 C88.309,366.351 89.005,366.813 89.5,366.97 C89.995,367.126 90.4,367.422 90.4,367.627 C90.4,367.832 90.72,368 91.112,368 C91.503,368 92.083,368.36 92.4,368.8 C92.717,369.24 93.285,369.6 93.661,369.6 C94.038,369.6 94.46,369.96 94.6,370.4 C94.74,370.84 95.202,371.2 95.627,371.2 C96.052,371.2 96.4,371.38 96.4,371.6 C96.4,371.82 96.683,372 97.029,372 C97.374,372 97.927,372.27 98.257,372.6 C98.587,372.93 99.204,373.2 99.629,373.2 C100.053,373.2 100.4,373.38 100.4,373.6 C100.4,373.82 100.67,374 101,374 C101.33,374 101.6,374.18 101.6,374.4 C101.6,374.62 101.92,374.8 102.312,374.8 C102.703,374.8 103.283,375.16 103.6,375.6 C103.917,376.04 104.497,376.4 104.888,376.4 C105.28,376.4 105.6,376.58 105.6,376.8 C105.6,377.02 105.87,377.2 106.2,377.2 C106.53,377.2 106.8,377.38 106.8,377.6 C106.8,377.82 107.16,378 107.6,378 C108.04,378 108.4,378.164 108.4,378.365 C108.4,378.566 109.12,378.851 110,379 C110.88,379.149 111.6,379.434 111.6,379.635 C111.6,379.836 111.87,380 112.2,380 C112.53,380 112.8,380.18 112.8,380.4 C112.8,380.62 113.16,380.8 113.6,380.8 C114.04,380.8 114.4,380.98 114.4,381.2 C114.4,381.42 114.76,381.6 115.2,381.6 C115.64,381.6 116,381.78 116,382 C116,382.22 116.54,382.4 117.2,382.4 C117.86,382.4 118.4,382.58 118.4,382.8 C118.4,383.02 118.67,383.2 119,383.2 C119.33,383.2 119.6,383.38 119.6,383.6 C119.6,383.82 119.96,384 120.4,384 C120.84,384 121.2,384.2 121.2,384.445 C121.2,384.713 121.68,384.82 122.4,384.715 C123.06,384.618 123.6,384.687 123.6,384.869 C123.6,385.051 123.96,385.2 124.4,385.2 C124.84,385.2 125.2,385.38 125.2,385.6 C125.2,385.82 125.65,386 126.2,386 C126.75,386 127.2,386.18 127.2,386.4 C127.2,386.62 127.56,386.8 128,386.8 C128.44,386.8 128.8,386.98 128.8,387.2 C128.8,387.42 129.34,387.6 130,387.6 C130.66,387.6 131.2,387.78 131.2,388 C131.2,388.22 131.65,388.4 132.2,388.4 C132.75,388.4 133.2,388.58 133.2,388.8 C133.2,389.02 133.56,389.2 134,389.2 C134.44,389.2 134.8,389.38 134.8,389.6 C134.8,389.82 135.325,390 135.967,390 C136.608,390 137.193,390.178 137.267,390.396 C137.34,390.614 138.525,390.91 139.9,391.053 C141.275,391.197 142.4,391.468 142.4,391.657 C142.4,391.846 142.85,392 143.4,392 C143.95,392 144.4,392.18 144.4,392.4 C144.4,392.62 145.12,392.8 146,392.8 C146.88,392.8 147.6,392.98 147.6,393.2 C147.6,393.42 148.05,393.6 148.6,393.6 C149.15,393.6 149.6,393.78 149.6,394 C149.6,394.22 150.32,394.4 151.2,394.4 C152.08,394.4 152.8,394.58 152.8,394.8 C152.8,395.02 153.7,395.2 154.8,395.2 C155.9,395.2 156.8,395.38 156.8,395.6 C156.8,395.82 157.43,396 158.2,396 C158.97,396 159.6,396.166 159.6,396.368 C159.6,396.57 161.4,396.863 163.6,397.019 C165.8,397.175 167.6,397.46 167.6,397.652 C167.6,397.843 168.95,398 170.6,398 C172.333,398 173.6,398.169 173.6,398.4 C173.6,398.628 174.789,398.8 176.367,398.8 C178.224,398.8 179.188,398.964 179.3,399.3 C179.43,399.691 183.889,399.8 199.8,399.8 C215.711,399.8 220.17,399.691 220.3,399.3 C220.417,398.95 221.536,398.8 224.033,398.8 C226.144,398.8 227.6,398.637 227.6,398.4 C227.6,398.18 228.59,398 229.8,398 C231.01,398 232,397.846 232,397.657 C232,397.469 233.845,397.188 236.1,397.034 C238.355,396.88 240.26,396.585 240.333,396.377 C240.407,396.17 241.352,396 242.433,396 C243.515,396 244.4,395.82 244.4,395.6 C244.4,395.38 245.03,395.2 245.8,395.2 C246.57,395.2 247.2,395.02 247.2,394.8 C247.2,394.58 247.92,394.4 248.8,394.4 C249.68,394.4 250.4,394.22 250.4,394 C250.4,393.78 251.03,393.6 251.8,393.6 C252.57,393.6 253.2,393.42 253.2,393.2 C253.2,392.98 253.965,392.797 254.9,392.794 C256.145,392.789 256.439,392.684 256,392.4 C255.554,392.112 255.784,392.011 256.9,392.006 C257.725,392.003 258.4,391.841 258.4,391.646 C258.4,391.451 259.387,391.169 260.594,391.018 C261.8,390.867 262.891,390.577 263.017,390.372 C263.144,390.167 263.687,390 264.224,390 C264.761,390 265.2,389.82 265.2,389.6 C265.2,389.38 265.74,389.2 266.4,389.2 C267.06,389.2 267.6,389.02 267.6,388.8 C267.6,388.58 268.05,388.4 268.6,388.4 C269.15,388.4 269.6,388.22 269.6,388 C269.6,387.78 269.96,387.6 270.4,387.6 C270.84,387.6 271.2,387.42 271.2,387.2 C271.2,386.98 271.74,386.8 272.4,386.8 C273.06,386.8 273.6,386.62 273.6,386.4 C273.6,386.18 274.05,386 274.6,386 C275.15,386 275.6,385.836 275.6,385.635 C275.6,385.434 276.32,385.149 277.2,385 C278.08,384.851 278.8,384.566 278.8,384.365 C278.8,384.164 279.34,384 280,384 C280.66,384 281.2,383.82 281.2,383.6 C281.2,383.38 281.47,383.2 281.8,383.2 C282.13,383.2 282.4,383.02 282.4,382.8 C282.4,382.58 282.76,382.4 283.2,382.4 C283.64,382.4 284,382.22 284,382 C284,381.78 284.36,381.6 284.8,381.6 C285.24,381.6 285.6,381.42 285.6,381.2 C285.6,380.98 285.96,380.8 286.4,380.8 C286.84,380.8 287.2,380.62 287.2,380.4 C287.2,380.18 287.47,380 287.8,380 C288.13,380 288.4,379.831 288.4,379.625 C288.4,379.418 289.208,379.128 290.196,378.98 C291.184,378.832 291.893,378.551 291.772,378.355 C291.652,378.16 291.923,378 292.376,378 C292.829,378 293.2,377.82 293.2,377.6 C293.2,377.38 293.47,377.2 293.8,377.2 C294.13,377.2 294.4,377.02 294.4,376.8 C294.4,376.58 294.76,376.4 295.2,376.4 C295.64,376.4 296,376.22 296,376 C296,375.78 296.36,375.6 296.8,375.6 C297.24,375.6 297.6,375.42 297.6,375.2 C297.6,374.98 297.948,374.8 298.373,374.8 C298.798,374.8 299.256,374.455 299.39,374.032 C299.55,373.527 300.149,373.178 301.145,373.009 C301.976,372.869 302.909,372.404 303.217,371.977 C303.525,371.55 304.097,371.2 304.488,371.2 C304.88,371.2 305.2,371.02 305.2,370.8 C305.2,370.58 305.43,370.4 305.712,370.4 C305.993,370.4 306.483,370.04 306.8,369.6 C307.117,369.16 307.657,368.8 308,368.8 C308.343,368.8 308.883,368.44 309.2,368 C309.517,367.56 310.103,367.2 310.501,367.2 C310.899,367.2 311.329,366.93 311.455,366.6 C311.582,366.27 311.987,366 312.354,366 C312.722,366 313.283,365.64 313.6,365.2 C313.917,364.76 314.457,364.4 314.8,364.4 C315.143,364.4 315.683,364.04 316,363.6 C316.317,363.16 316.885,362.8 317.261,362.8 C317.638,362.8 318.06,362.44 318.2,362.001 C318.339,361.561 318.936,361.081 319.527,360.934 C320.117,360.786 321.077,360.156 321.66,359.533 C322.244,358.91 323.009,358.4 323.36,358.4 C323.712,358.4 324,358.239 324,358.042 C324,357.506 326.253,355.2 326.777,355.2 C327.028,355.2 327.505,354.975 327.836,354.7 C329.355,353.44 330.4,352.331 330.4,351.982 C330.4,351.772 330.679,351.6 331.02,351.6 C331.361,351.6 336.131,347.109 341.62,341.62 C347.109,336.131 351.6,331.361 351.6,331.02 C351.6,330.679 351.772,330.4 351.982,330.4 C352.331,330.4 353.44,329.355 354.7,327.836 C354.975,327.505 355.2,327.028 355.2,326.777 C355.2,326.253 357.506,324 358.042,324 C358.239,324 358.4,323.712 358.4,323.36 C358.4,323.009 358.956,322.202 359.635,321.567 C360.315,320.932 360.793,320.185 360.698,319.906 C360.525,319.4 361.821,318 362.461,318 C362.648,318 362.8,317.712 362.8,317.36 C362.8,317.009 363.34,316.217 364,315.6 C364.66,314.983 365.2,314.257 365.2,313.986 C365.2,313.716 365.534,313.203 365.943,312.847 C366.351,312.491 366.813,311.795 366.97,311.3 C367.126,310.805 367.422,310.4 367.627,310.4 C367.832,310.4 368,310.08 368,309.688 C368,309.297 368.36,308.717 368.8,308.4 C369.24,308.083 369.6,307.503 369.6,307.112 C369.6,306.72 369.78,306.4 370,306.4 C370.22,306.4 370.4,306.17 370.4,305.888 C370.4,305.607 370.76,305.117 371.2,304.8 C371.64,304.483 372,303.903 372,303.512 C372,303.12 372.201,302.8 372.447,302.8 C372.692,302.8 372.805,302.463 372.698,302.052 C372.581,301.605 372.804,301.085 373.251,300.763 C373.663,300.466 374,299.993 374,299.712 C374,299.43 374.18,299.2 374.4,299.2 C374.62,299.2 374.8,298.84 374.8,298.4 C374.8,297.96 374.98,297.6 375.2,297.6 C375.42,297.6 375.6,297.24 375.6,296.8 C375.6,296.36 375.78,296 376,296 C376.22,296 376.4,295.652 376.4,295.227 C376.4,294.802 376.76,294.34 377.2,294.2 C377.64,294.06 378,293.598 378,293.173 C378,292.748 378.164,292.4 378.365,292.4 C378.566,292.4 378.851,291.68 379,290.8 C379.149,289.92 379.434,289.2 379.635,289.2 C379.836,289.2 380,288.93 380,288.6 C380,288.27 380.18,288 380.4,288 C380.62,288 380.8,287.64 380.8,287.2 C380.8,286.76 380.98,286.4 381.2,286.4 C381.42,286.4 381.6,286.04 381.6,285.6 C381.6,285.16 381.78,284.8 382,284.8 C382.22,284.8 382.4,284.26 382.4,283.6 C382.4,282.94 382.58,282.4 382.8,282.4 C383.02,282.4 383.2,282.13 383.2,281.8 C383.2,281.47 383.38,281.2 383.6,281.2 C383.82,281.2 384,280.84 384,280.4 C384,279.96 384.174,279.6 384.386,279.6 C384.599,279.6 384.892,278.7 385.038,277.6 C385.184,276.5 385.46,275.6 385.652,275.6 C385.843,275.6 386,275.33 386,275 C386,274.67 386.18,274.4 386.4,274.4 C386.62,274.4 386.8,273.86 386.8,273.2 C386.8,272.54 386.98,272 387.2,272 C387.42,272 387.6,271.46 387.6,270.8 C387.6,270.14 387.78,269.6 388,269.6 C388.22,269.6 388.4,269.33 388.4,269 C388.4,268.67 388.58,268.4 388.8,268.4 C389.02,268.4 389.2,267.86 389.2,267.2 C389.2,266.54 389.38,266 389.6,266 C389.82,266 390,265.46 390,264.8 C390,264.14 390.167,263.6 390.371,263.6 C390.575,263.6 390.866,262.61 391.017,261.4 C391.168,260.19 391.451,259.2 391.646,259.2 C391.841,259.2 392,258.57 392,257.8 C392,257.03 392.18,256.4 392.4,256.4 C392.62,256.4 392.8,255.86 392.8,255.2 C392.8,254.54 392.98,254 393.2,254 C393.42,254 393.6,253.28 393.6,252.4 C393.6,251.52 393.78,250.8 394,250.8 C394.22,250.8 394.4,250.17 394.4,249.4 C394.4,248.63 394.58,248 394.8,248 C395.02,248 395.2,247.28 395.2,246.4 C395.2,245.52 395.38,244.8 395.6,244.8 C395.82,244.8 396,243.979 396,242.976 C396,241.973 396.161,241.252 396.357,241.373 C396.553,241.495 396.843,239.795 397,237.597 C397.158,235.399 397.447,233.6 397.643,233.6 C397.839,233.6 398,232.43 398,231 C398,229.533 398.174,228.4 398.4,228.4 C398.631,228.4 398.8,227.144 398.8,225.433 C398.8,223.416 398.96,222.413 399.3,222.3 C399.692,222.169 399.8,217.271 399.8,199.6 C399.8,181.929 399.692,177.031 399.3,176.9 C398.96,176.787 398.8,175.784 398.8,173.767 C398.8,172.056 398.631,170.8 398.4,170.8 C398.18,170.8 398,169.81 398,168.6 C398,167.39 397.842,166.4 397.648,166.4 C397.454,166.4 397.167,164.51 397.009,162.2 C396.852,159.89 396.56,158 396.362,158 C396.163,158 396,157.19 396,156.2 C396,155.21 395.82,154.4 395.6,154.4 C395.38,154.4 395.2,153.68 395.2,152.8 C395.2,151.92 395.02,151.2 394.8,151.2 C394.58,151.2 394.4,150.57 394.4,149.8 C394.4,149.03 394.22,148.4 394,148.4 C393.78,148.4 393.6,147.86 393.6,147.2 C393.6,146.54 393.42,146 393.2,146 C392.98,146 392.8,145.37 392.8,144.6 C392.8,143.83 392.62,143.2 392.4,143.2 C392.18,143.2 392,142.66 392,142 C392,141.34 391.82,140.8 391.6,140.8 C391.38,140.8 391.2,140.386 391.2,139.88 C391.2,139.374 390.984,138.744 390.72,138.48 C390.392,138.152 390.38,138 390.683,138 C390.928,138 391.032,137.644 390.916,137.2 C390.801,136.76 390.548,136.4 390.353,136.4 C390.159,136.4 390,135.86 390,135.2 C390,134.54 389.82,134 389.6,134 C389.38,134 389.2,133.55 389.2,133 C389.2,132.45 389.02,132 388.8,132 C388.58,132 388.4,131.46 388.4,130.8 C388.4,130.14 388.22,129.6 388,129.6 C387.78,129.6 387.6,129.24 387.6,128.8 C387.6,128.36 387.42,128 387.2,128 C386.98,128 386.8,127.46 386.8,126.8 C386.8,126.14 386.62,125.6 386.4,125.6 C386.18,125.6 386,125.33 386,125 C386,124.67 385.843,124.4 385.652,124.4 C385.46,124.4 385.184,123.5 385.038,122.4 C384.892,121.3 384.599,120.4 384.386,120.4 C384.174,120.4 384,119.95 384,119.4 C384,118.85 383.82,118.4 383.6,118.4 C383.38,118.4 383.2,118.04 383.2,117.6 C383.2,117.16 383.02,116.8 382.8,116.8 C382.58,116.8 382.4,116.44 382.4,116 C382.4,115.56 382.22,115.2 382,115.2 C381.78,115.2 381.6,114.84 381.6,114.4 C381.6,113.96 381.42,113.6 381.2,113.6 C380.98,113.6 380.8,113.33 380.8,113 C380.8,112.67 380.62,112.4 380.4,112.4 C380.18,112.4 380,112.04 380,111.6 C380,111.16 379.836,110.8 379.635,110.8 C379.434,110.8 379.149,110.08 379,109.2 C378.851,108.32 378.566,107.6 378.365,107.6 C378.164,107.6 378,107.33 378,107 C378,106.67 377.82,106.4 377.6,106.4 C377.38,106.4 377.2,106.04 377.2,105.6 C377.2,105.16 377.02,104.8 376.8,104.8 C376.58,104.8 376.4,104.44 376.4,104 C376.4,103.56 376.22,103.2 376,103.2 C375.78,103.2 375.6,102.852 375.6,102.427 C375.6,102.002 375.24,101.54 374.8,101.4 C374.36,101.26 374,100.798 374,100.373 C374,99.948 373.82,99.6 373.6,99.6 C373.38,99.6 373.2,99.253 373.2,98.829 C373.2,98.404 372.93,97.787 372.6,97.457 C372.27,97.127 372,96.574 372,96.229 C372,95.883 371.82,95.6 371.6,95.6 C371.38,95.6 371.2,95.37 371.2,95.088 C371.2,94.807 370.84,94.317 370.4,94 C369.96,93.683 369.6,93.143 369.6,92.8 C369.6,92.457 369.24,91.917 368.8,91.6 C368.36,91.283 368,90.722 368,90.354 C368,89.987 367.73,89.582 367.4,89.455 C367.07,89.329 366.8,88.899 366.8,88.501 C366.8,88.103 366.44,87.517 366,87.2 C365.56,86.883 365.2,86.343 365.2,86 C365.2,85.657 364.84,85.117 364.4,84.8 C363.96,84.483 363.6,83.903 363.6,83.512 C363.6,83.12 363.448,82.8 363.261,82.8 C362.639,82.8 361.2,81.314 361.2,80.671 C361.2,80.322 360.75,79.586 360.2,79.036 C359.65,78.486 359.2,77.758 359.2,77.418 C359.2,77.078 359.048,76.8 358.861,76.8 C358.317,76.8 356.8,75.35 356.8,74.83 C356.8,74.568 355.99,73.555 355,72.579 C354.01,71.603 353.2,70.612 353.2,70.378 C353.2,70.143 351.67,68.458 349.8,66.634 C347.93,64.81 346.4,63.111 346.4,62.86 C346.4,62.25 337.735,53.6 337.125,53.6 C336.862,53.6 335.349,52.25 333.762,50.6 C332.175,48.95 330.678,47.6 330.436,47.6 C330.194,47.6 329.197,46.79 328.221,45.8 C327.245,44.81 326.206,44 325.911,44 C325.617,44 325.112,43.623 324.788,43.163 C323.575,41.435 322.887,40.8 322.229,40.8 C321.857,40.8 321.652,40.639 321.774,40.443 C321.895,40.246 321.546,39.973 320.997,39.835 C320.449,39.697 320,39.408 320,39.192 C320,38.977 319.64,38.8 319.2,38.8 C318.76,38.8 318.4,38.648 318.4,38.461 C318.4,37.872 316.93,36.4 316.341,36.4 C316.031,36.4 315.517,36.04 315.2,35.6 C314.883,35.16 314.303,34.8 313.912,34.8 C313.52,34.8 313.2,34.632 313.2,34.427 C313.2,34.222 312.795,33.926 312.3,33.77 C311.805,33.613 311.109,33.151 310.753,32.743 C310.397,32.334 309.852,32 309.541,32 C309.231,32 308.717,31.64 308.4,31.2 C308.083,30.76 307.515,30.4 307.139,30.4 C306.762,30.4 306.34,30.04 306.2,29.6 C306.06,29.16 305.598,28.8 305.173,28.8 C304.748,28.8 304.4,28.62 304.4,28.4 C304.4,28.18 304.053,28 303.629,28 C303.204,28 302.587,27.73 302.257,27.4 C301.927,27.07 301.374,26.8 301.029,26.8 C300.683,26.8 300.4,26.62 300.4,26.4 C300.4,26.18 300.13,26 299.8,26 C299.47,26 299.2,25.82 299.2,25.6 C299.2,25.38 298.88,25.2 298.488,25.2 C298.097,25.2 297.517,24.84 297.2,24.4 C296.883,23.96 296.303,23.6 295.912,23.6 C295.52,23.6 295.2,23.462 295.2,23.294 C295.2,22.923 292.231,21.6 291.397,21.6 C291.069,21.6 290.8,21.42 290.8,21.2 C290.8,20.98 290.44,20.8 290,20.8 C289.56,20.8 289.2,20.62 289.2,20.4 C289.2,20.18 288.93,20 288.6,20 C288.27,20 288,19.82 288,19.6 C288,19.38 287.64,19.2 287.2,19.2 C286.76,19.2 286.4,19.02 286.4,18.8 C286.4,18.58 286.04,18.4 285.6,18.4 C285.16,18.4 284.8,18.22 284.8,18 C284.8,17.78 284.44,17.6 284,17.6 C283.56,17.6 283.2,17.42 283.2,17.2 C283.2,16.98 282.75,16.8 282.2,16.8 C281.65,16.8 281.2,16.636 281.2,16.435 C281.2,16.234 280.48,15.949 279.6,15.8 C278.72,15.651 278,15.366 278,15.165 C278,14.964 277.46,14.8 276.8,14.8 C276.14,14.8 275.6,14.62 275.6,14.4 C275.6,14.18 275.33,14 275,14 C274.67,14 274.4,13.82 274.4,13.6 C274.4,13.38 273.86,13.2 273.2,13.2 C272.54,13.2 272,13.02 272,12.8 C272,12.58 271.46,12.4 270.8,12.4 C270.14,12.4 269.6,12.22 269.6,12 C269.6,11.78 269.33,11.6 269,11.6 C268.67,11.6 268.4,11.42 268.4,11.2 C268.4,10.98 267.86,10.8 267.2,10.8 C266.54,10.8 266,10.641 266,10.446 C266,10.251 265.01,9.968 263.8,9.817 C262.59,9.666 261.6,9.375 261.6,9.171 C261.6,8.967 261.06,8.8 260.4,8.8 C259.74,8.8 259.2,8.62 259.2,8.4 C259.2,8.18 258.75,8 258.2,8 C257.65,8 257.197,7.775 257.194,7.5 C257.19,7.167 257.058,7.2 256.8,7.6 C256.542,8 256.41,8.033 256.406,7.7 C256.403,7.412 255.89,7.2 255.2,7.2 C254.54,7.2 254,7.02 254,6.8 C254,6.58 253.28,6.4 252.4,6.4 C251.52,6.4 250.8,6.22 250.8,6 C250.8,5.78 250.17,5.6 249.4,5.6 C248.63,5.6 248,5.42 248,5.2 C248,4.98 247.406,4.8 246.68,4.8 C245.954,4.8 245.16,4.6 244.915,4.355 C244.67,4.11 243.734,3.98 242.835,4.065 C241.936,4.151 241.2,4.081 241.2,3.911 C241.2,3.74 240.39,3.6 239.4,3.6 C238.41,3.6 237.6,3.42 237.6,3.2 C237.6,2.98 236.7,2.8 235.6,2.8 C234.5,2.8 233.6,2.62 233.6,2.4 C233.6,2.171 232.392,2 230.776,2 C228.996,2 228.044,1.852 228.2,1.6 C228.357,1.346 227.263,1.2 225.2,1.2 C223.414,1.2 222.047,1.048 222.162,0.861 C222.613,0.132 197.85,-0.212 181.7,0.298 M213.4,21.212 C224.693,22.015 236.579,23.931 245.2,26.338 C245.97,26.553 247.95,27.096 249.6,27.546 C252.852,28.432 259.709,30.614 261,31.173 C261.44,31.363 262.43,31.739 263.2,32.007 C264.759,32.549 264.986,32.643 271.904,35.581 C323.026,57.293 364.015,106.757 375.171,160.2 C380.096,183.79 380.847,200.826 377.957,223.4 C376.827,232.22 375.531,238.922 373.661,245.6 C373.446,246.37 372.979,248.08 372.623,249.4 C371.762,252.6 370.903,255.351 369.969,257.9 C369.546,259.055 368.822,261.035 368.361,262.3 C367.404,264.923 367.121,265.643 366.279,267.6 C365.947,268.37 365.189,270.17 364.594,271.6 C359.559,283.699 345.728,306.309 339.114,313.255 C338.829,313.555 338.078,314.43 337.447,315.2 C331.41,322.565 321.038,332.777 313.243,339.032 C312.717,339.454 311.727,340.261 311.043,340.825 C310.359,341.39 309.17,342.281 308.4,342.806 C307.63,343.332 306.91,343.878 306.8,344.021 C304.644,346.815 282.444,359.696 272.4,363.981 C270.75,364.685 268.86,365.502 268.2,365.798 C267.54,366.093 266.19,366.636 265.2,367.004 C264.21,367.373 263.04,367.827 262.6,368.014 C260.379,368.958 250.587,372.024 245.8,373.275 C244.92,373.505 243.75,373.833 243.2,374.004 C242.65,374.175 241.12,374.527 239.8,374.787 C238.48,375.047 236.77,375.411 236,375.597 C233.455,376.209 226.717,377.24 217.4,378.443 C212.02,379.137 188.804,379.147 183.4,378.457 C181.2,378.176 177.33,377.682 174.8,377.359 C160.786,375.569 142.586,370.538 130.2,365.03 C129.54,364.737 127.83,363.992 126.4,363.376 C115.941,358.867 99.425,348.942 90.4,341.742 C64.566,321.134 44.941,295.147 33.803,266.8 C32.982,264.71 32.157,262.64 31.97,262.2 C30.607,258.991 26.903,246.528 25.61,240.8 C24.009,233.709 23.834,232.805 22.819,226.4 C20.068,209.036 20.808,180.277 24.412,164.5 C24.625,163.565 24.991,161.945 25.225,160.9 C26.697,154.323 29.821,143.476 31.186,140.2 C31.369,139.76 31.736,138.77 32,138 C32.264,137.23 32.667,136.15 32.894,135.6 C33.121,135.05 33.445,134.24 33.613,133.8 C33.781,133.36 34.188,132.37 34.518,131.6 C34.847,130.83 35.532,129.21 36.04,128 C46.863,102.204 69.63,73.412 92.182,57 C92.786,56.56 94.052,55.622 94.995,54.916 C97.104,53.337 107.61,46.431 109.8,45.184 C115.962,41.676 124.61,37.323 129.336,35.352 C130.691,34.786 132.43,34.053 133.2,33.721 C135.156,32.879 135.99,32.553 137.6,32 C138.37,31.736 139.36,31.369 139.8,31.185 C140.702,30.808 148.951,28.223 151.4,27.549 C152.28,27.307 153.36,26.963 153.8,26.785 C154.24,26.606 155.14,26.349 155.8,26.212 C156.46,26.076 157.72,25.783 158.6,25.562 C163.336,24.371 171.307,22.974 179.2,21.951 C186.977,20.943 204.343,20.568 213.4,21.212 M191.4,29.214 C188.1,29.375 184.32,29.623 183,29.765 C174.979,30.626 163.336,32.747 156.6,34.574 C150.822,36.141 141.292,39.247 139.905,40.015 C139.523,40.227 139.03,40.4 138.808,40.4 C137.101,40.4 117.603,49.844 113.938,52.446 C113.354,52.861 112.768,53.2 112.636,53.2 C111.933,53.2 97.296,63.194 95.363,64.993 C95.123,65.217 94.318,65.85 93.575,66.4 C92.831,66.95 91.413,68.12 90.422,69 C89.432,69.88 87.896,71.225 87.011,71.988 C81.978,76.326 71.243,87.603 66.818,93.2 C65.688,94.63 64.541,96.071 64.27,96.402 C63.828,96.94 61.995,99.565 56.523,107.498 C55.575,108.872 54.8,110.1 54.8,110.226 C54.8,110.352 54.26,111.241 53.6,112.2 C52.94,113.159 52.4,114.05 52.4,114.18 C52.4,114.31 51.97,115.097 51.444,115.93 C46.505,123.754 40.307,138.597 35.632,153.8 C34.924,156.101 32.836,165.019 32.4,167.6 C32.159,169.03 31.778,171.28 31.555,172.6 C28.532,190.433 28.696,211.586 31.998,229.6 C33.013,235.135 35.248,244.828 36.242,248 C36.552,248.99 36.97,250.34 37.17,251 C37.897,253.4 40.928,261.842 41.634,263.432 C42.032,264.33 42.709,265.95 43.137,267.032 C46.185,274.737 56.814,293.858 60.425,298.133 C60.642,298.39 62.009,300.22 63.464,302.2 C76.06,319.347 96.637,337.766 114.2,347.616 C115.08,348.109 116.522,348.919 117.405,349.416 C120.422,351.114 128.197,355.029 130.4,355.959 C131.61,356.47 133.5,357.287 134.6,357.775 C135.7,358.262 137.68,359.07 139,359.57 C140.32,360.069 141.76,360.633 142.2,360.823 C142.64,361.013 145.07,361.815 147.6,362.606 C150.13,363.397 152.613,364.214 153.119,364.422 C153.624,364.63 154.469,364.8 154.995,364.8 C155.522,364.8 156.052,364.96 156.173,365.156 C156.294,365.351 156.979,365.608 157.696,365.727 C158.413,365.845 159.72,366.114 160.6,366.324 C161.48,366.534 164.45,367.168 167.2,367.733 C171.745,368.667 174.738,369.092 185.845,370.378 C190.431,370.909 210.164,370.93 214.755,370.409 C216.65,370.194 219.91,369.824 222,369.587 C227.025,369.017 231.339,368.307 236.6,367.184 C237.48,366.997 238.74,366.73 239.4,366.591 C240.06,366.453 240.96,366.187 241.4,366 C241.84,365.813 242.65,365.575 243.2,365.471 C246.14,364.915 257.187,361.538 258.495,360.795 C258.877,360.578 259.374,360.4 259.599,360.4 C259.824,360.4 260.772,360.06 261.704,359.644 C262.637,359.229 264.157,358.603 265.083,358.254 C269.701,356.514 279.436,351.7 286.6,347.614 C295.068,342.785 307.078,333.882 315.149,326.451 C317.21,324.553 319.115,322.873 319.382,322.717 C319.649,322.562 322.126,319.952 324.886,316.917 C329.116,312.267 331.267,309.754 334.919,305.2 C337.945,301.426 345.63,290.115 347.966,285.998 C348.277,285.449 349.044,284.1 349.669,283 C355.072,273.494 361.431,258.202 364.39,247.6 C364.667,246.61 365.04,245.35 365.221,244.8 C368.927,233.496 371.54,211.316 371.039,195.4 C370.695,184.442 369.913,177.651 367.587,165.4 C367.152,163.111 365.551,156.464 364.768,153.7 C364.566,152.985 364.243,151.815 364.052,151.1 C361.233,140.577 354.84,126.136 346.872,112.292 C344.305,107.83 335.499,95.181 333.414,92.959 C333.186,92.717 332.28,91.646 331.4,90.581 C314.05,69.566 291.844,53.304 264.5,41.586 C260.631,39.928 252.472,37.113 247.2,35.618 C246.21,35.337 244.95,34.959 244.4,34.779 C242.013,33.995 234.085,32.313 227.6,31.214 C216.417,29.319 203.674,28.615 191.4,29.214 M171.8,65.793 C174.902,66.315 179.937,67.809 182.8,69.058 C185.015,70.024 190.502,72.833 191.6,73.564 C192.15,73.93 193.076,74.467 193.657,74.759 C194.849,75.357 201.727,80.446 204.153,82.526 C210.793,88.216 215.528,93.054 223.546,102.339 C225.771,104.915 225.928,104.971 228.2,104.012 C231.773,102.504 241.581,99.334 245.7,98.356 C249.923,97.353 250.769,97.166 252.8,96.783 C280.489,91.563 301.222,97.129 310.976,112.4 C313.708,116.678 314.655,118.938 316.257,125 C317.29,128.907 317.287,142.202 316.253,147.2 C315.124,152.658 314.887,153.708 314.402,155.4 C313.439,158.765 313.323,158.469 316.453,160.608 C328.356,168.741 337.005,179.146 339.922,188.843 C341.363,193.633 341.6,195.21 341.6,200 C341.6,220.298 323.293,239.647 292.6,251.788 C289.96,252.832 287.44,253.833 287,254.011 C286.56,254.19 285.03,254.764 283.6,255.287 L281,256.238 L280.738,265.219 C279.935,292.783 273.856,311.954 262.182,323.744 C258.319,327.645 251.178,332.4 249.183,332.4 C248.966,332.4 248.477,332.558 248.095,332.751 C244.099,334.77 231.333,335.286 226.4,333.629 C225.85,333.444 224.59,333.071 223.6,332.801 C222.61,332.53 221.35,332.125 220.8,331.901 C220.25,331.677 219.44,331.362 219,331.201 C216.861,330.422 207.758,325.782 207.2,325.187 C207.09,325.07 206.061,324.38 204.913,323.654 C203.765,322.928 202.218,321.853 201.475,321.267 C200.732,320.68 199.521,319.75 198.784,319.2 C194.672,316.131 186.264,308.09 181.4,302.575 C177.904,298.611 178.099,298.836 176.28,296.656 C174.87,294.966 174.683,294.866 173.68,295.267 C170.574,296.51 167.007,297.825 164.855,298.519 C163.264,299.032 163.044,299.268 162.366,301.195 C159.193,310.203 149.048,312.382 142.305,305.503 C141.221,304.397 140.559,304.01 140.081,304.2 C136.149,305.767 114.677,304.712 111.105,302.776 C110.723,302.569 110.136,302.4 109.8,302.4 C109.464,302.4 108.877,302.235 108.495,302.034 C108.113,301.832 107.08,301.364 106.2,300.994 C89.901,294.137 82.045,279.617 83.588,259.203 C83.995,253.82 84.595,250.4 86.387,243.255 C86.889,241.251 86.701,240.887 84.455,239.531 C83.655,239.048 82.537,238.28 81.971,237.826 C81.406,237.372 80.331,236.55 79.583,236 C76.187,233.503 70.752,228.139 67.582,224.158 C64.09,219.773 61.359,214.076 59.549,207.4 C58.829,204.747 58.824,194.88 59.541,192.2 C60.24,189.589 60.729,188.173 61.647,186.104 C62.061,185.172 62.4,184.322 62.4,184.217 C62.4,183.871 66.303,177.422 67.061,176.516 C67.467,176.03 68.79,174.437 70,172.976 C75.354,166.513 85.785,158.825 97.2,152.93 C99.29,151.85 101.99,150.551 103.2,150.042 C105.552,149.053 107.217,148.341 109.3,147.434 C110.944,146.718 114.834,145.318 117.283,144.561 C119.73,143.805 119.523,144.664 119.787,134.174 C120.082,122.451 120.744,116.833 123.096,106.1 C123.236,105.46 122.889,104.753 121.897,103.655 C116.064,97.198 120.069,85.845 128.606,84.637 C131.724,84.195 131.846,84.117 133.868,81.28 C142.964,68.514 156.098,63.152 171.8,65.793 M156.509,74.412 C150.679,76.099 144.144,80.973 140.666,86.229 L139.594,87.848 L140.846,90.159 C144.681,97.239 140.759,105.991 133.116,107.408 C131.111,107.78 130.777,108.921 129.143,121 C128.613,124.914 128.239,140.8 128.676,140.8 C128.872,140.8 130.015,140.547 131.216,140.239 C133.963,139.533 145.869,136.916 148.8,136.374 C150.01,136.15 151.768,135.795 152.706,135.584 C153.644,135.373 154.935,135.2 155.575,135.2 C156.215,135.2 157.608,135.029 158.669,134.819 C161.583,134.245 165.682,133.685 170.879,133.154 L175.559,132.675 L179.079,130.227 C182.398,127.92 192.443,121.504 194.196,120.573 C194.638,120.338 196.8,119.104 199,117.831 C201.2,116.557 206.184,113.96 210.076,112.058 C213.968,110.156 217.163,108.442 217.176,108.249 C217.296,106.475 198.803,88.174 194.06,85.372 C193.367,84.962 192.8,84.486 192.8,84.314 C192.8,84.141 192.53,84 192.2,84 C191.87,84 191.6,83.854 191.6,83.676 C191.6,82.866 180.737,77.068 176.6,75.67 C169.875,73.398 161.767,72.89 156.509,74.412 M264.8,103.604 C261.648,103.924 259.825,104.203 254.6,105.169 C248.992,106.205 234.164,110.573 231.843,111.872 C231.319,112.165 232.064,113.506 236.252,119.812 C239.023,123.986 241.39,127.67 241.511,128 C241.631,128.33 242.041,129.05 242.421,129.6 C242.801,130.15 243.658,131.589 244.326,132.798 C245.708,135.301 245.168,135.092 255.2,137.008 C258.17,137.575 262.858,138.596 265.618,139.276 L270.635,140.513 L272.777,138.892 C280.003,133.423 289.652,136.835 291.669,145.572 C292.134,147.583 292.278,147.766 293.982,148.486 C296.851,149.698 299.156,150.771 302.552,152.475 C306.213,154.312 306.135,154.351 307.185,150.19 C313.071,126.862 304.559,109.119 285.4,104.776 C284.3,104.526 282.762,104.164 281.983,103.97 C279.879,103.447 268.704,103.209 264.8,103.604 M213.998,119.718 C206.798,123.334 204.193,124.724 199.977,127.199 C195.027,130.105 193.6,131.005 193.6,131.221 C193.6,131.359 198.415,131.592 204.3,131.74 C213.747,131.977 226.098,132.734 232.3,133.457 C233.692,133.619 234.4,133.556 234.4,133.268 C234.4,131.854 223.559,115.6 222.616,115.6 C222.385,115.6 218.507,117.453 213.998,119.718 M187.6,140.4 C183.31,140.561 179.607,140.718 179.37,140.747 C178.999,140.793 177.351,141.967 171.829,146.12 C169.65,147.759 159.408,156.147 158.2,157.283 C157.54,157.903 156.156,159.084 155.125,159.906 C154.094,160.727 148.718,165.942 143.179,171.493 L133.108,181.586 L133.372,183.093 C134.083,187.15 136.95,198.411 138.798,204.4 C141.258,212.377 144.033,220.621 145.227,223.5 C145.917,225.165 146.321,226.184 147.768,229.914 C149.105,233.359 149.705,234.782 151.6,239 C159.02,255.51 160.421,257.59 164.123,257.598 C164.741,257.599 166.451,257.773 167.923,257.984 C181.299,259.901 220.802,260.538 221.991,258.856 C222.106,258.694 222.83,258.129 223.6,257.6 C224.37,257.071 225.09,256.539 225.2,256.417 C225.31,256.295 226.48,255.401 227.8,254.429 C229.12,253.458 230.759,252.199 231.443,251.631 C232.127,251.064 233.029,250.33 233.449,250 C242.37,242.987 256.403,230.025 264.122,221.667 C267.365,218.155 267.561,217.658 266.817,214.846 C266.607,214.051 266.047,211.78 265.573,209.8 C264.41,204.945 262.981,199.593 261.941,196.2 C260.509,191.53 256.802,180.253 256.418,179.4 C256.22,178.96 255.13,176.17 253.996,173.2 C252.862,170.23 251.7,167.26 251.413,166.6 C251.127,165.94 250.539,164.59 250.106,163.6 C249.673,162.61 248.977,160.996 248.559,160.012 C245.651,153.163 240.14,142.999 239.2,142.751 C238.048,142.447 228.338,141.382 221.6,140.82 C215.093,140.278 196.816,140.052 187.6,140.4 M157.6,143.231 C154.48,143.694 151.578,144.228 144.8,145.587 C140.997,146.349 135.701,147.617 132.8,148.459 C132.03,148.683 130.9,148.962 130.289,149.08 C128.331,149.457 128.322,149.612 129.624,160.6 C130.445,167.529 130.963,170.8 131.239,170.8 C131.392,170.8 134.011,168.319 137.059,165.287 C144.325,158.059 151.906,151.154 158.605,145.66 C159.048,145.297 160.007,144.505 160.736,143.9 L162.061,142.8 L160.931,142.852 C160.309,142.881 158.81,143.052 157.6,143.231 M251.2,145.101 C251.2,145.316 252.35,147.901 253.755,150.846 C256.858,157.35 261.2,167.43 261.2,168.13 C261.2,168.411 261.36,168.811 261.555,169.02 C261.75,169.229 262.754,171.74 263.786,174.6 C264.818,177.46 265.995,180.7 266.402,181.8 C266.81,182.9 267.334,184.43 267.568,185.2 C267.802,185.97 268.282,187.5 268.634,188.6 C269.361,190.876 271.989,200.083 273.194,204.577 C273.637,206.232 274,207.949 274,208.393 C274,210.416 274.657,209.778 280.388,202.2 C288.973,190.847 300.793,170.75 302.213,165.089 C302.365,164.486 302.649,163.894 302.844,163.773 C303.988,163.066 302.805,162.165 297.3,159.551 C294.055,158.009 291.087,156.58 290.705,156.374 C289.618,155.788 288.586,155.931 287.823,156.774 C282.513,162.642 268.8,157.799 268.8,150.056 C268.8,149.601 268.452,149.042 268.027,148.814 C266.873,148.197 260.244,146.561 252.3,144.934 C251.695,144.811 251.2,144.885 251.2,145.101 M116.8,153.47 C111.519,155.49 110.522,155.934 102.628,159.788 C71.109,175.174 59.816,196.593 72.798,216.364 C76.337,221.754 84.094,229.275 89.457,232.518 C89.903,232.787 90.456,231.812 92.241,227.614 C93.075,225.653 97.814,216.225 99.085,214 C104.337,204.804 109.958,196.67 117.989,186.641 C123.655,179.565 123.993,179.111 123.809,178.814 C123.646,178.55 123.175,175.979 122.377,171 C121.628,166.324 121.195,162.948 120.793,158.643 C120.357,153.972 120.065,152.378 119.657,152.437 C119.515,152.458 118.23,152.922 116.8,153.47 M207.8,159.788 C213.59,161.004 222.225,164.589 223.6,166.349 C223.71,166.489 224.447,167.086 225.237,167.674 C231.627,172.433 237.975,182.127 239.593,189.6 C239.855,190.81 240.234,192.451 240.435,193.246 C242.001,199.449 240.034,211.753 236.363,218.708 C218.425,252.691 169.612,246.07 160.374,208.4 C159.66,205.491 159.637,193.99 160.34,191.569 C163.39,181.056 166.082,176.265 172.25,170.373 C181.678,161.365 195.586,157.225 207.8,159.788 M310.5,167.494 C310.225,167.589 310,167.834 310,168.038 C310,169.181 302.929,183.395 299.771,188.6 C298.303,191.02 296.778,193.565 296.382,194.256 C295.654,195.529 292.621,199.925 288.992,204.968 C287.896,206.491 284.68,210.609 281.845,214.119 L276.691,220.501 L277.179,223.351 C277.448,224.918 277.822,227.01 278.01,228 C278.197,228.99 278.544,231.24 278.78,233 C279.016,234.76 279.387,237.494 279.605,239.077 C279.822,240.659 280,243.033 280,244.353 C280,245.675 280.199,246.876 280.443,247.026 C280.901,247.31 283.911,246.512 284.58,245.93 C284.789,245.749 285.196,245.6 285.484,245.6 C285.773,245.6 286.772,245.257 287.704,244.838 C288.637,244.42 290.21,243.748 291.2,243.345 C296.887,241.034 312.374,232.395 313.6,230.85 C313.71,230.711 314.79,229.846 316,228.927 C332.107,216.691 337.56,198.464 328.988,185.51 C328.445,184.689 328,183.833 328,183.609 C328,183.384 327.865,183.2 327.7,183.199 C327.535,183.199 326.904,182.414 326.299,181.455 C323.824,177.539 311.908,167.008 310.5,167.494 M123.796,192.916 C118.274,199.785 107.2,215.897 107.2,217.062 C107.2,217.18 106.861,217.754 106.447,218.338 C105.428,219.776 100.927,228.6 99.047,232.847 C97.361,236.654 97.328,237.383 98.8,238.23 C99.726,238.762 108.383,242.83 110.2,243.587 C110.64,243.77 111.81,244.272 112.8,244.702 C114.693,245.525 126.523,249.529 129.6,250.39 C130.59,250.666 131.85,251.038 132.4,251.217 C133.906,251.704 141.075,253.439 143.8,253.976 C145.12,254.235 146.753,254.617 147.428,254.824 C149.832,255.56 149.804,255.289 146.841,249.115 C143.971,243.135 142.564,240.034 141.526,237.4 C141.092,236.3 140.496,234.86 140.2,234.2 C138.087,229.486 133.256,215.746 130.636,207 C129.845,204.36 129.033,201.66 128.833,201 C128.632,200.34 127.985,197.82 127.396,195.4 C126.051,189.872 126.175,189.957 123.796,192.916 M266.764,231.204 C264.973,233.263 260.8,237.282 251,246.388 C249.9,247.41 246.705,250.183 243.9,252.551 C241.095,254.919 238.8,256.93 238.8,257.02 C238.8,257.228 241.952,256.889 244.7,256.385 C248.576,255.675 251.388,255.137 253,254.8 C253.88,254.616 255.68,254.248 257,253.982 C258.32,253.717 260.84,253.144 262.6,252.708 C264.36,252.273 266.387,251.826 267.104,251.714 C267.821,251.603 268.506,251.351 268.627,251.156 C268.748,250.96 269.366,250.8 270,250.8 C272.061,250.8 272.167,249.033 270.766,238 C269.433,227.504 269.655,227.88 266.764,231.204 M94.268,246.3 C93.136,248.191 91.6,258.365 91.6,263.965 C91.6,279.333 98.653,289.817 112,294.289 C122.136,297.685 140.391,297.278 140.402,293.656 C140.406,292.411 143.368,289.097 145.6,287.84 C149.802,285.472 155.866,286.27 159.438,289.661 L160.676,290.837 L164.438,289.619 C166.507,288.95 168.448,288.242 168.751,288.046 C169.18,287.769 168.274,286.142 164.651,280.685 C162.093,276.832 160,273.555 160,273.402 C160,273.249 159.661,272.646 159.247,272.062 C158.355,270.803 156.648,267.92 155.716,266.098 C155.079,264.852 153.403,264.009 151.552,264.002 C150.974,264 141.176,262.09 137,261.166 C131.474,259.942 118.218,256.033 115.4,254.796 C114.96,254.603 113.34,254 111.8,253.456 C107.519,251.943 104.334,250.559 98.67,247.751 C95.021,245.941 94.571,245.793 94.268,246.3 M271.091,259.042 C270.948,259.185 270.15,259.447 269.316,259.624 C268.482,259.802 267.08,260.141 266.2,260.379 C263.367,261.145 252.86,263.349 248.8,264.029 C241.381,265.272 238.483,265.678 232,266.381 C224.921,267.149 225.043,267.103 218.6,271.428 C208.278,278.357 198.795,283.847 188.8,288.679 C185.83,290.115 183.33,291.354 183.245,291.433 C182.564,292.063 196.344,306.472 202.425,311.489 C206.959,315.23 213.289,319.346 218.209,321.753 C220.404,322.827 222.513,323.862 222.895,324.053 C223.277,324.244 223.864,324.4 224.2,324.4 C224.536,324.4 225.123,324.572 225.505,324.782 C229.328,326.881 243.923,326.862 246.18,324.755 C246.389,324.56 246.784,324.4 247.059,324.4 C251.887,324.4 261.696,312.799 266.023,301.972 C267.18,299.076 267.503,298.065 268.826,293.2 C272.008,281.491 273.668,256.465 271.091,259.042 M166,266.574 C166,267.25 173.693,279.381 176.164,282.6 C176.839,283.48 177.439,284.275 177.496,284.367 C177.554,284.459 178.006,284.338 178.501,284.098 C178.995,283.858 182.26,282.277 185.755,280.585 C192.167,277.482 201.053,272.583 205.427,269.742 L207.8,268.2 L194.6,267.932 C187.34,267.784 179.33,267.477 176.8,267.249 C167,266.366 166,266.303 166,266.574" id="path1"></path>
        </g>
    </g>
</svg>
