<svg width="394px" height="280px" viewBox="0 0 394 280" version="1.1" xmlns="http://www.w3.org/2000/svg" xmlns:xlink="http://www.w3.org/1999/xlink">
    <!-- Generator: Sketch 51 (57462) - http://www.bohemiancoding.com/sketch -->
    <desc>Created with Sketch.</desc>
    <defs></defs>
    <g id="Page-1" stroke="none" stroke-width="1" fill="none" fill-rule="evenodd">
        <g id="strength-intelligence">
            <path d="M270.475,1.035 C268.95,1.098 267.701,1.258 267.701,1.39 C267.701,1.522 266.229,1.722 264.43,1.835 C262.63,1.947 261.158,2.138 261.158,2.259 C261.158,2.38 260.134,2.568 258.882,2.677 C257.63,2.786 256.606,2.978 256.606,3.104 C256.606,3.229 255.71,3.42 254.615,3.528 C253.519,3.636 252.623,3.832 252.623,3.964 C252.623,4.095 251.855,4.292 250.916,4.401 C249.977,4.51 249.209,4.698 249.209,4.819 C249.209,4.94 248.569,5.124 247.787,5.228 C247.004,5.332 246.364,5.526 246.364,5.659 C246.364,5.792 245.788,5.988 245.084,6.093 C244.38,6.199 243.804,6.391 243.804,6.52 C243.804,6.649 243.228,6.841 242.523,6.947 C241.819,7.052 241.243,7.244 241.243,7.373 C241.243,7.503 240.667,7.695 239.963,7.8 C239.259,7.906 238.683,8.111 238.683,8.256 C238.683,8.401 238.171,8.601 237.545,8.702 C236.919,8.802 236.407,8.989 236.407,9.119 C236.407,9.248 235.959,9.438 235.411,9.541 C234.863,9.644 234.415,9.831 234.415,9.958 C234.415,10.084 234.031,10.272 233.562,10.376 C233.092,10.479 232.708,10.671 232.708,10.802 C232.708,10.934 232.324,11.126 231.855,11.229 C231.385,11.332 231.001,11.518 231.001,11.642 C231.001,11.766 230.489,11.949 229.863,12.05 C229.238,12.15 228.725,12.348 228.725,12.49 C228.725,12.632 228.352,12.831 227.896,12.931 C227.439,13.031 226.995,13.297 226.909,13.522 C226.823,13.748 226.556,13.932 226.316,13.932 C226.077,13.932 225.881,14.05 225.881,14.194 C225.881,14.338 225.496,14.54 225.027,14.643 C224.558,14.746 224.174,14.938 224.174,15.07 C224.174,15.201 223.789,15.393 223.32,15.496 C222.851,15.6 222.467,15.799 222.467,15.94 C222.467,16.081 222.147,16.277 221.755,16.375 C221.364,16.474 221.044,16.668 221.044,16.808 C221.044,16.947 220.848,17.061 220.608,17.061 C220.369,17.061 220.099,17.253 220.009,17.488 C219.919,17.723 219.676,17.915 219.469,17.915 C219.262,17.915 218.924,18.076 218.717,18.274 C218.511,18.471 218.021,18.79 217.63,18.983 C216.517,19.531 215.835,19.998 215.187,20.655 C214.859,20.989 214.314,21.35 213.976,21.457 C213.639,21.564 213.363,21.771 213.363,21.917 C213.363,22.063 213.167,22.182 212.927,22.182 C212.687,22.182 212.42,22.369 212.332,22.598 C212.244,22.827 211.908,23.098 211.585,23.2 C211.262,23.303 210.715,23.692 210.37,24.065 C210.024,24.437 209.602,24.743 209.432,24.743 C209.263,24.743 209.021,24.906 208.896,25.105 C208.771,25.304 208.337,25.678 207.931,25.936 C207.525,26.194 206.799,26.799 206.317,27.28 C205.835,27.762 205.362,28.156 205.266,28.156 C205.17,28.156 204.128,29.117 202.951,30.29 C201.774,31.464 200.718,32.424 200.606,32.424 C200.346,32.424 196.862,35.929 196.862,36.191 C196.862,36.299 195.966,37.275 194.871,38.359 C193.775,39.444 192.879,40.427 192.879,40.545 C192.879,40.663 192.431,41.194 191.883,41.726 C191.336,42.258 190.888,42.825 190.888,42.986 C190.888,43.147 190.504,43.663 190.034,44.132 C189.565,44.601 189.181,45.11 189.181,45.262 C189.181,45.414 188.861,45.834 188.469,46.197 C188.078,46.56 187.758,46.973 187.758,47.116 C187.758,47.259 187.502,47.595 187.189,47.863 C186.876,48.131 186.62,48.53 186.62,48.749 C186.62,48.969 186.428,49.222 186.193,49.312 C185.959,49.402 185.767,49.672 185.767,49.911 C185.767,50.151 185.641,50.347 185.488,50.347 C185.334,50.347 185.131,50.658 185.035,51.038 C184.94,51.418 184.681,51.798 184.461,51.882 C184.24,51.967 184.06,52.232 184.06,52.472 C184.06,52.711 183.934,52.908 183.781,52.908 C183.627,52.908 183.424,53.218 183.328,53.598 C183.233,53.978 182.974,54.358 182.754,54.443 C182.533,54.527 182.353,54.793 182.353,55.032 C182.353,55.272 182.239,55.468 182.099,55.468 C181.96,55.468 181.765,55.788 181.667,56.179 C181.569,56.57 181.373,56.89 181.232,56.89 C181.091,56.89 180.891,57.275 180.788,57.744 C180.685,58.213 180.483,58.597 180.339,58.597 C180.195,58.597 180.077,58.793 180.077,59.033 C180.077,59.273 179.893,59.539 179.667,59.626 C179.442,59.712 179.176,60.156 179.076,60.613 C178.976,61.069 178.786,61.442 178.654,61.442 C178.523,61.442 178.331,61.826 178.228,62.296 C178.124,62.765 177.932,63.149 177.801,63.149 C177.669,63.149 177.477,63.533 177.374,64.003 C177.271,64.472 177.079,64.856 176.947,64.856 C176.816,64.856 176.624,65.24 176.521,65.71 C176.418,66.179 176.225,66.563 176.094,66.563 C175.962,66.563 175.772,66.939 175.671,67.397 C175.571,67.856 175.306,68.382 175.083,68.567 C174.528,69.028 174.602,69.105 177.545,71.158 C178.969,72.151 181.306,73.845 182.738,74.92 C184.169,75.996 185.254,76.785 185.148,76.673 C184.803,76.306 187.908,69.496 190.248,65.488 C190.913,64.349 191.457,63.352 191.457,63.272 C191.457,63.192 191.696,62.779 191.988,62.355 C192.28,61.932 193.269,60.432 194.185,59.024 C203.855,44.165 217.454,32.034 233.708,23.768 C237.058,22.064 241.096,20.279 243.377,19.492 C244.159,19.223 244.991,18.905 245.226,18.787 C245.461,18.669 246.613,18.286 247.787,17.938 C248.96,17.589 250.24,17.193 250.632,17.059 C251.775,16.666 254.527,15.924 255.83,15.658 C256.491,15.523 258.313,15.149 259.878,14.827 C262.63,14.26 265.23,13.87 269.693,13.355 C277.133,12.496 291.266,13.231 299.565,14.907 C301.537,15.306 303.085,15.665 306.389,16.491 C308.244,16.954 312.931,18.464 313.975,18.934 C314.468,19.156 314.961,19.337 315.071,19.337 C315.181,19.337 316.826,19.989 318.727,20.786 C361.632,38.776 387.054,83.548 380.339,129.294 C379.045,138.107 376.574,147.238 373.779,153.532 C373.487,154.188 373.249,154.816 373.249,154.927 C373.249,155.424 368.684,164.309 366.979,167.132 C354.044,188.545 334.667,204.076 311.229,211.817 C306.76,213.293 305.661,213.59 299.849,214.885 C288.991,217.306 272.803,217.638 262.723,215.647 C252.817,213.692 248.329,212.426 241.243,209.591 C236.852,207.834 228.85,203.765 225.54,201.605 C222.604,199.69 222.873,199.738 222.469,201.058 C222.289,201.645 222.036,202.381 221.906,202.694 C221.775,203.007 221.38,204.095 221.028,205.112 C220.675,206.129 220.279,207.083 220.146,207.232 C220.014,207.381 219.905,207.701 219.904,207.943 C219.903,208.186 219.734,208.707 219.528,209.102 C218.5,211.072 218.45,211.653 219.277,212.019 C219.701,212.207 220.218,212.522 220.424,212.719 C220.631,212.917 220.983,213.078 221.207,213.078 C221.43,213.078 221.613,213.206 221.613,213.363 C221.613,213.519 221.809,213.647 222.049,213.647 C222.288,213.647 222.555,213.831 222.642,214.057 C222.728,214.282 223.172,214.548 223.628,214.648 C224.085,214.748 224.458,214.938 224.458,215.07 C224.458,215.201 224.842,215.393 225.312,215.496 C225.781,215.6 226.165,215.788 226.165,215.915 C226.165,216.042 226.485,216.226 226.876,216.325 C227.267,216.423 227.587,216.629 227.587,216.782 C227.587,216.936 227.748,217.066 227.943,217.071 C228.139,217.076 228.811,217.328 229.437,217.63 C230.063,217.932 230.735,218.184 230.93,218.189 C231.126,218.195 231.286,218.317 231.286,218.461 C231.286,218.605 231.67,218.807 232.139,218.91 C232.609,219.013 232.993,219.214 232.993,219.356 C232.993,219.499 233.505,219.697 234.131,219.797 C234.757,219.897 235.269,220.09 235.269,220.227 C235.269,220.363 235.429,220.479 235.624,220.485 C235.82,220.49 236.492,220.742 237.118,221.044 C237.744,221.346 238.544,221.598 238.896,221.603 C239.248,221.609 239.536,221.735 239.536,221.885 C239.536,222.034 239.984,222.24 240.532,222.343 C241.08,222.446 241.528,222.629 241.528,222.75 C241.528,222.872 242.104,223.057 242.808,223.163 C243.512,223.269 244.088,223.466 244.088,223.602 C244.088,223.737 244.792,223.936 245.653,224.044 C246.514,224.151 247.218,224.348 247.218,224.481 C247.218,224.614 247.858,224.808 248.64,224.912 C249.422,225.015 250.063,225.199 250.063,225.32 C250.063,225.441 250.831,225.629 251.77,225.738 C252.708,225.847 253.477,226.042 253.477,226.17 C253.477,226.299 254.341,226.494 255.397,226.604 C256.453,226.713 257.445,226.903 257.602,227.025 C257.758,227.146 258.91,227.34 260.162,227.454 C261.414,227.568 262.503,227.763 262.583,227.887 C262.663,228.011 264.423,228.204 266.495,228.316 C268.567,228.429 270.262,228.631 270.262,228.766 C270.262,228.9 274.358,229.01 279.366,229.01 C284.373,229.01 288.469,228.9 288.469,228.766 C288.469,228.631 290.164,228.429 292.236,228.316 C294.308,228.204 296.068,228.007 296.148,227.88 C296.228,227.753 297.413,227.556 298.782,227.442 C300.151,227.329 301.272,227.139 301.272,227.022 C301.272,226.904 302.168,226.719 303.263,226.611 C304.358,226.503 305.255,226.307 305.255,226.176 C305.255,226.044 306.023,225.847 306.962,225.738 C307.9,225.629 308.669,225.439 308.669,225.316 C308.669,225.193 309.371,225.005 310.229,224.898 C311.087,224.79 311.858,224.591 311.942,224.455 C312.027,224.318 312.669,224.12 313.369,224.015 C314.07,223.91 314.643,223.719 314.643,223.59 C314.643,223.461 315.219,223.269 315.923,223.163 C316.627,223.057 317.203,222.872 317.203,222.75 C317.203,222.629 317.667,222.443 318.234,222.337 C318.801,222.23 319.473,222.028 319.728,221.888 C320.756,221.321 322.888,220.475 323.288,220.475 C323.522,220.475 323.786,220.357 323.876,220.212 C323.965,220.068 324.42,219.866 324.888,219.763 C325.356,219.66 325.738,219.459 325.738,219.315 C325.738,219.17 325.898,219.048 326.094,219.043 C326.289,219.038 326.962,218.786 327.587,218.484 C328.213,218.181 328.885,217.93 329.081,217.924 C329.277,217.919 329.437,217.797 329.437,217.653 C329.437,217.509 329.821,217.307 330.29,217.203 C330.76,217.1 331.146,216.93 331.15,216.825 C331.153,216.72 331.854,216.314 332.708,215.923 C333.562,215.532 334.264,215.126 334.267,215.021 C334.27,214.916 334.657,214.746 335.127,214.643 C335.596,214.54 335.98,214.338 335.98,214.194 C335.98,214.05 336.176,213.932 336.416,213.932 C336.655,213.932 336.922,213.748 337.009,213.522 C337.095,213.297 337.539,213.031 337.995,212.931 C338.452,212.831 338.825,212.633 338.825,212.492 C338.825,212.351 339.141,212.156 339.526,212.06 C339.912,211.963 340.3,211.653 340.39,211.371 C340.479,211.089 340.868,210.78 341.253,210.683 C341.639,210.586 341.954,210.381 341.954,210.228 C341.954,210.074 342.151,209.949 342.39,209.949 C342.63,209.949 342.895,209.768 342.98,209.548 C343.064,209.327 343.444,209.069 343.824,208.973 C344.204,208.878 344.515,208.674 344.515,208.521 C344.515,208.367 344.711,208.242 344.951,208.242 C345.19,208.242 345.46,208.05 345.55,207.815 C345.64,207.58 345.893,207.388 346.113,207.388 C346.332,207.388 346.731,207.132 346.999,206.819 C347.267,206.506 347.603,206.25 347.746,206.25 C347.889,206.25 348.302,205.93 348.665,205.539 C349.028,205.148 349.439,204.828 349.579,204.828 C349.844,204.828 351.026,203.836 353.221,201.77 C353.928,201.105 354.616,200.56 354.75,200.56 C354.885,200.56 357.118,198.416 359.713,195.795 C365.401,190.051 365.283,190.175 365.283,189.939 C365.283,189.834 365.795,189.252 366.421,188.645 C367.047,188.037 367.559,187.423 367.559,187.28 C367.559,187.137 367.938,186.706 368.4,186.322 C368.863,185.939 369.247,185.474 369.254,185.291 C369.261,185.107 369.625,184.595 370.065,184.153 C370.504,183.71 370.948,183.124 371.052,182.851 C371.155,182.577 371.372,182.353 371.533,182.353 C371.694,182.353 371.826,182.159 371.826,181.923 C371.826,181.687 372.083,181.274 372.395,181.007 C372.708,180.739 372.964,180.356 372.964,180.156 C372.964,179.956 373.09,179.792 373.244,179.792 C373.397,179.792 373.601,179.482 373.696,179.102 C373.791,178.722 374.05,178.342 374.27,178.257 C374.491,178.172 374.671,177.907 374.671,177.668 C374.671,177.428 374.797,177.232 374.95,177.232 C375.104,177.232 375.308,176.921 375.403,176.541 C375.498,176.161 375.757,175.781 375.977,175.697 C376.198,175.612 376.378,175.347 376.378,175.107 C376.378,174.867 376.493,174.671 376.632,174.671 C376.772,174.671 376.966,174.351 377.064,173.96 C377.162,173.569 377.358,173.249 377.499,173.249 C377.64,173.249 377.84,172.865 377.943,172.395 C378.046,171.926 378.248,171.542 378.392,171.542 C378.536,171.542 378.654,171.346 378.654,171.106 C378.654,170.867 378.839,170.6 379.064,170.514 C379.289,170.427 379.555,169.983 379.655,169.527 C379.756,169.07 379.945,168.697 380.077,168.697 C380.208,168.697 380.4,168.313 380.504,167.844 C380.607,167.374 380.799,166.99 380.93,166.99 C381.062,166.99 381.254,166.606 381.357,166.137 C381.46,165.667 381.652,165.283 381.784,165.283 C381.915,165.283 382.107,164.899 382.211,164.43 C382.314,163.96 382.516,163.576 382.66,163.576 C382.804,163.576 382.923,163.416 382.924,163.22 C382.924,163.025 383.104,162.521 383.323,162.102 C383.542,161.682 383.808,160.946 383.913,160.466 C384.019,159.986 384.217,159.593 384.354,159.593 C384.491,159.593 384.687,159.145 384.79,158.597 C384.892,158.05 385.089,157.602 385.226,157.602 C385.363,157.602 385.557,157.09 385.657,156.464 C385.758,155.838 385.945,155.326 386.075,155.326 C386.204,155.326 386.394,154.878 386.497,154.33 C386.599,153.782 386.783,153.334 386.904,153.334 C387.025,153.334 387.211,152.758 387.317,152.054 C387.422,151.35 387.617,150.774 387.749,150.774 C387.881,150.774 388.077,150.134 388.185,149.352 C388.292,148.569 388.489,147.862 388.622,147.78 C388.755,147.698 388.949,147.058 389.054,146.358 C389.159,145.657 389.346,145.084 389.47,145.084 C389.593,145.084 389.783,144.316 389.892,143.377 C390.001,142.438 390.192,141.67 390.318,141.67 C390.443,141.67 390.635,140.773 390.745,139.677 C390.856,138.581 391.052,137.619 391.182,137.539 C391.312,137.458 391.508,136.371 391.616,135.122 C391.725,133.873 391.913,132.851 392.034,132.851 C392.155,132.851 392.347,131.346 392.46,129.508 C392.579,127.593 392.802,126.079 392.982,125.964 C393.419,125.687 393.419,104.17 392.983,103.887 C392.814,103.779 392.586,102.22 392.474,100.423 C392.362,98.626 392.167,97.09 392.04,97.009 C391.913,96.928 391.716,95.806 391.603,94.515 C391.49,93.224 391.298,92.168 391.176,92.168 C391.054,92.168 390.865,91.336 390.756,90.319 C390.647,89.302 390.453,88.469 390.324,88.469 C390.195,88.469 390.001,87.701 389.892,86.762 C389.783,85.824 389.593,85.055 389.47,85.055 C389.347,85.055 389.158,84.351 389.051,83.491 C388.943,82.63 388.744,81.926 388.609,81.926 C388.473,81.926 388.276,81.35 388.17,80.646 C388.064,79.942 387.872,79.366 387.743,79.366 C387.614,79.366 387.422,78.789 387.317,78.085 C387.211,77.381 387.019,76.805 386.89,76.805 C386.761,76.805 386.569,76.229 386.463,75.525 C386.357,74.821 386.163,74.245 386.032,74.245 C385.9,74.245 385.708,73.797 385.606,73.249 C385.503,72.701 385.307,72.253 385.169,72.253 C385.032,72.253 384.838,71.741 384.738,71.115 C384.638,70.489 384.455,69.977 384.33,69.977 C384.206,69.977 384.021,69.593 383.917,69.124 C383.814,68.654 383.618,68.27 383.481,68.27 C383.344,68.27 383.148,67.822 383.045,67.275 C382.943,66.727 382.755,66.279 382.628,66.279 C382.502,66.279 382.314,65.895 382.211,65.425 C382.107,64.956 381.915,64.572 381.784,64.572 C381.652,64.572 381.46,64.188 381.357,63.718 C381.254,63.249 381.062,62.865 380.93,62.865 C380.799,62.865 380.607,62.481 380.504,62.011 C380.4,61.542 380.201,61.158 380.06,61.158 C379.919,61.158 379.723,60.838 379.625,60.447 C379.526,60.055 379.342,59.735 379.215,59.735 C379.088,59.735 378.902,59.362 378.802,58.906 C378.702,58.449 378.435,58.005 378.21,57.919 C377.985,57.833 377.801,57.566 377.801,57.326 C377.801,57.087 377.687,56.89 377.547,56.89 C377.408,56.89 377.213,56.57 377.115,56.179 C377.017,55.788 376.821,55.468 376.68,55.468 C376.539,55.468 376.342,55.095 376.241,54.638 C376.141,54.182 375.875,53.738 375.65,53.651 C375.425,53.565 375.24,53.298 375.24,53.059 C375.24,52.819 375.115,52.623 374.961,52.623 C374.808,52.623 374.604,52.312 374.509,51.932 C374.414,51.553 374.155,51.172 373.934,51.088 C373.714,51.003 373.533,50.738 373.533,50.498 C373.533,50.259 373.414,50.063 373.268,50.063 C373.122,50.063 372.915,49.787 372.808,49.449 C372.701,49.112 372.331,48.568 371.985,48.24 C371.64,47.912 371.275,47.42 371.174,47.147 C371.073,46.873 370.867,46.649 370.717,46.649 C370.566,46.649 370.355,46.373 370.248,46.035 C370.141,45.698 369.748,45.139 369.375,44.794 C369.002,44.448 368.697,44.048 368.697,43.905 C368.697,43.763 368.473,43.43 368.199,43.166 C367.203,42.206 366.706,41.618 366.706,41.402 C366.706,41.281 366.001,40.489 365.141,39.642 C364.28,38.795 363.576,37.99 363.576,37.854 C363.576,37.55 356.176,30.148 355.872,30.148 C355.753,30.148 355.079,29.572 354.375,28.868 C353.671,28.164 353.002,27.587 352.888,27.587 C352.774,27.587 352.245,27.139 351.713,26.592 C351.182,26.044 350.618,25.596 350.462,25.596 C350.306,25.596 349.881,25.276 349.519,24.885 C349.156,24.494 348.71,24.174 348.527,24.174 C348.345,24.174 348.124,23.986 348.036,23.758 C347.948,23.529 347.612,23.258 347.289,23.155 C346.966,23.053 346.419,22.664 346.074,22.291 C345.728,21.918 345.296,21.613 345.113,21.613 C344.931,21.613 344.712,21.433 344.628,21.212 C344.543,20.991 344.163,20.733 343.783,20.638 C343.403,20.542 343.092,20.339 343.092,20.185 C343.092,20.032 342.896,19.906 342.657,19.906 C342.417,19.906 342.147,19.714 342.057,19.479 C341.967,19.245 341.724,19.053 341.518,19.053 C341.311,19.053 340.967,18.893 340.754,18.697 C340.26,18.244 339.446,17.722 338.541,17.276 C338.149,17.083 337.66,16.764 337.453,16.567 C337.247,16.369 336.895,16.208 336.671,16.208 C336.447,16.208 336.265,16.09 336.265,15.946 C336.265,15.802 335.891,15.602 335.435,15.502 C334.979,15.401 334.534,15.135 334.448,14.91 C334.362,14.685 334.095,14.501 333.855,14.501 C333.616,14.501 333.42,14.383 333.42,14.239 C333.42,14.095 333.036,13.893 332.566,13.789 C332.097,13.686 331.713,13.494 331.713,13.363 C331.713,13.231 331.329,13.039 330.859,12.936 C330.39,12.833 330.006,12.641 330.006,12.509 C330.006,12.378 329.622,12.186 329.152,12.083 C328.683,11.979 328.299,11.779 328.299,11.637 C328.299,11.494 327.787,11.296 327.161,11.196 C326.535,11.096 326.023,10.913 326.023,10.789 C326.023,10.664 325.639,10.479 325.169,10.376 C324.7,10.272 324.316,10.076 324.316,9.939 C324.316,9.802 323.868,9.606 323.32,9.503 C322.772,9.401 322.324,9.204 322.324,9.067 C322.324,8.93 321.812,8.736 321.186,8.636 C320.56,8.535 320.048,8.356 320.048,8.237 C320.048,8.118 319.6,7.937 319.053,7.834 C318.505,7.731 318.057,7.539 318.057,7.408 C318.057,7.276 317.481,7.082 316.777,6.976 C316.073,6.871 315.496,6.679 315.496,6.55 C315.496,6.421 314.923,6.229 314.223,6.124 C313.522,6.019 312.882,5.824 312.8,5.692 C312.718,5.559 312.011,5.362 311.229,5.255 C310.447,5.147 309.807,4.956 309.807,4.829 C309.807,4.703 309.038,4.51 308.1,4.401 C307.161,4.292 306.393,4.098 306.393,3.969 C306.393,3.84 305.56,3.646 304.543,3.537 C303.526,3.428 302.694,3.239 302.694,3.117 C302.694,2.995 301.638,2.803 300.347,2.69 C299.056,2.577 297.934,2.38 297.853,2.253 C297.772,2.126 296.236,1.931 294.439,1.819 C292.642,1.707 291.097,1.501 291.005,1.36 C290.828,1.089 275.165,0.841 270.475,1.035 M272.111,17.809 C263.457,18.705 259.496,19.446 251.77,21.613 C250.596,21.943 249.44,22.317 249.2,22.445 C248.96,22.574 248.324,22.775 247.787,22.893 C247.249,23.011 246.613,23.214 246.373,23.344 C246.134,23.474 244.721,24.053 243.235,24.63 C241.748,25.208 240.34,25.783 240.105,25.907 C239.871,26.031 238.014,26.952 235.98,27.954 C215.441,38.066 198.61,56.107 189.611,77.659 C189.317,78.363 188.976,79.056 188.853,79.2 C188.731,79.343 190.552,81.313 192.901,83.577 C197.161,87.684 201.806,92.888 204.959,97.089 C206.195,98.736 206.741,99.257 207.077,99.112 C207.327,99.005 208.299,98.754 209.238,98.553 C212.766,97.801 214.977,97.33 216.558,96.992 C218.058,96.671 218.284,96.515 219.383,95.046 C220.04,94.167 221.13,92.796 221.804,91.998 L223.03,90.548 L222.763,87.731 C222.483,84.776 222.317,79.413 222.501,79.247 C222.56,79.193 224.145,78.281 226.023,77.219 C227.9,76.157 230.239,74.798 231.22,74.198 C232.201,73.598 233.057,73.107 233.122,73.107 C233.188,73.107 235.521,74.581 238.306,76.383 C241.561,78.489 243.524,79.592 243.8,79.472 C244.469,79.181 246.924,78.84 248.518,78.817 L249.961,78.797 L252.643,75.762 C254.119,74.093 255.874,72.122 256.544,71.38 L257.762,70.033 L259.247,70.393 C262.706,71.231 268.743,72.849 269.298,73.087 C269.923,73.353 270.233,74.474 271.993,82.828 C272.407,84.789 272.298,84.637 274.387,86.165 C275.326,86.851 276.505,87.799 277.007,88.27 L277.92,89.128 L281.768,88.943 C283.885,88.842 286.491,88.677 287.558,88.578 L289.5,88.398 L290.758,90.496 C291.451,91.65 292.17,92.881 292.358,93.231 C292.546,93.581 293.418,95.088 294.296,96.581 L295.893,99.295 L294.529,101.427 C293.778,102.599 292.361,104.786 291.38,106.287 L289.597,109.016 L290.029,111.292 C290.267,112.544 290.461,114.175 290.461,114.918 C290.461,116.18 290.558,116.357 291.958,117.66 C293.83,119.402 297.499,122.666 298.375,123.368 L299.035,123.898 L298.156,127.165 C297.672,128.962 297.157,130.881 297.01,131.428 C295.75,136.146 295.777,136.087 294.723,136.324 C293.648,136.565 290.209,137.298 288.227,137.709 C285.235,138.328 284.944,138.48 284.061,139.886 C283.592,140.633 282.461,142.135 281.549,143.225 L279.891,145.206 L280.06,147.919 C280.153,149.411 280.301,151.784 280.387,153.192 L280.545,155.752 L278.604,156.883 C277.536,157.504 276.407,158.153 276.094,158.324 C275.781,158.495 274.289,159.362 272.779,160.252 C269.396,162.245 270.206,162.361 265.231,159.166 C260.646,156.222 260.884,156.293 257.602,156.886 C256.35,157.112 254.622,157.304 253.761,157.312 C251.784,157.33 252.646,156.585 246.063,163.958 C244.939,165.217 245.17,165.221 240.248,163.857 C238.526,163.381 236.259,162.789 235.209,162.544 C232.874,161.997 232.959,162.112 232.185,158.455 C230.66,151.257 230.906,151.835 228.675,150.208 C227.105,149.062 226.728,148.884 226.879,149.361 C227.495,151.301 228.222,162.295 228.073,167.417 C227.938,172.067 227.143,182.152 226.852,182.922 C226.763,183.156 226.512,184.437 226.294,185.767 C225.658,189.65 224.993,192.723 224.324,194.871 C224.203,195.262 224.194,195.496 224.305,195.391 C224.416,195.286 225.745,196.009 227.257,196.997 C247.737,210.38 274.621,215.391 298.853,210.341 C303.333,209.408 308.059,208.163 308.989,207.672 C309.244,207.537 309.917,207.34 310.486,207.233 C311.055,207.127 311.59,206.926 311.676,206.787 C311.761,206.648 312.048,206.534 312.313,206.533 C312.577,206.532 313.16,206.34 313.609,206.106 C314.057,205.873 314.544,205.681 314.691,205.681 C314.838,205.681 315.496,205.443 316.152,205.153 C316.809,204.862 318.05,204.318 318.91,203.944 C347.965,191.305 369.764,163.209 375.236,131.346 C383.359,84.04 355.048,37.196 309.38,22.378 C306.285,21.374 305.31,21.1 301.983,20.3 C293.407,18.239 279.309,17.064 272.111,17.809 M300.182,35.482 C300.876,36.538 301.631,37.701 301.858,38.065 C302.277,38.735 304.847,39.83 305.955,39.81 C306.274,39.805 307.685,39.304 309.09,38.697 C311.934,37.47 311.79,37.451 313.991,39.341 C314.805,40.041 315.807,40.878 316.217,41.2 L316.963,41.786 L316.499,43.862 C316.243,45.003 315.916,46.385 315.771,46.932 C315.543,47.791 315.632,48.169 316.426,49.701 C317.406,51.593 317.691,51.787 321.394,53.085 C323.155,53.702 323.067,53.523 323.473,57.295 C323.851,60.803 323.953,60.556 321.509,62.009 C318.949,63.529 318.419,64.065 318.058,65.498 C317.89,66.162 317.647,66.962 317.516,67.275 C317.346,67.685 317.588,68.557 318.38,70.384 C318.984,71.78 319.479,73.1 319.479,73.316 C319.479,73.79 315.584,78.512 315.193,78.512 C315.041,78.512 313.699,78.248 312.211,77.926 L309.504,77.339 L308.447,77.997 C307.866,78.358 306.942,78.863 306.394,79.118 C305.514,79.527 305.28,79.885 304.408,82.162 C303.283,85.1 303.698,84.867 298.965,85.219 L296.516,85.401 L295.124,83.109 L293.733,80.817 L291.741,80.179 C290.646,79.827 289.604,79.433 289.426,79.302 C289.232,79.16 288.055,79.525 286.491,80.213 C284.285,81.184 283.801,81.307 283.374,81.004 C282.752,80.563 280.393,78.62 279.31,77.659 L278.51,76.947 L279.077,74.671 C279.815,71.707 279.821,71.772 278.612,69.353 C277.417,66.959 277.562,67.088 274.956,66.099 C272.318,65.099 272.345,65.129 272.136,62.928 C272.037,61.876 271.884,60.42 271.797,59.692 L271.638,58.368 L274.182,56.726 L276.726,55.085 L277.359,52.976 C278.061,50.64 278.029,50.333 276.804,47.687 C275.704,45.31 275.633,45.604 277.977,42.807 C280.259,40.083 280.092,40.137 283.588,40.982 L286.039,41.575 L287.955,40.648 L289.872,39.72 L290.89,37.092 C292.234,33.624 291.923,33.792 297.322,33.615 L298.92,33.562 L300.182,35.482 M293.715,50.914 C288.649,53.372 286.597,58.942 288.978,63.78 C292.56,71.06 302.586,71.06 306.169,63.78 C310.076,55.84 301.603,47.087 293.715,50.914 M317.905,95.728 C318.612,96.755 319.243,97.353 319.73,97.459 C320.14,97.548 320.619,97.664 320.795,97.717 C320.971,97.769 321.784,97.503 322.601,97.124 C324.511,96.239 324.544,96.243 326.138,97.484 L327.484,98.533 L327.291,100.588 C327.032,103.355 327.488,104.151 329.853,105.052 L331.57,105.707 L331.823,107.661 L332.075,109.615 L331.112,110.416 C330.582,110.856 329.927,111.291 329.656,111.382 C328.784,111.676 328.431,113.724 328.996,115.212 C329.935,117.684 329.896,117.843 327.715,120.425 C327.606,120.554 326.757,120.511 325.828,120.328 C323.388,119.848 321.856,120.7 321.075,122.973 C320.234,125.416 317.01,125.804 315.522,123.641 C314.196,121.714 312.335,121.189 310.366,122.187 C308.805,122.978 308.813,122.98 306.997,121.521 L305.753,120.521 L305.933,118.793 C306.203,116.215 305.411,114.839 303.192,114.027 C301.907,113.557 301.556,113.3 301.554,112.827 C301.552,112.496 301.473,111.576 301.378,110.782 L301.205,109.34 L302.605,108.441 C304.61,107.155 305.08,105.411 304,103.261 L303.27,101.807 L304.439,100.259 C305.699,98.59 306.034,98.477 308.222,98.984 C309.436,99.266 311.798,98.237 311.798,97.428 C311.798,96.047 312.919,94.478 313.985,94.368 C316.83,94.072 316.744,94.042 317.905,95.728 M246.71,100.97 C235.965,104.042 230.497,116.008 235.388,125.745 C243.031,140.962 264.961,138.168 268.658,121.507 C271.429,109.025 259.05,97.442 246.71,100.97 M314.127,104.569 C308.957,107.123 310.291,114.723 316.028,115.403 C317.757,115.608 319.656,114.784 320.885,113.295 C324.726,108.645 319.51,101.908 314.127,104.569 M174.59,105.128 C175.093,105.524 175.906,106.323 176.397,106.903 C176.889,107.483 177.158,107.693 176.995,107.371 C176.668,106.721 174.242,104.399 173.895,104.404 C173.775,104.406 174.087,104.732 174.59,105.128 M154.615,125.169 C158.054,128.612 160.933,131.428 161.011,131.428 C161.089,131.428 158.339,128.612 154.899,125.169 C151.459,121.727 148.581,118.91 148.503,118.91 C148.424,118.91 151.175,121.727 154.615,125.169 M312.389,140.478 L313.975,142.95 L316.112,143.604 L318.249,144.258 L320.878,143.118 L323.507,141.978 L326.029,144.029 C328.872,146.34 328.794,146.117 327.984,149.633 L327.386,152.234 L328.27,154.03 C329.348,156.22 329.289,156.172 332.321,157.304 C335.123,158.351 334.95,158.033 335.286,162.733 L335.459,165.141 L332.81,166.848 C330.777,168.157 330.102,168.753 329.908,169.408 C329.769,169.878 329.489,170.659 329.286,171.144 C328.944,171.962 329.009,172.245 330.162,174.957 L331.407,177.888 L330.501,179.053 C327.148,183.365 327.366,183.262 323.521,182.333 L321.084,181.743 L319.276,182.625 C318.014,183.24 317.375,183.74 317.158,184.281 C316.988,184.707 316.746,185.312 316.622,185.624 C316.497,185.937 316.081,186.909 315.698,187.784 L315,189.376 L312.787,189.563 C308.255,189.946 308.389,189.983 307.104,187.972 C306.478,186.994 305.885,185.997 305.785,185.757 C305.496,185.064 304.956,184.747 302.95,184.089 C300.894,183.414 301.014,183.396 297.78,184.881 C295.334,186.004 295.738,186.102 292.976,183.715 C290.305,181.405 290.355,181.559 291.128,177.999 L291.61,175.778 L290.497,173.731 L289.383,171.684 L286.882,170.679 C284.002,169.522 284.086,169.661 283.772,165.473 L283.571,162.798 L285.338,161.693 C288.058,159.993 288.438,159.59 288.919,157.886 C289.697,155.132 289.705,154.82 289.03,153.258 C287.431,149.558 287.342,150.272 289.771,147.352 C292.188,144.449 291.637,144.622 295.5,145.553 L297.267,145.979 L299.413,144.918 C301.989,143.645 301.851,143.802 302.961,140.915 L303.852,138.595 L306.189,138.323 C310.912,137.773 310.579,137.657 312.389,140.478 M306.203,154.714 C299.594,156.998 297.585,165.523 302.484,170.493 C306.347,174.411 312.758,174.269 316.36,170.185 C322.906,162.767 315.508,151.499 306.203,154.714 M65.283,220.191 C69.819,224.728 73.594,228.441 73.672,228.441 C73.75,228.441 70.103,224.728 65.568,220.191 C61.032,215.653 57.257,211.94 57.179,211.94 C57.1,211.94 60.747,215.653 65.283,220.191 M60.717,220.766 L66.706,226.747 L65.994,227.329 C65.382,227.829 65.37,227.868 65.907,227.605 C66.251,227.437 66.619,227.158 66.726,226.985 C66.896,226.71 55.325,214.785 54.888,214.785 C54.801,214.785 57.424,217.477 60.717,220.766 M53.003,220.191 C53.003,221.364 53.053,221.844 53.115,221.257 C53.176,220.671 53.176,219.711 53.115,219.124 C53.053,218.537 53.003,219.017 53.003,220.191 M193.864,221.4 C193.426,222.065 193.249,222.459 193.471,222.275 C193.898,221.922 194.987,220.191 194.782,220.191 C194.716,220.191 194.303,220.735 193.864,221.4 M191.172,225.027 C190.676,225.653 190.335,226.165 190.413,226.165 C190.491,226.165 190.961,225.653 191.457,225.027 C191.952,224.401 192.294,223.889 192.216,223.889 C192.137,223.889 191.668,224.401 191.172,225.027 M54.271,224.885 C54.433,225.198 54.993,225.838 55.515,226.307 L56.464,227.16 L55.469,226.022 C54.922,225.397 54.362,224.757 54.225,224.6 C54.088,224.444 54.109,224.572 54.271,224.885 M59.309,228.428 C59.855,228.675 61.379,228.836 61.134,228.621 C61.069,228.563 60.504,228.438 59.878,228.343 C59.085,228.222 58.912,228.248 59.309,228.428 M62.865,228.441 C62.293,228.624 62.265,228.67 62.723,228.677 C63.036,228.682 63.548,228.575 63.861,228.441 C64.586,228.129 63.838,228.129 62.865,228.441 M185.755,231.499 C182.962,234.43 181.95,235.553 182.103,235.553 C182.186,235.553 183.438,234.273 184.885,232.708 C186.333,231.144 187.471,229.863 187.415,229.863 C187.359,229.863 186.612,230.6 185.755,231.499 M42.95,231.713 C43.481,232.26 43.979,232.708 44.058,232.708 C44.136,232.708 43.766,232.26 43.235,231.713 C42.704,231.165 42.206,230.717 42.127,230.717 C42.049,230.717 42.419,231.165 42.95,231.713 M179.776,237.481 L177.943,239.394 L179.785,237.687 C180.798,236.748 181.684,235.948 181.753,235.909 C181.822,235.87 181.818,235.777 181.744,235.703 C181.67,235.629 180.785,236.43 179.776,237.481 M48.344,237.047 C49.041,237.79 49.649,238.398 49.695,238.398 C49.909,238.398 49.683,238.143 48.427,236.964 L47.075,235.696 L48.344,237.047 M175.679,240.94 C175.589,241.086 174.269,242.128 172.746,243.256 C169.968,245.315 169.007,246.102 169.835,245.641 C171.442,244.748 176.5,240.674 176.003,240.674 C175.915,240.674 175.769,240.794 175.679,240.94 M165.625,248.193 C164.304,249.128 164.118,249.395 165.234,248.755 C165.754,248.457 166.314,248.053 166.478,247.858 C166.898,247.355 166.701,247.433 165.625,248.193 M163.22,249.656 C162.157,250.233 162.222,250.474 163.292,249.92 C163.761,249.678 164.145,249.418 164.145,249.344 C164.145,249.161 164.115,249.171 163.22,249.656 M78.512,256.201 C78.512,256.393 79.99,256.93 80.131,256.789 C80.195,256.725 79.858,256.536 79.38,256.369 C78.903,256.203 78.512,256.127 78.512,256.201 M149.209,256.474 C148.494,256.818 148.471,256.857 149.067,256.713 C149.458,256.619 149.9,256.428 150.048,256.29 C150.417,255.945 150.215,255.989 149.209,256.474 M146.933,257.327 C146.222,257.67 146.198,257.709 146.791,257.564 C147.597,257.367 148.503,256.906 148.071,256.912 C147.915,256.914 147.403,257.101 146.933,257.327 M144.373,258.181 C143.661,258.523 143.638,258.563 144.23,258.418 C145.037,258.221 145.943,257.759 145.511,257.765 C145.354,257.768 144.842,257.955 144.373,258.181 M141.71,258.924 C141.184,259.075 140.807,259.252 140.872,259.317 C141.016,259.461 143.092,258.908 143.092,258.726 C143.092,258.559 142.867,258.591 141.71,258.924 M138.7,259.771 C138.083,259.915 137.507,260.106 137.419,260.194 C137.158,260.459 139.513,259.972 139.807,259.701 C139.955,259.563 140.019,259.464 139.949,259.48 C139.878,259.495 139.316,259.626 138.7,259.771 M135.553,260.589 C134.766,260.789 134.755,260.808 135.411,260.835 C135.802,260.852 136.314,260.741 136.549,260.589 C137.033,260.276 136.783,260.276 135.553,260.589 M96.293,261.435 C96.836,261.676 98.65,261.838 98.403,261.624 C98.338,261.568 97.708,261.445 97.004,261.352 C96.149,261.239 95.913,261.267 96.293,261.435 M131.144,261.442 C130.171,261.647 130.168,261.652 131.001,261.669 C131.471,261.679 132.111,261.577 132.424,261.442 C133.108,261.148 132.54,261.148 131.144,261.442 M125.454,262.296 L123.889,262.488 L125.312,262.514 C126.094,262.529 126.99,262.43 127.303,262.296 C127.944,262.02 127.703,262.02 125.454,262.296 M102.908,262.497 C103.26,262.564 103.836,262.564 104.188,262.497 C104.54,262.429 104.252,262.373 103.548,262.373 C102.844,262.373 102.555,262.429 102.908,262.497 M105.895,262.776 C106.169,262.848 106.617,262.848 106.89,262.776 C107.164,262.705 106.94,262.646 106.393,262.646 C105.845,262.646 105.621,262.705 105.895,262.776 M121.826,262.776 C122.1,262.848 122.548,262.848 122.822,262.776 C123.096,262.705 122.872,262.646 122.324,262.646 C121.777,262.646 121.553,262.705 121.826,262.776 M112.58,263.076 C113.558,263.131 115.159,263.131 116.137,263.076 C117.115,263.02 116.314,262.974 114.358,262.974 C112.403,262.974 111.602,263.02 112.58,263.076" id="path1"></path>
            <path d="M105.555,51.961 C104.076,52.025 102.732,52.184 102.567,52.315 C102.402,52.446 100.923,52.644 99.28,52.757 C97.637,52.869 96.165,53.061 96.009,53.184 C95.852,53.307 94.732,53.499 93.519,53.609 C92.307,53.719 91.314,53.908 91.314,54.029 C91.314,54.15 90.527,54.331 89.565,54.432 C88.603,54.532 87.675,54.728 87.503,54.867 C87.33,55.006 86.517,55.21 85.696,55.321 C84.875,55.431 84.133,55.634 84.048,55.771 C83.964,55.908 83.259,56.105 82.483,56.208 C81.707,56.311 81.073,56.492 81.073,56.61 C81.073,56.729 80.496,56.912 79.792,57.018 C79.088,57.123 78.512,57.315 78.512,57.445 C78.512,57.574 77.936,57.766 77.232,57.871 C76.528,57.977 75.952,58.172 75.952,58.305 C75.952,58.439 75.44,58.634 74.814,58.74 C74.188,58.845 73.676,59.034 73.676,59.16 C73.676,59.285 73.228,59.472 72.68,59.574 C72.132,59.677 71.684,59.872 71.684,60.008 C71.684,60.143 71.172,60.341 70.546,60.447 C69.92,60.552 69.408,60.741 69.408,60.867 C69.408,60.992 68.96,61.179 68.413,61.281 C67.865,61.384 67.417,61.58 67.417,61.717 C67.417,61.854 67.033,62.051 66.563,62.154 C66.094,62.257 65.71,62.449 65.71,62.58 C65.71,62.712 65.326,62.904 64.856,63.007 C64.387,63.11 64.003,63.302 64.003,63.434 C64.003,63.565 63.619,63.757 63.149,63.861 C62.68,63.964 62.296,64.156 62.296,64.287 C62.296,64.419 61.912,64.611 61.442,64.714 C60.973,64.817 60.589,65.009 60.589,65.141 C60.589,65.272 60.205,65.464 59.735,65.568 C59.266,65.671 58.882,65.87 58.882,66.011 C58.882,66.153 58.562,66.348 58.171,66.446 C57.78,66.545 57.459,66.711 57.459,66.816 C57.459,66.921 57.107,67.159 56.677,67.344 C55.837,67.705 54.846,68.303 54.615,68.588 C54.536,68.684 54.184,68.852 53.832,68.962 C53.48,69.072 53.192,69.281 53.192,69.427 C53.192,69.573 52.996,69.693 52.756,69.693 C52.517,69.693 52.251,69.873 52.167,70.094 C52.082,70.314 51.702,70.573 51.322,70.668 C50.942,70.764 50.632,70.967 50.632,71.121 C50.632,71.274 50.436,71.4 50.196,71.4 C49.956,71.4 49.687,71.592 49.596,71.826 C49.506,72.061 49.253,72.253 49.034,72.253 C48.814,72.253 48.415,72.509 48.147,72.822 C47.879,73.135 47.543,73.391 47.4,73.391 C47.258,73.391 46.858,73.696 46.512,74.069 C46.167,74.442 45.62,74.831 45.297,74.933 C44.974,75.036 44.638,75.307 44.55,75.536 C44.462,75.764 44.249,75.952 44.075,75.952 C43.902,75.952 43.376,76.336 42.906,76.805 C42.437,77.275 41.863,77.659 41.631,77.659 C41.399,77.659 41.289,77.787 41.385,77.943 C41.482,78.1 41.432,78.228 41.274,78.228 C41.116,78.228 40.551,78.676 40.019,79.223 C39.487,79.771 38.958,80.219 38.844,80.219 C38.572,80.219 28.441,90.35 28.441,90.622 C28.441,90.737 27.993,91.265 27.445,91.797 C26.898,92.329 26.444,92.918 26.437,93.106 C26.431,93.294 26.047,93.762 25.584,94.146 C25.121,94.53 24.743,94.956 24.743,95.092 C24.743,95.229 24.358,95.725 23.889,96.195 C23.42,96.664 23.036,97.23 23.036,97.453 C23.036,97.676 22.904,97.858 22.742,97.858 C22.581,97.858 22.366,98.082 22.265,98.356 C22.165,98.629 21.8,99.122 21.454,99.449 C21.109,99.777 20.739,100.321 20.631,100.658 C20.524,100.996 20.317,101.272 20.171,101.272 C20.026,101.272 19.906,101.468 19.906,101.707 C19.906,101.947 19.726,102.212 19.505,102.297 C19.284,102.382 19.026,102.762 18.931,103.141 C18.835,103.521 18.632,103.832 18.478,103.832 C18.325,103.832 18.199,104.028 18.199,104.268 C18.199,104.507 18.015,104.774 17.79,104.861 C17.565,104.947 17.298,105.391 17.198,105.847 C17.098,106.304 16.907,106.677 16.773,106.677 C16.64,106.677 16.441,106.965 16.331,107.317 C16.221,107.669 16.052,108.021 15.956,108.1 C15.672,108.331 15.074,109.322 14.713,110.162 C14.527,110.592 14.29,110.945 14.185,110.945 C14.079,110.945 13.905,111.295 13.798,111.724 C13.69,112.153 13.516,112.569 13.411,112.649 C13.057,112.92 11.94,115.179 11.94,115.624 C11.94,115.867 11.822,116.065 11.678,116.065 C11.534,116.065 11.332,116.45 11.229,116.919 C11.126,117.388 10.934,117.772 10.802,117.772 C10.671,117.772 10.479,118.156 10.376,118.626 C10.272,119.095 10.072,119.479 9.93,119.479 C9.787,119.479 9.589,119.991 9.489,120.617 C9.389,121.243 9.201,121.755 9.072,121.755 C8.942,121.755 8.753,122.203 8.65,122.751 C8.547,123.299 8.351,123.747 8.214,123.747 C8.076,123.747 7.882,124.259 7.782,124.885 C7.682,125.511 7.5,126.023 7.377,126.023 C7.254,126.023 7.063,126.567 6.952,127.232 C6.841,127.897 6.628,128.519 6.478,128.613 C6.329,128.708 6.136,129.316 6.049,129.965 C5.962,130.613 5.788,131.144 5.661,131.144 C5.535,131.144 5.345,131.72 5.24,132.424 C5.134,133.128 4.951,133.704 4.832,133.704 C4.714,133.704 4.532,134.339 4.43,135.115 C4.327,135.891 4.128,136.596 3.988,136.683 C3.849,136.769 3.646,137.67 3.537,138.686 C3.428,139.701 3.236,140.532 3.11,140.532 C2.985,140.532 2.793,141.364 2.684,142.381 C2.575,143.398 2.388,144.23 2.268,144.23 C2.148,144.23 1.958,145.351 1.846,146.72 C1.733,148.089 1.543,149.337 1.424,149.494 C1.305,149.65 1.2,149.97 1.191,150.205 C1.05,153.903 0.704,157.94 0.516,158.056 C0.384,158.138 0.276,161.725 0.276,166.028 C0.276,170.331 0.385,173.784 0.519,173.702 C0.652,173.619 0.851,175.369 0.961,177.59 C1.071,179.81 1.263,181.695 1.387,181.777 C1.512,181.859 1.702,183.01 1.81,184.335 C1.918,185.66 2.112,186.812 2.241,186.895 C2.371,186.979 2.567,187.91 2.679,188.964 C2.79,190.019 2.986,190.947 3.115,191.026 C3.244,191.106 3.439,191.939 3.548,192.879 C3.657,193.818 3.846,194.586 3.97,194.586 C4.093,194.586 4.281,195.29 4.389,196.151 C4.496,197.011 4.689,197.716 4.816,197.716 C4.943,197.716 5.134,198.289 5.239,198.989 C5.344,199.69 5.55,200.337 5.698,200.428 C5.845,200.519 5.967,200.875 5.968,201.217 C5.969,201.56 6.148,202.182 6.365,202.6 C6.583,203.017 6.85,203.881 6.958,204.52 C7.066,205.159 7.26,205.681 7.391,205.681 C7.631,205.681 8.117,207.333 8.004,207.765 C7.971,207.894 8.074,207.919 8.235,207.819 C8.395,207.72 8.531,207.871 8.536,208.154 C8.541,208.437 8.793,209.181 9.095,209.807 C9.398,210.432 9.649,211.169 9.655,211.442 C9.66,211.716 9.787,211.94 9.936,211.94 C10.085,211.94 10.292,212.388 10.394,212.936 C10.497,213.484 10.685,213.932 10.811,213.932 C10.938,213.932 11.126,214.317 11.23,214.788 C11.333,215.258 11.521,215.58 11.648,215.501 C11.774,215.423 11.962,215.81 12.066,216.36 C12.169,216.911 12.361,217.295 12.492,217.214 C12.624,217.133 12.813,217.504 12.914,218.039 C13.014,218.574 13.188,219.053 13.301,219.103 C13.413,219.154 13.825,219.835 14.216,220.617 C14.607,221.4 14.991,222.104 15.07,222.182 C15.148,222.26 15.372,222.612 15.568,222.964 C16.46,224.572 16.657,224.887 16.99,225.25 C17.186,225.463 17.346,225.82 17.346,226.043 C17.346,226.267 17.474,226.45 17.63,226.45 C17.787,226.45 17.915,226.646 17.915,226.885 C17.915,227.125 18.095,227.39 18.316,227.475 C18.536,227.559 18.795,227.939 18.89,228.319 C18.985,228.699 19.189,229.01 19.343,229.01 C19.496,229.01 19.622,229.206 19.622,229.446 C19.622,229.685 19.809,229.953 20.038,230.041 C20.266,230.129 20.538,230.467 20.641,230.792 C20.745,231.118 20.944,231.522 21.084,231.691 C22.285,233.133 22.574,233.517 22.98,234.202 C23.234,234.632 23.543,234.984 23.666,234.984 C23.789,234.984 23.889,235.15 23.889,235.353 C23.889,235.556 24.268,236.036 24.73,236.42 C25.193,236.804 25.577,237.272 25.584,237.46 C25.591,237.648 26.044,238.237 26.592,238.769 C27.139,239.301 27.587,239.833 27.587,239.951 C27.587,240.07 28.292,240.86 29.152,241.707 C30.013,242.554 30.717,243.362 30.717,243.503 C30.717,243.844 32.394,245.511 32.736,245.511 C32.884,245.511 33.15,245.828 33.327,246.216 C33.504,246.605 33.887,246.998 34.178,247.09 C34.47,247.183 34.64,247.368 34.558,247.502 C34.475,247.636 34.667,247.828 34.984,247.929 C35.302,248.03 35.494,248.222 35.411,248.356 C35.328,248.49 35.52,248.682 35.838,248.782 C36.155,248.883 36.342,249.084 36.252,249.23 C36.162,249.375 36.278,249.494 36.51,249.494 C36.741,249.494 37.541,250.102 38.286,250.845 C39.031,251.588 39.746,252.164 39.873,252.125 C40.001,252.086 40.105,252.246 40.105,252.481 C40.105,252.716 40.301,252.908 40.541,252.908 C40.781,252.908 41.048,253.095 41.136,253.323 C41.224,253.552 41.542,253.817 41.843,253.913 C42.143,254.008 42.322,254.196 42.239,254.33 C42.156,254.464 42.366,254.662 42.706,254.77 C43.046,254.877 43.606,255.271 43.952,255.644 C44.297,256.016 44.73,256.321 44.912,256.321 C45.095,256.321 45.316,256.509 45.404,256.737 C45.491,256.966 45.827,257.237 46.15,257.34 C46.473,257.442 47.006,257.809 47.333,258.154 C47.661,258.499 48.153,258.865 48.427,258.965 C48.701,259.066 48.925,259.267 48.925,259.411 C48.925,259.556 49.245,259.754 49.636,259.852 C50.027,259.95 50.347,260.156 50.347,260.31 C50.347,260.463 50.543,260.589 50.783,260.589 C51.022,260.589 51.288,260.769 51.372,260.99 C51.457,261.211 51.837,261.469 52.217,261.564 C52.597,261.66 52.908,261.863 52.908,262.017 C52.908,262.17 53.08,262.296 53.291,262.296 C53.502,262.296 53.969,262.552 54.33,262.865 C54.691,263.178 55.159,263.434 55.369,263.434 C55.58,263.434 55.752,263.553 55.752,263.699 C55.752,263.845 56.041,264.054 56.393,264.164 C56.745,264.274 57.097,264.443 57.175,264.539 C57.399,264.814 58.972,265.728 59.522,265.903 C59.796,265.99 60.02,266.164 60.02,266.289 C60.02,266.415 60.404,266.602 60.873,266.706 C61.343,266.809 61.727,267.001 61.727,267.132 C61.727,267.264 62.111,267.456 62.58,267.559 C63.05,267.662 63.434,267.85 63.434,267.978 C63.434,268.105 63.785,268.297 64.213,268.404 C64.642,268.512 65.061,268.71 65.144,268.844 C65.227,268.979 65.66,269.155 66.106,269.236 C66.553,269.317 67.136,269.581 67.403,269.822 C67.67,270.064 68.166,270.262 68.506,270.262 C68.846,270.262 69.124,270.38 69.124,270.524 C69.124,270.668 69.508,270.87 69.977,270.973 C70.447,271.076 70.831,271.278 70.831,271.422 C70.831,271.566 71.055,271.685 71.329,271.686 C71.602,271.687 72.184,271.874 72.621,272.102 C73.058,272.33 73.859,272.6 74.402,272.702 C74.945,272.803 75.452,272.989 75.53,273.114 C75.607,273.239 76.182,273.428 76.808,273.534 C77.434,273.64 77.871,273.846 77.781,273.992 C77.69,274.139 77.722,274.23 77.851,274.194 C78.232,274.089 80.337,274.56 80.653,274.821 C80.938,275.056 82.128,275.313 83.152,275.359 C83.435,275.372 83.596,275.496 83.511,275.635 C83.425,275.773 84.058,275.975 84.916,276.082 C85.775,276.189 86.478,276.375 86.478,276.494 C86.478,276.613 86.638,276.715 86.834,276.72 C87.941,276.75 90.339,277.178 90.461,277.368 C90.539,277.49 91.499,277.681 92.593,277.792 C93.688,277.902 94.651,278.102 94.733,278.235 C94.815,278.368 96.192,278.567 97.793,278.677 C99.393,278.788 100.703,278.97 100.703,279.082 C100.703,279.613 127.122,279.698 127.774,279.17 C128.101,278.905 133.156,278.307 133.775,278.459 C133.893,278.488 133.989,278.395 133.989,278.252 C133.989,278.109 134.949,277.902 136.122,277.792 C137.296,277.682 138.256,277.494 138.256,277.374 C138.256,277.254 139.088,277.067 140.105,276.958 C141.122,276.849 141.954,276.657 141.954,276.531 C141.954,276.405 142.659,276.214 143.519,276.106 C144.38,275.999 145.084,275.808 145.084,275.683 C145.084,275.558 145.724,275.371 146.506,275.267 C147.289,275.163 147.929,274.969 147.929,274.836 C147.929,274.703 148.505,274.507 149.209,274.402 C149.913,274.296 150.489,274.104 150.489,273.975 C150.489,273.846 151.065,273.654 151.77,273.548 C152.474,273.443 153.05,273.253 153.05,273.126 C153.05,272.999 153.562,272.813 154.188,272.713 C154.814,272.613 155.326,272.412 155.326,272.267 C155.326,272.122 155.902,271.917 156.606,271.812 C157.31,271.706 157.886,271.516 157.886,271.39 C157.886,271.264 158.27,271.076 158.74,270.973 C159.209,270.87 159.593,270.682 159.593,270.555 C159.593,270.429 160.041,270.241 160.589,270.138 C161.137,270.036 161.585,269.839 161.585,269.702 C161.585,269.566 161.969,269.369 162.438,269.266 C162.908,269.163 163.292,268.971 163.292,268.839 C163.292,268.708 163.676,268.516 164.145,268.413 C164.615,268.309 164.999,268.117 164.999,267.986 C164.999,267.854 165.383,267.662 165.852,267.559 C166.321,267.456 166.706,267.264 166.706,267.132 C166.706,267.001 167.09,266.809 167.559,266.706 C168.028,266.602 168.413,266.414 168.413,266.287 C168.413,266.16 168.733,265.976 169.124,265.877 C169.515,265.779 169.835,265.584 169.835,265.443 C169.835,265.301 170.219,265.102 170.688,264.999 C171.158,264.895 171.542,264.693 171.542,264.549 C171.542,264.405 171.738,264.287 171.978,264.287 C172.217,264.287 172.484,264.103 172.57,263.878 C172.657,263.653 173.101,263.387 173.557,263.286 C174.014,263.186 174.387,262.989 174.387,262.848 C174.387,262.707 174.698,262.513 175.078,262.418 C175.457,262.323 175.837,262.064 175.922,261.843 C176.007,261.623 176.272,261.442 176.512,261.442 C176.751,261.442 176.947,261.317 176.947,261.163 C176.947,261.01 177.258,260.806 177.638,260.711 C178.018,260.616 178.398,260.357 178.483,260.136 C178.567,259.916 178.833,259.735 179.072,259.735 C179.312,259.735 179.508,259.616 179.508,259.47 C179.508,259.324 179.784,259.117 180.121,259.01 C180.459,258.903 181.017,258.51 181.363,258.137 C181.709,257.765 182.141,257.459 182.323,257.459 C182.506,257.459 182.727,257.272 182.815,257.044 C182.903,256.815 183.245,256.542 183.576,256.437 C183.907,256.332 184.5,255.879 184.893,255.43 C185.287,254.982 185.723,254.615 185.863,254.615 C186.003,254.615 186.615,254.102 187.222,253.477 C187.83,252.851 188.444,252.339 188.589,252.339 C188.733,252.339 189.619,251.57 190.558,250.632 C191.496,249.693 192.333,248.925 192.417,248.925 C192.502,248.925 193.632,247.838 194.93,246.51 C197.053,244.336 198.178,243.138 201.978,239.004 C202.607,238.32 203.121,237.653 203.121,237.52 C203.121,237.388 203.473,236.898 203.903,236.431 C204.334,235.963 205.07,235.059 205.539,234.421 C206.009,233.784 206.553,233.083 206.748,232.863 C206.944,232.644 207.104,232.347 207.104,232.204 C207.104,232.06 207.36,231.711 207.673,231.428 C207.986,231.145 208.242,230.741 208.242,230.531 C208.242,230.32 208.373,230.148 208.533,230.148 C208.694,230.148 208.949,229.86 209.102,229.508 C209.403,228.81 209.998,227.813 210.248,227.587 C210.335,227.509 210.712,226.933 211.087,226.307 C211.461,225.681 211.861,225.104 211.974,225.024 C212.087,224.944 212.268,224.528 212.375,224.1 C212.483,223.671 212.681,223.32 212.816,223.32 C212.951,223.32 213.391,222.648 213.793,221.826 C214.628,220.121 215.128,219.259 215.403,219.05 C215.508,218.97 215.682,218.554 215.789,218.125 C215.897,217.696 216.089,217.346 216.216,217.346 C216.343,217.346 216.531,216.962 216.634,216.492 C216.738,216.023 216.94,215.639 217.084,215.639 C217.228,215.639 217.346,215.504 217.346,215.339 C217.346,215.174 217.597,214.487 217.904,213.814 C218.21,213.14 218.535,212.169 218.626,211.656 C218.716,211.142 219.041,210.171 219.348,209.498 C219.655,208.824 219.906,208.1 219.906,207.888 C219.906,207.676 220.014,207.381 220.146,207.232 C220.279,207.083 220.675,206.129 221.028,205.112 C221.38,204.095 221.771,203.007 221.895,202.694 C222.02,202.381 222.315,201.549 222.552,200.845 C222.944,199.678 223.257,198.614 224.312,194.871 C224.51,194.166 224.823,193.078 225.006,192.452 C225.343,191.3 225.567,190.134 226.29,185.767 C226.51,184.437 226.763,183.156 226.852,182.922 C227.143,182.152 227.938,172.067 228.073,167.417 C228.217,162.452 227.669,153.947 226.89,149.067 C226.827,148.676 226.635,147.398 226.462,146.227 C226.29,145.057 226.03,143.648 225.885,143.098 C225.74,142.547 225.411,141.137 225.154,139.963 C224.167,135.464 221.502,126.942 220.038,123.605 C219.049,121.349 218.768,120.658 218.768,120.477 C218.768,119.536 212.429,107.837 209.44,103.263 C204.184,95.216 191.878,81.562 186.31,77.597 C185.933,77.328 184.389,76.176 182.878,75.037 C181.368,73.897 178.999,72.173 177.615,71.206 C176.231,70.239 174.838,69.215 174.521,68.93 C174.203,68.645 173.307,68.092 172.529,67.701 C171.752,67.31 171.05,66.904 170.97,66.799 C170.89,66.694 170.484,66.523 170.066,66.418 C169.649,66.313 169.235,66.039 169.146,65.808 C169.058,65.578 168.856,65.469 168.697,65.568 C168.538,65.666 168.335,65.554 168.244,65.318 C168.154,65.083 167.707,64.809 167.251,64.709 C166.794,64.609 166.421,64.419 166.421,64.287 C166.421,64.156 166.037,63.964 165.568,63.861 C165.098,63.757 164.714,63.569 164.714,63.442 C164.714,63.315 164.363,63.123 163.935,63.015 C163.506,62.908 163.086,62.709 163.003,62.573 C162.919,62.437 162.406,62.248 161.864,62.153 C161.322,62.057 160.775,61.794 160.648,61.568 C160.522,61.343 160.105,61.158 159.721,61.158 C159.338,61.158 159.024,61.03 159.024,60.873 C159.024,60.717 158.864,60.585 158.669,60.579 C158.473,60.574 157.801,60.322 157.175,60.02 C156.549,59.718 155.76,59.466 155.421,59.461 C155.082,59.455 154.759,59.315 154.703,59.148 C154.648,58.982 154.061,58.773 153.399,58.684 C152.738,58.595 152.196,58.417 152.196,58.288 C152.196,58.16 151.748,57.97 151.201,57.867 C150.653,57.765 150.205,57.584 150.205,57.466 C150.205,57.349 149.655,57.177 148.983,57.085 C148.311,56.993 147.383,56.72 146.92,56.479 C146.458,56.238 145.728,56.04 145.297,56.039 C144.867,56.038 144.515,55.919 144.515,55.775 C144.515,55.631 143.684,55.424 142.669,55.316 C141.654,55.207 140.882,55.023 140.954,54.906 C141.027,54.789 140.296,54.611 139.331,54.511 C138.366,54.41 137.505,54.219 137.418,54.086 C137.331,53.953 136.239,53.754 134.99,53.643 C133.742,53.532 132.653,53.335 132.572,53.205 C132.491,53.076 131.016,52.877 129.294,52.763 C127.573,52.649 126.015,52.436 125.831,52.288 C125.48,52.007 110.199,51.759 105.555,51.961 M122.893,64.142 C129.643,64.712 137.293,66.04 141.812,67.427 C173.917,77.28 197.481,98.552 209.201,128.262 C211.497,134.083 212.507,137.434 214.226,144.942 C216.436,154.598 216.907,169.31 215.346,179.935 C214.881,183.098 214.501,185.334 214.232,186.478 C213.228,190.757 212.686,192.92 212.306,194.159 C203.925,221.504 187.474,241.789 162.296,255.823 C161.262,256.399 156.21,258.882 156.071,258.882 C155.996,258.882 155.125,259.249 154.136,259.698 C149.064,262.002 141.307,264.419 134.842,265.712 C88.368,275.007 42.6,252.164 22.133,209.459 C21.064,207.23 20.191,205.328 20.191,205.231 C20.191,205.135 20.017,204.653 19.804,204.16 C16.626,196.793 14.247,187.511 13.048,177.801 C12.224,171.125 12.23,160.444 13.061,153.903 C13.862,147.598 14.274,145.389 15.742,139.529 C16.282,137.374 19.309,128.254 19.611,127.872 C19.735,127.716 19.931,127.267 20.047,126.876 C20.437,125.557 24.07,118.19 25.877,115.053 C33.922,101.084 45.513,88.803 58.597,80.383 C59.771,79.628 61.078,78.77 61.502,78.477 C61.926,78.183 62.345,77.943 62.432,77.943 C62.52,77.943 63.133,77.601 63.795,77.183 C65.951,75.822 73.924,71.941 76.633,70.934 C93.042,64.835 106.935,62.795 122.893,64.142 M105.681,68.836 C102.575,69.096 97.281,69.862 95.724,70.278 C95.098,70.445 94.394,70.59 94.159,70.601 C93.515,70.632 86.319,72.5 85.417,72.871 C84.983,73.05 84.501,73.209 84.344,73.226 C83.875,73.276 80.973,74.297 80.361,74.628 C80.048,74.797 79.728,74.946 79.65,74.958 C79.168,75.033 77.097,75.814 76.378,76.191 C75.909,76.437 75.461,76.655 75.383,76.675 C73.605,77.122 63.345,82.633 62.833,83.415 C62.737,83.562 62.545,83.689 62.406,83.699 C62.07,83.721 59.954,85.031 59.59,85.442 C59.431,85.621 58.967,85.959 58.558,86.193 C57.742,86.663 57.309,86.988 53.086,90.307 C21.277,115.305 8.267,163.217 23.341,199.849 C23.534,200.319 23.726,200.831 23.767,200.987 C23.916,201.547 25.381,204.986 25.828,205.824 C26.078,206.293 26.292,206.741 26.303,206.819 C26.351,207.159 27.917,210.372 28.101,210.509 C28.213,210.592 28.613,211.332 28.99,212.154 C29.368,212.975 29.782,213.647 29.912,213.647 C30.042,213.647 30.126,213.743 30.098,213.861 C30.019,214.203 30.785,215.639 31.047,215.639 C31.178,215.639 31.286,215.831 31.286,216.065 C31.286,216.3 31.421,216.492 31.587,216.492 C31.753,216.492 31.809,216.62 31.713,216.777 C31.616,216.933 31.672,217.061 31.838,217.061 C32.004,217.061 32.139,217.253 32.139,217.488 C32.139,217.723 32.267,217.915 32.424,217.915 C32.58,217.915 32.709,218.075 32.709,218.27 C32.709,218.466 33.037,219.007 33.437,219.472 C33.837,219.938 34.357,220.724 34.592,221.219 C34.827,221.713 35.391,222.549 35.846,223.075 C36.301,223.601 36.806,224.186 36.967,224.375 C37.128,224.564 37.26,224.809 37.26,224.92 C37.26,225.031 37.449,225.324 37.679,225.572 C38.255,226.192 39.51,227.644 40.532,228.874 C41.001,229.438 42.026,230.582 42.808,231.416 C43.59,232.25 44.806,233.586 45.509,234.385 C46.212,235.184 46.929,235.838 47.102,235.838 C47.276,235.838 48.138,236.574 49.017,237.474 C49.896,238.373 51.075,239.494 51.636,239.963 C52.198,240.432 52.905,241.041 53.209,241.314 C53.513,241.588 53.863,241.812 53.988,241.812 C54.113,241.812 54.657,242.256 55.197,242.799 C55.737,243.342 56.343,243.79 56.544,243.795 C56.744,243.8 56.982,243.996 57.072,244.23 C57.162,244.465 57.414,244.657 57.632,244.657 C57.85,244.657 58.028,244.785 58.028,244.942 C58.028,245.098 58.19,245.226 58.387,245.226 C58.584,245.226 59.091,245.546 59.513,245.937 C59.934,246.329 60.395,246.649 60.536,246.649 C60.676,246.649 61.378,247.097 62.096,247.644 C62.813,248.192 63.535,248.64 63.701,248.64 C63.867,248.64 64.004,248.736 64.004,248.853 C64.005,248.971 64.902,249.508 65.996,250.047 C67.09,250.587 67.986,251.138 67.986,251.273 C67.986,251.408 68.099,251.448 68.238,251.363 C68.377,251.277 68.648,251.397 68.842,251.63 C69.035,251.863 69.31,252.054 69.451,252.054 C69.593,252.054 71.146,252.743 72.902,253.584 C92.703,263.076 115.769,265.419 137.403,260.137 C160.25,254.559 181.54,239.825 194.304,220.76 C194.985,219.743 195.647,218.868 195.775,218.816 C195.904,218.763 196.009,218.613 196.009,218.482 C196.009,218.155 199.795,211.821 200.062,211.703 C200.18,211.651 200.276,211.372 200.276,211.083 C200.276,210.795 200.446,210.388 200.655,210.18 C200.863,209.971 201.122,209.45 201.229,209.021 C201.337,208.593 201.55,208.242 201.704,208.242 C201.857,208.242 201.983,208.028 201.983,207.767 C201.983,207.506 202.386,206.578 202.879,205.704 C203.372,204.831 203.744,204.117 203.706,204.117 C203.668,204.117 203.767,203.797 203.925,203.405 C204.477,202.039 204.633,201.555 204.589,201.343 C204.564,201.225 204.693,201.129 204.875,201.129 C205.058,201.129 205.123,201.045 205.02,200.942 C204.917,200.839 204.945,200.615 205.082,200.444 C205.293,200.181 206.826,196.147 206.875,195.724 C206.896,195.543 207.089,194.924 207.406,194.017 C207.959,192.435 209.344,186.565 209.89,183.491 C212.332,169.747 211.786,154.473 208.379,141.22 C198.615,103.238 165.667,74.221 126.734,69.318 C121.885,68.707 110.372,68.444 105.681,68.836 M152.395,99.084 C154.178,100.21 158.656,104.567 174.269,120.371 C182.803,129.01 183.469,130.153 182.359,134.255 C182,135.584 175.547,142.582 174.323,142.97 C173.053,143.374 171.952,142.377 155.313,125.754 C138.315,108.772 137.474,107.843 137.953,106.584 C138.271,105.747 143.987,100.01 145.375,99.134 C147.33,97.899 150.483,97.877 152.395,99.084 M171.939,103.697 C176.682,104.452 179.74,111.505 177.271,115.994 C176.402,117.573 177.047,118.009 170.335,111.303 C163.822,104.795 163.951,104.988 165.595,104.246 C167.569,103.356 169.011,103.232 171.939,103.697 M130.432,107.637 C132.403,108.566 172.2,148.308 173.236,150.382 C175.109,154.132 174.113,156.813 168.887,162.083 C163.351,167.665 167.398,170.391 138.894,141.879 C113.39,116.369 114.345,117.427 115.252,115.691 C115.955,114.348 122.397,108.324 123.859,107.643 C125.853,106.715 128.47,106.713 130.432,107.637 M135.981,145.227 L141.809,151.061 L121.115,171.755 L100.421,192.449 L94.587,186.621 C91.379,183.416 88.754,180.664 88.754,180.507 C88.754,180.132 129.49,139.394 129.865,139.394 C130.024,139.394 132.776,142.019 135.981,145.227 M91.506,189.252 C116.507,214.269 115.36,212.987 114.876,215.354 C114.564,216.881 107.92,223.331 105.986,223.984 C102.622,225.121 100.199,224.421 96.942,221.37 C88.473,213.438 57.951,182.375 57.272,180.997 C55.442,177.279 56.436,174.337 61.112,169.638 C64.739,165.993 64.947,165.852 66.694,165.852 L68.121,165.852 L91.506,189.252 M57.824,188.722 C58.354,188.951 65.843,196.242 75.596,206.025 L92.452,222.931 L92.452,224.128 C92.452,225.54 86.182,232.243 84.467,232.666 C84.243,232.722 83.474,232.921 82.758,233.11 C82.042,233.298 81.146,233.365 80.767,233.257 C77.337,232.286 78.362,233.178 63.264,218.034 C54.585,209.328 48.817,203.326 48.512,202.683 C47.848,201.285 47.641,198.73 48.065,197.165 C48.449,195.742 54.985,188.75 56.141,188.524 C56.475,188.458 56.784,188.387 56.828,188.366 C56.873,188.345 57.321,188.505 57.824,188.722 M60.997,220.741 C67.641,227.391 67.493,227.092 64.677,228.146 C57.957,230.66 50.683,223.878 53.323,217.559 C53.552,217.012 53.658,216.484 53.56,216.386 C53.462,216.288 53.531,216.208 53.714,216.208 C53.896,216.208 54.046,216.041 54.046,215.838 C54.046,215.466 54.59,214.785 54.887,214.785 C54.975,214.785 57.724,217.465 60.997,220.741" id="path2"></path>
        </g>
    </g>
</svg>
