
<svg width="400px" height="400px" viewBox="0 0 400 400" version="1.1" xmlns="http://www.w3.org/2000/svg" xmlns:xlink="http://www.w3.org/1999/xlink">
    <!-- Generator: Sketch 51 (57462) - http://www.bohemiancoding.com/sketch -->
    <desc>Created with Sketch.</desc>
    <defs></defs>
    <g id="Page-1" stroke="none" stroke-width="1" fill="none" fill-rule="evenodd">
        <g id="strength">
            <path d="M184.1,0.268 C181.312,0.357 179.2,0.592 179.2,0.812 C179.2,1.028 177.87,1.2 176.2,1.2 C174.467,1.2 173.2,1.369 173.2,1.6 C173.2,1.829 172,2 170.4,2 C168.8,2 167.6,2.171 167.6,2.4 C167.6,2.62 166.61,2.8 165.4,2.8 C164.19,2.8 163.2,2.961 163.2,3.158 C163.2,3.354 161.579,3.643 159.597,3.8 C157.616,3.957 155.895,4.246 155.774,4.443 C155.652,4.639 154.933,4.8 154.176,4.8 C153.419,4.8 152.8,4.98 152.8,5.2 C152.8,5.42 152.08,5.6 151.2,5.6 C150.32,5.6 149.6,5.78 149.6,6 C149.6,6.22 148.97,6.4 148.2,6.4 C147.43,6.4 146.8,6.58 146.8,6.8 C146.8,7.02 146.26,7.2 145.6,7.2 C144.94,7.2 144.4,7.38 144.4,7.6 C144.4,7.82 143.77,8 143,8 C142.23,8 141.6,8.18 141.6,8.4 C141.6,8.62 141.06,8.8 140.4,8.8 C139.74,8.8 139.2,8.967 139.2,9.171 C139.2,9.375 138.21,9.666 137,9.817 C135.79,9.968 134.8,10.251 134.8,10.446 C134.8,10.641 134.26,10.8 133.6,10.8 C132.94,10.8 132.4,10.98 132.4,11.2 C132.4,11.42 131.95,11.6 131.4,11.6 C130.85,11.6 130.4,11.78 130.4,12 C130.4,12.22 130.04,12.4 129.6,12.4 C129.16,12.4 128.8,12.58 128.8,12.8 C128.8,13.02 128.26,13.2 127.6,13.2 C126.94,13.2 126.4,13.38 126.4,13.6 C126.4,13.82 126.13,14 125.8,14 C125.47,14 125.2,14.18 125.2,14.4 C125.2,14.62 124.66,14.8 124,14.8 C123.34,14.8 122.8,14.964 122.8,15.165 C122.8,15.366 122.081,15.651 121.202,15.8 C120.323,15.948 119.503,16.234 119.378,16.435 C119.254,16.636 118.803,16.8 118.376,16.8 C117.949,16.8 117.6,16.98 117.6,17.2 C117.6,17.42 117.24,17.6 116.8,17.6 C116.36,17.6 116,17.78 116,18 C116,18.22 115.64,18.4 115.2,18.4 C114.76,18.4 114.4,18.58 114.4,18.8 C114.4,19.02 114.04,19.2 113.6,19.2 C113.16,19.2 112.8,19.38 112.8,19.6 C112.8,19.82 112.53,20 112.2,20 C111.87,20 111.6,20.18 111.6,20.4 C111.6,20.62 111.24,20.8 110.8,20.8 C110.36,20.8 110,20.98 110,21.2 C110,21.42 109.731,21.6 109.403,21.6 C108.569,21.6 105.6,22.923 105.6,23.294 C105.6,23.462 105.24,23.6 104.8,23.6 C104.36,23.6 104,23.78 104,24 C104,24.22 103.68,24.4 103.288,24.4 C102.897,24.4 102.317,24.76 102,25.2 C101.683,25.64 101.193,26 100.912,26 C100.63,26 100.4,26.18 100.4,26.4 C100.4,26.62 100.04,26.8 99.6,26.8 C99.16,26.8 98.8,26.98 98.8,27.2 C98.8,27.42 98.453,27.6 98.029,27.6 C97.604,27.6 96.987,27.87 96.657,28.2 C96.327,28.53 95.774,28.8 95.429,28.8 C95.083,28.8 94.8,28.98 94.8,29.2 C94.8,29.42 94.57,29.6 94.288,29.6 C94.007,29.6 93.517,29.96 93.2,30.4 C92.883,30.84 92.343,31.2 92,31.2 C91.657,31.2 91.117,31.56 90.8,32 C90.483,32.44 89.922,32.8 89.554,32.8 C89.187,32.8 88.782,33.07 88.655,33.4 C88.529,33.73 88.099,34 87.701,34 C87.303,34 86.717,34.36 86.4,34.8 C86.083,35.24 85.575,35.6 85.272,35.6 C84.969,35.6 84.217,36.14 83.6,36.8 C82.983,37.46 82.363,38 82.221,38 C82.08,38 81.514,38.45 80.964,39 C80.414,39.55 79.684,40 79.342,40 C79.001,40 78.217,40.54 77.6,41.2 C76.983,41.86 76.357,42.4 76.208,42.4 C76.059,42.4 75.246,43.12 74.4,44 C73.554,44.88 72.649,45.6 72.388,45.6 C72.127,45.6 70.955,46.59 69.783,47.8 C68.611,49.01 67.463,50 67.231,50 C66.68,50 49.2,67.479 49.2,68.031 C49.2,68.264 48.39,69.231 47.4,70.179 C46.41,71.128 45.6,72.12 45.6,72.383 C45.6,72.647 44.88,73.554 44,74.4 C43.12,75.246 42.4,76.047 42.4,76.182 C42.4,76.317 41.77,77.057 41,77.827 C40.23,78.597 39.6,79.541 39.6,79.925 C39.6,80.309 39.24,80.883 38.8,81.2 C38.36,81.517 38,81.935 38,82.128 C38,82.321 37.46,82.983 36.8,83.6 C36.14,84.217 35.6,84.969 35.6,85.272 C35.6,85.575 35.24,86.083 34.8,86.4 C34.36,86.717 34,87.303 34,87.701 C34,88.099 33.73,88.529 33.4,88.655 C33.07,88.782 32.8,89.187 32.8,89.554 C32.8,89.922 32.44,90.483 32,90.8 C31.56,91.117 31.2,91.657 31.2,92 C31.2,92.343 30.84,92.883 30.4,93.2 C29.96,93.517 29.6,94.007 29.6,94.288 C29.6,94.57 29.42,94.8 29.2,94.8 C28.98,94.8 28.8,95.083 28.8,95.429 C28.8,95.774 28.53,96.327 28.2,96.657 C27.87,96.987 27.6,97.604 27.6,98.029 C27.6,98.453 27.42,98.8 27.2,98.8 C26.98,98.8 26.8,99.148 26.8,99.573 C26.8,99.998 26.44,100.46 26,100.6 C25.56,100.74 25.2,101.202 25.2,101.627 C25.2,102.052 25.02,102.4 24.8,102.4 C24.58,102.4 24.4,102.76 24.4,103.2 C24.4,103.64 24.22,104 24,104 C23.78,104 23.6,104.36 23.6,104.8 C23.6,105.24 23.457,105.6 23.282,105.6 C23.107,105.6 22.63,106.41 22.222,107.4 C21.813,108.39 21.327,109.2 21.14,109.2 C20.953,109.2 20.8,109.56 20.8,110 C20.8,110.44 20.62,110.8 20.4,110.8 C20.18,110.8 20,111.25 20,111.8 C20,112.35 19.82,112.8 19.6,112.8 C19.38,112.8 19.2,113.16 19.2,113.6 C19.2,114.04 19.02,114.4 18.8,114.4 C18.58,114.4 18.4,114.76 18.4,115.2 C18.4,115.64 18.22,116 18,116 C17.78,116 17.6,116.36 17.6,116.8 C17.6,117.24 17.462,117.6 17.294,117.6 C16.835,117.6 15.6,120.663 15.6,121.803 C15.6,122.351 15.42,122.8 15.2,122.8 C14.98,122.8 14.8,123.16 14.8,123.6 C14.8,124.04 14.62,124.4 14.4,124.4 C14.18,124.4 14,124.85 14,125.4 C14,125.95 13.82,126.4 13.6,126.4 C13.38,126.4 13.2,126.76 13.2,127.2 C13.2,127.64 13.02,128 12.8,128 C12.58,128 12.4,128.54 12.4,129.2 C12.4,129.86 12.22,130.4 12,130.4 C11.78,130.4 11.6,130.85 11.6,131.4 C11.6,131.95 11.42,132.4 11.2,132.4 C10.98,132.4 10.8,132.925 10.8,133.567 C10.8,134.208 10.617,134.794 10.393,134.869 C10.169,134.944 9.874,135.949 9.737,137.102 C9.6,138.256 9.334,139.2 9.144,139.2 C8.955,139.2 8.8,139.74 8.8,140.4 C8.8,141.06 8.62,141.6 8.4,141.6 C8.18,141.6 8,142.05 8,142.6 C8,143.15 7.82,143.6 7.6,143.6 C7.38,143.6 7.2,144.32 7.2,145.2 C7.2,146.08 7.02,146.8 6.8,146.8 C6.58,146.8 6.4,147.34 6.4,148 C6.4,148.66 6.22,149.2 6,149.2 C5.78,149.2 5.6,149.83 5.6,150.6 C5.6,151.37 5.42,152 5.2,152 C4.98,152 4.8,152.799 4.8,153.776 C4.8,154.753 4.632,155.657 4.427,155.783 C4.222,155.91 3.928,157.451 3.775,159.207 C3.622,160.963 3.34,162.4 3.148,162.4 C2.957,162.4 2.8,163.48 2.8,164.8 C2.8,166.133 2.622,167.2 2.4,167.2 C2.18,167.2 2,168.179 2,169.376 C2,170.573 1.82,171.664 1.6,171.8 C1.38,171.936 1.2,173.282 1.2,174.79 C1.2,176.629 1.035,177.588 0.7,177.7 C-0.031,177.944 -0.031,222.056 0.7,222.3 C1.04,222.413 1.2,223.416 1.2,225.433 C1.2,227.144 1.369,228.4 1.6,228.4 C1.826,228.4 2,229.533 2,231 C2,232.467 2.174,233.6 2.4,233.6 C2.62,233.6 2.8,234.5 2.8,235.6 C2.8,236.7 2.961,237.6 3.158,237.6 C3.354,237.6 3.643,239.221 3.8,241.203 C3.957,243.184 4.246,244.905 4.443,245.026 C4.639,245.148 4.8,245.867 4.8,246.624 C4.8,247.381 4.98,248 5.2,248 C5.42,248 5.6,248.72 5.6,249.6 C5.6,250.48 5.78,251.2 6,251.2 C6.22,251.2 6.4,251.83 6.4,252.6 C6.4,253.37 6.58,254 6.8,254 C7.02,254 7.2,254.54 7.2,255.2 C7.2,255.86 7.38,256.4 7.6,256.4 C7.82,256.4 8,257.03 8,257.8 C8,258.57 8.18,259.2 8.4,259.2 C8.62,259.2 8.8,259.74 8.8,260.4 C8.8,261.06 8.967,261.6 9.171,261.6 C9.375,261.6 9.666,262.59 9.817,263.8 C9.968,265.01 10.251,266 10.446,266 C10.641,266 10.8,266.54 10.8,267.2 C10.8,267.86 10.98,268.4 11.2,268.4 C11.42,268.4 11.6,268.85 11.6,269.4 C11.6,269.95 11.78,270.4 12,270.4 C12.22,270.4 12.4,270.76 12.4,271.2 C12.4,271.64 12.58,272 12.8,272 C13.02,272 13.2,272.54 13.2,273.2 C13.2,273.86 13.38,274.4 13.6,274.4 C13.82,274.4 14,274.67 14,275 C14,275.33 14.18,275.6 14.4,275.6 C14.62,275.6 14.8,276.14 14.8,276.8 C14.8,277.46 14.964,278 15.165,278 C15.366,278 15.651,278.72 15.8,279.6 C15.949,280.48 16.234,281.2 16.435,281.2 C16.636,281.2 16.8,281.65 16.8,282.2 C16.8,282.75 16.98,283.2 17.2,283.2 C17.42,283.2 17.6,283.56 17.6,284 C17.6,284.44 17.78,284.8 18,284.8 C18.22,284.8 18.4,285.16 18.4,285.6 C18.4,286.04 18.58,286.4 18.8,286.4 C19.02,286.4 19.2,286.76 19.2,287.2 C19.2,287.64 19.38,288 19.6,288 C19.82,288 20,288.27 20,288.6 C20,288.93 20.18,289.2 20.4,289.2 C20.62,289.2 20.8,289.56 20.8,290 C20.8,290.44 20.98,290.8 21.2,290.8 C21.42,290.8 21.6,291.069 21.6,291.397 C21.6,292.231 22.923,295.2 23.294,295.2 C23.462,295.2 23.6,295.52 23.6,295.912 C23.6,296.303 23.96,296.883 24.4,297.2 C24.84,297.517 25.2,298.097 25.2,298.488 C25.2,298.88 25.38,299.2 25.6,299.2 C25.82,299.2 26,299.47 26,299.8 C26,300.13 26.18,300.4 26.4,300.4 C26.62,300.4 26.8,300.683 26.8,301.029 C26.8,301.374 27.07,301.927 27.4,302.257 C27.73,302.587 28,303.204 28,303.629 C28,304.053 28.18,304.4 28.4,304.4 C28.62,304.4 28.8,304.63 28.8,304.912 C28.8,305.193 29.16,305.683 29.6,306 C30.04,306.317 30.4,306.857 30.4,307.2 C30.4,307.543 30.76,308.083 31.2,308.4 C31.64,308.717 32,309.231 32,309.541 C32,309.852 32.334,310.397 32.743,310.753 C33.151,311.109 33.613,311.805 33.77,312.3 C33.926,312.795 34.222,313.2 34.427,313.2 C34.632,313.2 34.8,313.52 34.8,313.912 C34.8,314.303 35.16,314.883 35.6,315.2 C36.04,315.517 36.4,316.031 36.4,316.341 C36.4,316.93 37.872,318.4 38.461,318.4 C38.648,318.4 38.8,318.683 38.8,319.029 C38.8,319.374 39.025,319.908 39.3,320.215 C40.523,321.579 40.8,321.999 40.8,322.495 C40.8,322.786 41.177,323.288 41.637,323.612 C43.231,324.731 44,325.496 44,325.96 C44,326.217 44.63,327.057 45.4,327.827 C46.17,328.597 46.8,329.404 46.8,329.62 C46.8,329.836 48.15,331.363 49.8,333.013 C51.45,334.663 52.8,336.177 52.8,336.379 C52.8,336.887 63.079,347.2 63.586,347.2 C63.812,347.2 65.342,348.55 66.987,350.2 C68.632,351.85 70.13,353.2 70.317,353.2 C70.504,353.2 71.502,354.01 72.535,355 C73.569,355.99 74.615,356.8 74.86,356.8 C75.357,356.8 76.8,358.333 76.8,358.861 C76.8,359.048 77.078,359.2 77.418,359.2 C77.758,359.2 78.486,359.65 79.036,360.2 C79.586,360.75 80.322,361.2 80.671,361.2 C81.314,361.2 82.8,362.639 82.8,363.261 C82.8,363.448 83.12,363.6 83.512,363.6 C83.903,363.6 84.483,363.96 84.8,364.4 C85.117,364.84 85.631,365.2 85.941,365.2 C86.252,365.2 86.797,365.534 87.153,365.943 C87.509,366.351 88.205,366.813 88.7,366.97 C89.195,367.126 89.6,367.422 89.6,367.627 C89.6,367.832 89.92,368 90.312,368 C90.703,368 91.283,368.36 91.6,368.8 C91.917,369.24 92.457,369.6 92.8,369.6 C93.143,369.6 93.683,369.96 94,370.4 C94.317,370.84 94.807,371.2 95.088,371.2 C95.37,371.2 95.6,371.38 95.6,371.6 C95.6,371.82 95.883,372 96.229,372 C96.574,372 97.127,372.27 97.457,372.6 C97.787,372.93 98.404,373.2 98.829,373.2 C99.253,373.2 99.6,373.38 99.6,373.6 C99.6,373.82 99.83,374 100.112,374 C100.393,374 100.883,374.36 101.2,374.8 C101.517,375.24 102.097,375.6 102.488,375.6 C102.88,375.6 103.2,375.78 103.2,376 C103.2,376.22 103.56,376.4 104,376.4 C104.44,376.4 104.8,376.58 104.8,376.8 C104.8,377.02 105.16,377.2 105.6,377.2 C106.04,377.2 106.4,377.38 106.4,377.6 C106.4,377.82 106.67,378 107,378 C107.33,378 107.6,378.164 107.6,378.365 C107.6,378.566 108.32,378.851 109.2,379 C110.08,379.149 110.8,379.434 110.8,379.635 C110.8,379.836 111.16,380 111.6,380 C112.04,380 112.4,380.18 112.4,380.4 C112.4,380.62 112.67,380.8 113,380.8 C113.33,380.8 113.6,380.98 113.6,381.2 C113.6,381.42 113.96,381.6 114.4,381.6 C114.84,381.6 115.2,381.78 115.2,382 C115.2,382.22 115.56,382.4 116,382.4 C116.44,382.4 116.8,382.58 116.8,382.8 C116.8,383.02 117.16,383.2 117.6,383.2 C118.04,383.2 118.4,383.38 118.4,383.6 C118.4,383.82 118.85,384 119.4,384 C119.95,384 120.4,384.164 120.4,384.365 C120.4,384.566 121.12,384.851 122,385 C122.88,385.149 123.6,385.434 123.6,385.635 C123.6,385.836 124.05,386 124.6,386 C125.15,386 125.6,386.18 125.6,386.4 C125.6,386.62 125.96,386.8 126.4,386.8 C126.84,386.8 127.2,386.98 127.2,387.2 C127.2,387.42 127.74,387.6 128.4,387.6 C129.06,387.6 129.6,387.78 129.6,388 C129.6,388.22 130.05,388.4 130.6,388.4 C131.15,388.4 131.6,388.58 131.6,388.8 C131.6,389.02 131.949,389.2 132.376,389.2 C132.803,389.2 133.264,389.38 133.4,389.6 C133.536,389.82 134.076,390 134.6,390 C135.124,390 135.659,390.172 135.789,390.382 C135.918,390.591 137.099,390.885 138.412,391.033 C139.725,391.182 140.8,391.46 140.8,391.652 C140.8,391.843 141.34,392 142,392 C142.66,392 143.2,392.18 143.2,392.4 C143.2,392.62 143.65,392.8 144.2,392.8 C144.75,392.8 145.2,392.98 145.2,393.2 C145.2,393.42 145.92,393.6 146.8,393.6 C147.68,393.6 148.4,393.78 148.4,394 C148.4,394.22 149.03,394.4 149.8,394.4 C150.57,394.4 151.2,394.58 151.2,394.8 C151.2,395.02 151.92,395.2 152.8,395.2 C153.68,395.2 154.4,395.38 154.4,395.6 C154.4,395.82 155.21,396 156.2,396 C157.19,396 158,396.163 158,396.363 C158,396.562 159.71,396.854 161.8,397.01 C163.89,397.167 165.6,397.454 165.6,397.648 C165.6,397.841 166.59,398 167.8,398 C169.01,398 170,398.18 170,398.4 C170,398.631 171.256,398.8 172.967,398.8 C174.984,398.8 175.987,398.96 176.1,399.3 C176.231,399.693 181.369,399.8 200,399.8 C218.631,399.8 223.769,399.693 223.9,399.3 C224.01,398.969 224.936,398.8 226.633,398.8 C228.078,398.8 229.2,398.625 229.2,398.4 C229.2,398.174 230.333,398 231.8,398 C233.23,398 234.4,397.841 234.4,397.648 C234.4,397.454 236.11,397.167 238.2,397.01 C240.29,396.854 242,396.562 242,396.363 C242,396.163 242.81,396 243.8,396 C244.79,396 245.6,395.82 245.6,395.6 C245.6,395.38 246.32,395.2 247.2,395.2 C248.08,395.2 248.8,395.02 248.8,394.8 C248.8,394.58 249.43,394.4 250.2,394.4 C250.97,394.4 251.6,394.22 251.6,394 C251.6,393.78 252.14,393.6 252.8,393.6 C253.46,393.6 254,393.42 254,393.2 C254,392.98 254.72,392.8 255.6,392.8 C256.48,392.8 257.2,392.62 257.2,392.4 C257.2,392.18 257.65,392 258.2,392 C258.75,392 259.2,391.841 259.2,391.646 C259.2,391.451 260.19,391.168 261.4,391.017 C262.61,390.866 263.6,390.575 263.6,390.371 C263.6,390.167 264.14,390 264.8,390 C265.46,390 266,389.82 266,389.6 C266,389.38 266.54,389.2 267.2,389.2 C267.86,389.2 268.4,389.02 268.4,388.8 C268.4,388.58 268.85,388.4 269.4,388.4 C269.95,388.4 270.4,388.22 270.4,388 C270.4,387.78 270.76,387.6 271.2,387.6 C271.64,387.6 272,387.42 272,387.2 C272,386.98 272.54,386.8 273.2,386.8 C273.86,386.8 274.4,386.62 274.4,386.4 C274.4,386.18 274.85,386 275.4,386 C275.95,386 276.4,385.836 276.4,385.635 C276.4,385.434 277.12,385.149 278,385 C278.88,384.851 279.6,384.566 279.6,384.365 C279.6,384.164 280.05,384 280.6,384 C281.15,384 281.6,383.82 281.6,383.6 C281.6,383.38 281.96,383.2 282.4,383.2 C282.84,383.2 283.2,383.02 283.2,382.8 C283.2,382.58 283.56,382.4 284,382.4 C284.44,382.4 284.8,382.22 284.8,382 C284.8,381.78 285.16,381.6 285.6,381.6 C286.04,381.6 286.4,381.42 286.4,381.2 C286.4,380.98 286.76,380.8 287.2,380.8 C287.64,380.8 288,380.62 288,380.4 C288,380.18 288.27,380 288.6,380 C288.93,380 289.2,379.836 289.2,379.635 C289.2,379.434 289.92,379.149 290.8,379 C291.68,378.851 292.4,378.566 292.4,378.365 C292.4,378.164 292.76,378 293.2,378 C293.64,378 294,377.82 294,377.6 C294,377.38 294.27,377.2 294.6,377.2 C294.93,377.2 295.2,377.02 295.2,376.8 C295.2,376.58 295.52,376.4 295.912,376.4 C296.303,376.4 296.883,376.04 297.2,375.6 C297.517,375.16 298.097,374.8 298.488,374.8 C298.88,374.8 299.2,374.62 299.2,374.4 C299.2,374.18 299.47,374 299.8,374 C300.13,374 300.4,373.82 300.4,373.6 C300.4,373.38 300.747,373.2 301.171,373.2 C301.596,373.2 302.213,372.93 302.543,372.6 C302.873,372.27 303.426,372 303.771,372 C304.117,372 304.4,371.82 304.4,371.6 C304.4,371.38 304.748,371.2 305.173,371.2 C305.598,371.2 306.06,370.84 306.2,370.4 C306.34,369.96 306.762,369.6 307.139,369.6 C307.515,369.6 308.083,369.24 308.4,368.8 C308.717,368.36 309.297,368 309.688,368 C310.08,368 310.4,367.832 310.4,367.627 C310.4,367.422 310.805,367.126 311.3,366.97 C311.795,366.813 312.491,366.351 312.847,365.943 C313.203,365.534 313.748,365.2 314.059,365.2 C314.369,365.2 314.883,364.84 315.2,364.4 C315.517,363.96 316.031,363.6 316.341,363.6 C316.93,363.6 318.4,362.128 318.4,361.539 C318.4,361.352 318.752,361.2 319.182,361.2 C319.612,361.2 320.414,360.75 320.964,360.2 C321.514,359.65 322.202,359.2 322.494,359.2 C322.785,359.2 323.288,358.823 323.612,358.363 C324.734,356.765 325.496,356 325.965,356 C326.224,356 326.876,355.595 327.414,355.1 C329.87,352.838 330.386,352.4 330.59,352.4 C330.711,352.4 332.173,351.05 333.839,349.4 C335.505,347.75 337.029,346.4 337.225,346.4 C337.691,346.4 346.4,337.691 346.4,337.225 C346.4,337.029 347.75,335.505 349.4,333.839 C351.05,332.173 352.4,330.709 352.4,330.587 C352.4,330.464 352.805,329.924 353.3,329.386 C355.684,326.797 356,326.396 356,325.961 C356,325.482 357.507,324 357.994,324 C358.143,324 358.52,323.505 358.832,322.9 C359.145,322.295 359.805,321.387 360.3,320.882 C360.795,320.377 361.2,319.624 361.2,319.209 C361.2,318.794 361.56,318.34 362,318.2 C362.44,318.06 362.8,317.67 362.8,317.334 C362.8,316.997 363.34,316.217 364,315.6 C364.66,314.983 365.2,314.257 365.2,313.986 C365.2,313.716 365.534,313.203 365.943,312.847 C366.351,312.491 366.813,311.795 366.97,311.3 C367.126,310.805 367.422,310.4 367.627,310.4 C367.832,310.4 368,310.08 368,309.688 C368,309.297 368.36,308.717 368.8,308.4 C369.24,308.083 369.6,307.503 369.6,307.112 C369.6,306.72 369.78,306.4 370,306.4 C370.22,306.4 370.4,306.17 370.4,305.888 C370.4,305.607 370.76,305.117 371.2,304.8 C371.64,304.483 372,303.903 372,303.512 C372,303.12 372.18,302.8 372.4,302.8 C372.62,302.8 372.8,302.453 372.8,302.029 C372.8,301.604 373.07,300.987 373.4,300.657 C373.73,300.327 374,299.864 374,299.629 C374,299.393 374.18,299.2 374.4,299.2 C374.62,299.2 374.8,298.84 374.8,298.4 C374.8,297.96 374.98,297.6 375.2,297.6 C375.42,297.6 375.6,297.28 375.6,296.888 C375.6,296.497 375.96,295.917 376.4,295.6 C376.84,295.283 377.2,294.793 377.2,294.512 C377.2,294.23 377.38,294 377.6,294 C377.82,294 378,293.64 378,293.2 C378,292.76 378.164,292.4 378.365,292.4 C378.566,292.4 378.851,291.68 379,290.8 C379.149,289.92 379.434,289.2 379.635,289.2 C379.836,289.2 380,288.93 380,288.6 C380,288.27 380.18,288 380.4,288 C380.62,288 380.8,287.64 380.8,287.2 C380.8,286.76 380.98,286.4 381.2,286.4 C381.42,286.4 381.6,286.051 381.6,285.624 C381.6,285.197 381.78,284.736 382,284.6 C382.22,284.464 382.4,283.913 382.4,283.376 C382.4,282.839 382.58,282.4 382.8,282.4 C383.02,282.4 383.2,282.13 383.2,281.8 C383.2,281.47 383.38,281.2 383.6,281.2 C383.82,281.2 384,280.84 384,280.4 C384,279.96 384.174,279.6 384.386,279.6 C384.599,279.6 384.892,278.7 385.038,277.6 C385.184,276.5 385.46,275.6 385.652,275.6 C385.843,275.6 386,275.33 386,275 C386,274.67 386.18,274.4 386.4,274.4 C386.62,274.4 386.8,273.86 386.8,273.2 C386.8,272.54 386.98,272 387.2,272 C387.42,272 387.6,271.46 387.6,270.8 C387.6,270.14 387.735,269.599 387.9,269.597 C388.306,269.593 389.2,267.614 389.2,266.72 C389.2,266.324 389.38,266 389.6,266 C389.82,266 390,265.46 390,264.8 C390,264.14 390.167,263.6 390.371,263.6 C390.575,263.6 390.866,262.61 391.017,261.4 C391.168,260.19 391.451,259.2 391.646,259.2 C391.841,259.2 392,258.57 392,257.8 C392,257.03 392.18,256.4 392.4,256.4 C392.62,256.4 392.8,255.86 392.8,255.2 C392.8,254.54 392.98,254 393.2,254 C393.42,254 393.6,253.37 393.6,252.6 C393.6,251.83 393.78,251.2 394,251.2 C394.22,251.2 394.4,250.48 394.4,249.6 C394.4,248.72 394.58,248 394.8,248 C395.02,248 395.2,247.381 395.2,246.624 C395.2,245.867 395.38,245.136 395.6,245 C395.82,244.864 396,243.953 396,242.976 C396,241.999 396.166,241.2 396.368,241.2 C396.57,241.2 396.863,239.4 397.019,237.2 C397.175,235 397.46,233.2 397.652,233.2 C397.843,233.2 398,232.12 398,230.8 C398,229.467 398.178,228.4 398.4,228.4 C398.631,228.4 398.8,227.144 398.8,225.433 C398.8,223.416 398.96,222.413 399.3,222.3 C399.692,222.169 399.8,217.431 399.8,200.4 C399.8,183.369 399.692,178.631 399.3,178.5 C398.96,178.387 398.8,177.384 398.8,175.367 C398.8,173.656 398.631,172.4 398.4,172.4 C398.174,172.4 398,171.267 398,169.8 C398,168.37 397.846,167.2 397.657,167.2 C397.469,167.2 397.188,165.355 397.034,163.1 C396.88,160.845 396.585,158.94 396.377,158.867 C396.17,158.793 396,158.028 396,157.167 C396,156.305 395.82,155.6 395.6,155.6 C395.38,155.6 395.2,154.79 395.2,153.8 C395.2,152.81 395.02,152 394.8,152 C394.58,152 394.4,151.37 394.4,150.6 C394.4,149.83 394.22,149.2 394,149.2 C393.78,149.2 393.6,148.66 393.6,148 C393.6,147.34 393.42,146.8 393.2,146.8 C392.98,146.8 392.8,146.08 392.8,145.2 C392.8,144.32 392.62,143.6 392.4,143.6 C392.18,143.6 392,143.15 392,142.6 C392,142.05 391.841,141.6 391.646,141.6 C391.451,141.6 391.168,140.61 391.017,139.4 C390.866,138.19 390.575,137.2 390.371,137.2 C390.167,137.2 390,136.66 390,136 C390,135.34 389.82,134.8 389.6,134.8 C389.38,134.8 389.2,134.26 389.2,133.6 C389.2,132.94 389.02,132.4 388.8,132.4 C388.58,132.4 388.4,131.95 388.4,131.4 C388.4,130.85 388.22,130.4 388,130.4 C387.78,130.4 387.6,129.86 387.6,129.2 C387.6,128.54 387.42,128 387.2,128 C386.98,128 386.8,127.64 386.8,127.2 C386.8,126.76 386.62,126.4 386.4,126.4 C386.18,126.4 386,125.95 386,125.4 C386,124.85 385.836,124.4 385.635,124.4 C385.434,124.4 385.149,123.68 385,122.8 C384.851,121.92 384.566,121.2 384.365,121.2 C384.164,121.2 384,120.66 384,120 C384,119.34 383.82,118.8 383.6,118.8 C383.38,118.8 383.2,118.53 383.2,118.2 C383.2,117.87 383.02,117.6 382.8,117.6 C382.58,117.6 382.4,117.24 382.4,116.8 C382.4,116.36 382.22,116 382,116 C381.78,116 381.6,115.64 381.6,115.2 C381.6,114.76 381.42,114.4 381.2,114.4 C380.98,114.4 380.8,114.04 380.8,113.6 C380.8,113.16 380.62,112.8 380.4,112.8 C380.18,112.8 380,112.53 380,112.2 C380,111.87 379.836,111.6 379.635,111.6 C379.434,111.6 379.149,110.88 379,110 C378.851,109.12 378.566,108.4 378.365,108.4 C378.164,108.4 378,108.04 378,107.6 C378,107.16 377.82,106.8 377.6,106.8 C377.38,106.8 377.2,106.53 377.2,106.2 C377.2,105.87 377.02,105.6 376.8,105.6 C376.58,105.6 376.4,105.24 376.4,104.8 C376.4,104.36 376.22,104 376,104 C375.78,104 375.6,103.64 375.6,103.2 C375.6,102.76 375.42,102.4 375.2,102.4 C374.98,102.4 374.8,102.052 374.8,101.627 C374.8,101.202 374.455,100.744 374.032,100.61 C373.527,100.45 373.178,99.851 373.009,98.855 C372.869,98.024 372.404,97.091 371.977,96.783 C371.55,96.475 371.2,95.903 371.2,95.512 C371.2,95.12 371.02,94.8 370.8,94.8 C370.58,94.8 370.4,94.57 370.4,94.288 C370.4,94.007 370.04,93.517 369.6,93.2 C369.16,92.883 368.8,92.343 368.8,92 C368.8,91.657 368.44,91.117 368,90.8 C367.56,90.483 367.2,89.897 367.2,89.499 C367.2,89.101 366.93,88.671 366.6,88.545 C366.27,88.418 366,88.013 366,87.646 C366,87.278 365.64,86.717 365.2,86.4 C364.76,86.083 364.4,85.543 364.4,85.2 C364.4,84.857 364.04,84.317 363.6,84 C363.16,83.683 362.8,83.275 362.8,83.094 C362.8,82.912 362.35,82.314 361.8,81.764 C361.25,81.214 360.8,80.524 360.8,80.23 C360.8,79.937 360.08,78.955 359.2,78.048 C358.32,77.141 357.6,76.295 357.6,76.168 C357.6,76.041 356.91,75.275 356.068,74.465 C355.225,73.655 354.411,72.499 354.26,71.896 C354.109,71.293 353.827,70.8 353.635,70.8 C353.118,70.8 350.8,68.55 350.8,68.048 C350.8,67.467 333.358,50 332.778,50 C332.527,50 331.844,49.464 331.26,48.808 C328.999,46.267 328.235,45.6 327.586,45.6 C327.339,45.6 326.446,44.88 325.6,44 C324.754,43.12 323.953,42.4 323.818,42.4 C323.683,42.4 322.943,41.77 322.173,41 C321.403,40.23 320.459,39.6 320.075,39.6 C319.691,39.6 319.117,39.24 318.8,38.8 C318.483,38.36 318.065,38 317.872,38 C317.679,38 317.017,37.46 316.4,36.8 C315.783,36.14 315.057,35.6 314.786,35.6 C314.516,35.6 314.003,35.266 313.647,34.857 C313.291,34.449 312.595,33.987 312.1,33.83 C311.605,33.674 311.2,33.378 311.2,33.173 C311.2,32.968 310.88,32.8 310.488,32.8 C310.097,32.8 309.517,32.44 309.2,32 C308.883,31.56 308.343,31.2 308,31.2 C307.657,31.2 307.117,30.84 306.8,30.4 C306.483,29.96 305.993,29.6 305.712,29.6 C305.43,29.6 305.2,29.42 305.2,29.2 C305.2,28.98 304.917,28.8 304.571,28.8 C304.226,28.8 303.673,28.53 303.343,28.2 C303.013,27.87 302.396,27.6 301.971,27.6 C301.547,27.6 301.2,27.42 301.2,27.2 C301.2,26.98 300.93,26.8 300.6,26.8 C300.27,26.8 300,26.62 300,26.4 C300,26.18 299.68,26 299.288,26 C298.897,26 298.317,25.64 298,25.2 C297.683,24.76 297.103,24.4 296.712,24.4 C296.32,24.4 296,24.22 296,24 C296,23.78 295.64,23.6 295.2,23.6 C294.76,23.6 294.4,23.42 294.4,23.2 C294.4,22.98 294.13,22.8 293.8,22.8 C293.47,22.8 293.2,22.636 293.2,22.435 C293.2,22.234 292.48,21.949 291.6,21.8 C290.72,21.651 290,21.366 290,21.165 C290,20.964 289.64,20.8 289.2,20.8 C288.76,20.8 288.4,20.62 288.4,20.4 C288.4,20.18 288.13,20 287.8,20 C287.47,20 287.2,19.82 287.2,19.6 C287.2,19.38 286.84,19.2 286.4,19.2 C285.96,19.2 285.6,19.02 285.6,18.8 C285.6,18.58 285.24,18.4 284.8,18.4 C284.36,18.4 284,18.22 284,18 C284,17.78 283.64,17.6 283.2,17.6 C282.76,17.6 282.4,17.464 282.4,17.298 C282.4,16.881 280.506,16.105 278.7,15.78 C277.875,15.632 277.2,15.351 277.2,15.155 C277.2,14.96 276.84,14.8 276.4,14.8 C275.96,14.8 275.6,14.62 275.6,14.4 C275.6,14.18 275.15,14 274.6,14 C274.05,14 273.6,13.82 273.6,13.6 C273.6,13.38 273.06,13.2 272.4,13.2 C271.74,13.2 271.2,13.02 271.2,12.8 C271.2,12.58 270.84,12.4 270.4,12.4 C269.96,12.4 269.6,12.22 269.6,12 C269.6,11.78 269.15,11.6 268.6,11.6 C268.05,11.6 267.6,11.42 267.6,11.2 C267.6,10.98 267.06,10.8 266.4,10.8 C265.74,10.8 265.2,10.633 265.2,10.429 C265.2,10.225 264.21,9.934 263,9.783 C261.79,9.632 260.8,9.349 260.8,9.154 C260.8,8.959 260.26,8.8 259.6,8.8 C258.94,8.8 258.4,8.62 258.4,8.4 C258.4,8.18 257.95,8 257.4,8 C256.85,8 256.4,7.82 256.4,7.6 C256.4,7.38 255.68,7.2 254.8,7.2 C253.92,7.2 253.2,7.02 253.2,6.8 C253.2,6.58 252.57,6.4 251.8,6.4 C251.03,6.4 250.4,6.22 250.4,6 C250.4,5.78 249.68,5.6 248.8,5.6 C247.92,5.6 247.2,5.42 247.2,5.2 C247.2,4.98 246.581,4.8 245.824,4.8 C245.067,4.8 244.348,4.639 244.226,4.443 C244.105,4.246 242.384,3.957 240.403,3.8 C238.421,3.643 236.8,3.354 236.8,3.158 C236.8,2.961 235.81,2.8 234.6,2.8 C233.39,2.8 232.4,2.62 232.4,2.4 C232.4,2.174 231.267,2 229.8,2 C228.333,2 227.2,1.826 227.2,1.6 C227.2,1.37 225.96,1.2 224.28,1.2 C222.674,1.2 221.172,1.012 220.942,0.782 C220.506,0.346 193.453,-0.032 184.1,0.268 M216.2,21.629 C226.033,22.699 234.754,24.054 239.2,25.201 C239.97,25.399 242.22,25.952 244.2,26.428 C308.7,41.952 362.758,98.136 375.411,162.8 C375.733,164.45 376.17,166.7 376.38,167.8 C380.644,190.066 380.218,215.616 375.203,238.4 C374.937,239.61 374.582,241.23 374.415,242 C373.245,247.374 369.545,259.175 367.204,265 C367.027,265.44 366.485,266.79 366,268 C365.514,269.21 364.84,270.83 364.503,271.6 C363.34,274.252 357.59,285.804 356.539,287.6 C355.96,288.59 355.031,290.21 354.475,291.2 C352.165,295.312 343.762,307.539 340.837,311.043 C340.267,311.727 339.53,312.629 339.2,313.048 C331.104,323.338 319.283,334.701 307.576,343.448 C304.372,345.842 301.402,348.026 300.976,348.303 C300.549,348.58 298.58,349.856 296.6,351.139 C281.842,360.703 264.374,368.463 246.809,373.258 C233.132,376.992 213.988,379.596 200.155,379.603 C188.983,379.61 170.935,377.589 161,375.221 C160.12,375.011 158.59,374.653 157.6,374.425 C151.164,372.946 139.783,369.366 134.6,367.19 C134.16,367.005 132,366.104 129.8,365.186 C116.197,359.515 92.072,345.038 87.2,339.622 C87.09,339.5 85.92,338.502 84.6,337.405 C35.506,296.597 12.204,231.782 23.625,167.8 C25.363,158.061 29.317,144.097 32.798,135.4 C35.668,128.23 40.142,118.765 43.384,113.005 C43.881,112.122 44.692,110.68 45.188,109.8 C54.444,93.368 70.777,74.271 86.4,61.614 C93.147,56.148 107.599,46 108.636,46 C108.768,46 109.354,45.668 109.938,45.262 C112.374,43.567 128.085,35.6 128.99,35.6 C129.11,35.6 130.062,35.222 131.104,34.76 C133.988,33.483 134.974,33.083 138.37,31.812 C140.999,30.829 144.23,29.771 147.6,28.79 C149.25,28.31 151.05,27.776 151.6,27.605 C152.651,27.277 154.918,26.671 157.6,26 C158.48,25.78 159.875,25.428 160.7,25.217 C174.58,21.678 200.967,19.972 216.2,21.629 M189.55,29.383 C189.45,29.483 187.215,29.755 184.584,29.986 C174.05,30.91 161.397,33.199 153.4,35.627 C141.419,39.264 134.393,42.031 123.855,47.263 C119.925,49.213 116.207,51.167 115.593,51.605 C114.979,52.042 114.382,52.4 114.266,52.4 C114.004,52.4 105.474,57.663 105.2,57.994 C105.09,58.127 103.255,59.436 101.123,60.902 C98.991,62.368 96.921,63.828 96.523,64.145 C95.725,64.781 88.724,70.586 86.689,72.299 C71.888,84.756 54.713,107.573 45.772,126.655 C41.903,134.913 40.728,137.789 38.361,144.8 C35.977,151.86 36.271,150.884 34.24,158.5 C33.613,160.853 31.919,169.23 31.268,173.2 C27.541,195.929 28.847,221.853 34.83,243.9 C35.293,245.605 35.818,247.54 35.996,248.2 C37.093,252.26 40.858,262.82 42.453,266.31 C43.084,267.691 43.6,268.917 43.6,269.035 C43.6,270.63 53.249,287.926 58.531,295.8 C61.335,299.979 62.903,302.104 67.389,307.8 C75.388,317.957 89.132,330.977 99.938,338.634 C101.774,339.935 103.934,341.473 104.738,342.05 C106.385,343.234 114.766,348.4 115.039,348.4 C115.136,348.4 115.97,348.876 116.892,349.458 C126.296,355.394 145.579,362.95 161,366.742 C163.08,367.253 173.007,369.043 176.6,369.555 C196.017,372.32 221.857,371.186 238.8,366.826 C239.57,366.628 240.92,366.286 241.8,366.066 C242.68,365.846 244.12,365.474 245,365.238 C247.247,364.638 255.636,362.017 256.6,361.615 C257.04,361.431 258.03,361.064 258.8,360.8 C259.57,360.536 260.605,360.157 261.1,359.96 C261.595,359.762 262.405,359.438 262.9,359.24 C263.395,359.042 264.653,358.502 265.696,358.04 C266.738,357.578 267.692,357.2 267.816,357.2 C268.167,357.2 280.766,350.946 283,349.663 C284.1,349.031 285.9,348.01 287,347.393 C290.726,345.304 301.207,338.12 305.2,334.919 C315.07,327.005 324.268,318.168 330.237,310.866 C330.657,310.353 331.413,309.453 331.918,308.866 C337.092,302.852 344.218,292.42 349.312,283.4 C368.001,250.31 374.795,210.539 368.446,171.4 C367.605,166.218 366.494,161.414 364.006,152.2 C362.918,148.169 359.353,138.098 357.706,134.4 C353.846,125.736 350.624,119.237 348.536,115.908 C348.021,115.087 347.6,114.306 347.6,114.172 C347.6,113.45 336.837,97.714 333.94,94.2 C316.534,73.088 298.8,58.681 276.183,47.278 C268.257,43.282 256.417,38.538 249.6,36.626 C249.05,36.472 248.06,36.194 247.4,36.009 C234.513,32.388 223.8,30.502 210.977,29.597 C205.314,29.197 189.89,29.043 189.55,29.383 M263.74,81.787 C265.027,82.095 266.737,82.782 267.54,83.315 C270.232,85.102 317.81,133.069 318.711,134.905 C320.771,139.103 320.742,143.07 318.624,146.882 C317.563,148.792 306.966,159.557 305.658,160.054 C303.33,160.939 303.404,161.006 272.148,129.76 C242.21,99.831 240.947,98.461 241.404,96.383 C241.689,95.085 253.298,83.469 255.039,82.741 C258.734,81.194 260.464,81.005 263.74,81.787 M301.24,91.232 C310.601,94.205 314.716,104.358 310.104,113.1 C309.727,113.815 309.235,114.4 309.012,114.4 C308.481,114.4 288.4,94.33 288.4,93.799 C288.4,91.768 297.315,89.985 301.24,91.232 M226.772,97.287 C229.714,98.292 232.418,100.855 266.962,135.399 C306.462,174.899 304.47,172.625 304.742,178.513 C304.997,184.02 303.829,186.04 295.8,193.976 L289.301,200.4 L287.351,200.4 L285.401,200.4 L243.301,158.301 L201.2,116.201 L201.2,114.24 L201.2,112.278 L207.67,105.766 C213.644,99.753 214.921,98.743 218.4,97.276 C219.787,96.691 225.045,96.698 226.772,97.287 M237.777,163.828 C243.4,169.453 248,174.179 248,174.329 C248,174.479 231.71,190.891 211.8,210.8 L175.6,246.998 L165.101,236.499 L154.602,226 L190.8,189.8 C210.709,169.89 227.124,153.6 227.277,153.6 C227.43,153.6 232.155,158.203 237.777,163.828 M121.504,203.374 C126.694,208.36 199.935,281.744 200.576,282.6 C202.761,285.519 201.172,288.734 194.131,295.642 C187.615,302.035 185.562,303.183 180.628,303.194 C174.561,303.207 176.575,304.957 136.064,264.456 C96.727,225.128 98.721,227.396 98.465,221.684 C98.22,216.216 99.203,214.35 105.963,207.448 C112.469,200.805 113.046,200.403 116.104,200.401 L118.409,200.4 L121.504,203.374 M100.926,240.456 C102.408,241.228 160.787,299.914 161.228,301.073 C162.204,303.641 161.502,304.851 155.668,310.651 C147.148,319.122 142.976,320.53 136.351,317.171 C133.93,315.943 85.428,267.215 84.127,264.703 C81.013,258.691 82.646,254.296 91.111,245.9 C97.486,239.577 98.337,239.105 100.926,240.456 M106.129,297.129 C113.931,304.935 116.324,307.554 115.926,307.849 C107.972,313.757 96.899,309.934 92.851,299.881 C91.734,297.109 92.425,291.04 94.191,288.1 C95.323,286.217 94.913,285.907 106.129,297.129" id="path1"></path>
        </g>
    </g>
</svg>
