<svg width="396px" height="280px" viewBox="0 0 396 280" version="1.1" xmlns="http://www.w3.org/2000/svg" xmlns:xlink="http://www.w3.org/1999/xlink">
    <!-- Generator: Sketch 51 (57462) - http://www.bohemiancoding.com/sketch -->
    <desc>Created with Sketch.</desc>
    <defs></defs>
    <g id="Page-1" stroke="none" stroke-width="1" fill="none" fill-rule="evenodd">
        <g id="strength-special">
            <path d="M270.902,1.038 C269.611,1.101 268.555,1.257 268.555,1.385 C268.555,1.513 267.245,1.707 265.645,1.818 C264.044,1.928 262.668,2.123 262.586,2.251 C262.505,2.379 261.382,2.577 260.091,2.69 C258.8,2.803 257.744,2.998 257.744,3.123 C257.744,3.247 256.976,3.439 256.037,3.548 C255.098,3.657 254.33,3.851 254.33,3.98 C254.33,4.108 253.499,4.303 252.484,4.411 C251.469,4.52 250.699,4.706 250.772,4.825 C250.845,4.943 250.268,5.125 249.488,5.228 C248.709,5.332 248.071,5.526 248.071,5.659 C248.071,5.792 247.495,5.988 246.791,6.093 C246.087,6.199 245.511,6.391 245.511,6.52 C245.511,6.649 244.935,6.841 244.23,6.947 C243.526,7.052 242.95,7.243 242.95,7.369 C242.95,7.496 242.438,7.682 241.812,7.782 C241.186,7.882 240.674,8.083 240.674,8.228 C240.674,8.373 240.099,8.578 239.397,8.683 C238.694,8.788 238.181,8.974 238.256,9.096 C238.332,9.218 237.946,9.401 237.4,9.504 C236.854,9.606 236.407,9.798 236.407,9.93 C236.407,10.062 235.959,10.254 235.411,10.357 C234.863,10.46 234.415,10.656 234.415,10.793 C234.415,10.93 234.031,11.126 233.562,11.229 C233.092,11.332 232.708,11.524 232.708,11.656 C232.708,11.787 232.324,11.979 231.855,12.083 C231.385,12.186 231.001,12.378 231.001,12.509 C231.001,12.641 230.617,12.833 230.148,12.936 C229.679,13.039 229.294,13.231 229.294,13.363 C229.294,13.494 228.91,13.686 228.441,13.789 C227.972,13.893 227.587,14.085 227.587,14.216 C227.587,14.348 227.203,14.54 226.734,14.643 C226.265,14.746 225.881,14.946 225.881,15.087 C225.881,15.228 225.56,15.424 225.169,15.522 C224.778,15.62 224.458,15.804 224.458,15.931 C224.458,16.059 224.085,16.244 223.628,16.345 C223.172,16.445 222.728,16.711 222.642,16.936 C222.555,17.161 222.288,17.346 222.049,17.346 C221.809,17.346 221.613,17.471 221.613,17.625 C221.613,17.778 221.293,17.984 220.902,18.082 C220.511,18.181 220.191,18.375 220.191,18.514 C220.191,18.654 219.995,18.768 219.755,18.768 C219.515,18.768 219.25,18.949 219.165,19.169 C219.081,19.39 218.701,19.648 218.321,19.744 C217.941,19.839 217.63,20.043 217.63,20.196 C217.63,20.35 217.467,20.475 217.267,20.475 C217.067,20.475 216.684,20.731 216.416,21.044 C216.148,21.357 215.749,21.613 215.53,21.613 C215.31,21.613 215.057,21.805 214.967,22.04 C214.877,22.275 214.654,22.467 214.471,22.467 C214.289,22.467 213.856,22.772 213.511,23.145 C213.165,23.517 212.618,23.906 212.295,24.009 C211.973,24.111 211.637,24.382 211.549,24.611 C211.461,24.84 211.242,25.027 211.062,25.027 C210.883,25.027 210.239,25.539 209.631,26.165 C209.024,26.791 208.409,27.303 208.265,27.303 C208.12,27.303 207.426,27.879 206.722,28.583 C206.018,29.287 205.356,29.863 205.251,29.863 C204.995,29.863 196.862,38.005 196.862,38.26 C196.862,38.37 196.158,39.153 195.297,40 C194.437,40.847 193.733,41.661 193.733,41.808 C193.733,41.956 193.349,42.47 192.879,42.95 C192.41,43.43 192.026,43.937 192.026,44.076 C192.026,44.215 191.666,44.691 191.227,45.133 C190.787,45.576 190.343,46.161 190.24,46.435 C190.137,46.709 189.92,46.933 189.759,46.933 C189.597,46.933 189.465,47.126 189.465,47.363 C189.465,47.599 189.209,48.011 188.896,48.279 C188.583,48.547 188.327,48.93 188.327,49.13 C188.327,49.33 188.202,49.494 188.048,49.494 C187.895,49.494 187.691,49.804 187.596,50.184 C187.5,50.564 187.242,50.944 187.021,51.029 C186.801,51.113 186.62,51.379 186.62,51.618 C186.62,51.858 186.495,52.054 186.341,52.054 C186.188,52.054 185.984,52.365 185.889,52.745 C185.793,53.125 185.535,53.505 185.314,53.589 C185.094,53.674 184.913,53.939 184.913,54.179 C184.913,54.418 184.788,54.615 184.634,54.615 C184.481,54.615 184.275,54.935 184.177,55.326 C184.078,55.717 183.884,56.037 183.744,56.037 C183.605,56.037 183.491,56.233 183.491,56.473 C183.491,56.712 183.307,56.979 183.081,57.065 C182.856,57.152 182.59,57.596 182.49,58.052 C182.39,58.509 182.2,58.882 182.068,58.882 C181.937,58.882 181.745,59.266 181.642,59.735 C181.538,60.205 181.339,60.589 181.198,60.589 C181.057,60.589 180.861,60.909 180.763,61.3 C180.664,61.691 180.48,62.011 180.353,62.011 C180.226,62.011 180.038,62.395 179.935,62.865 C179.831,63.334 179.639,63.718 179.508,63.718 C179.376,63.718 179.184,64.102 179.081,64.572 C178.978,65.041 178.782,65.425 178.645,65.425 C178.508,65.425 178.312,65.873 178.209,66.421 C178.106,66.969 177.918,67.417 177.792,67.417 C177.665,67.417 177.477,67.801 177.374,68.27 C177.271,68.74 177.069,69.124 176.925,69.124 C175.662,69.124 176.956,70.605 180.405,73.107 C182.453,74.593 184.695,76.305 185.386,76.91 C186.078,77.516 186.613,77.9 186.575,77.764 C186.322,76.84 191.165,66.767 194.286,61.727 C196.161,58.697 197.122,57.299 199.662,53.903 C210.852,38.948 224.586,28.22 242.381,20.537 C248.042,18.093 256.343,15.637 262.723,14.519 C264.6,14.189 266.862,13.792 267.749,13.635 C272.465,12.802 286.853,12.637 292.595,13.352 C299.542,14.216 303.76,15.053 309.807,16.769 C313.12,17.709 318.774,19.666 320.475,20.462 C320.788,20.609 321.684,21.007 322.467,21.348 C349.588,33.165 371.84,58.568 379.394,86.336 C384.087,103.586 384.65,118.803 381.224,135.806 C380.373,140.034 378.198,147.492 377.055,150.106 C376.839,150.599 376.663,151.144 376.663,151.319 C376.663,151.493 376.539,151.857 376.388,152.129 C376.237,152.401 375.844,153.263 375.514,154.046 C374.306,156.912 374.025,157.518 372.478,160.589 C364.346,176.738 349.899,192.7 335.919,200.983 C335.651,201.142 334.307,201.959 332.932,202.799 C322.23,209.336 307.748,214.279 294.444,215.934 C293.114,216.099 291.001,216.37 289.75,216.536 C285.412,217.11 270.64,216.572 265.71,215.66 C264.849,215.501 263.057,215.169 261.727,214.922 C253.201,213.339 244.641,210.445 236.265,206.312 C230.555,203.496 223.257,199.055 222.956,198.215 C222.886,198.019 222.678,198.434 222.493,199.138 C222.309,199.842 222.048,200.674 221.913,200.987 C221.779,201.3 221.386,202.388 221.039,203.405 C220.693,204.422 220.233,205.658 220.016,206.151 C219.799,206.644 219.622,207.169 219.622,207.316 C219.622,207.464 219.421,207.988 219.175,208.481 C218.684,209.465 218.856,210.518 219.507,210.518 C219.737,210.518 219.998,210.71 220.088,210.945 C220.178,211.179 220.43,211.371 220.648,211.371 C220.866,211.371 221.044,211.497 221.044,211.65 C221.044,211.804 221.364,212.01 221.755,212.108 C222.147,212.206 222.467,212.401 222.467,212.54 C222.467,212.68 222.663,212.794 222.902,212.794 C223.142,212.794 223.409,212.978 223.495,213.203 C223.581,213.428 224.025,213.694 224.482,213.795 C224.938,213.895 225.312,214.108 225.312,214.269 C225.312,214.43 225.484,214.496 225.694,214.415 C225.905,214.334 226.249,214.508 226.461,214.801 C226.672,215.094 227.204,215.412 227.643,215.509 C228.082,215.605 228.441,215.792 228.441,215.923 C228.441,216.055 228.825,216.247 229.294,216.35 C229.764,216.453 230.148,216.645 230.148,216.777 C230.148,216.908 230.532,217.1 231.001,217.203 C231.471,217.307 231.855,217.499 231.855,217.63 C231.855,217.762 232.239,217.954 232.708,218.057 C233.178,218.16 233.562,218.377 233.562,218.539 C233.562,218.702 233.818,218.768 234.131,218.686 C234.444,218.604 234.7,218.653 234.7,218.795 C234.7,218.937 234.892,219.053 235.127,219.053 C235.361,219.053 235.553,219.179 235.553,219.334 C235.553,219.488 236.065,219.697 236.691,219.797 C237.317,219.897 237.829,220.085 237.829,220.214 C237.829,220.343 238.277,220.533 238.825,220.636 C239.373,220.739 239.821,220.935 239.821,221.072 C239.821,221.21 240.333,221.404 240.959,221.504 C241.585,221.604 242.097,221.797 242.097,221.934 C242.097,222.07 242.321,222.183 242.595,222.184 C242.868,222.185 243.45,222.372 243.887,222.6 C244.324,222.828 245.124,223.097 245.665,223.199 C246.206,223.3 246.649,223.482 246.649,223.603 C246.649,223.724 247.353,223.911 248.213,224.019 C249.074,224.127 249.778,224.348 249.778,224.511 C249.778,224.678 250.149,224.753 250.632,224.682 C251.101,224.613 251.485,224.662 251.485,224.792 C251.485,224.921 251.741,225.027 252.054,225.027 C252.367,225.027 252.623,225.147 252.623,225.294 C252.623,225.441 253.519,225.65 254.615,225.758 C255.71,225.866 256.606,226.053 256.606,226.174 C256.606,226.295 257.406,226.486 258.384,226.598 C259.362,226.71 260.229,226.907 260.31,227.035 C260.392,227.163 261.765,227.358 263.361,227.468 C264.957,227.578 266.206,227.759 266.138,227.87 C266.003,228.088 270.157,228.441 272.866,228.441 C273.785,228.441 274.529,228.568 274.529,228.725 C274.529,229.113 287.519,229.113 287.758,228.725 C287.855,228.569 288.993,228.441 290.288,228.441 C291.583,228.441 292.727,228.356 292.83,228.253 C292.933,228.15 293.915,228.094 295.011,228.13 C296.274,228.171 297.004,228.083 297.004,227.891 C297.004,227.721 297.567,227.587 298.284,227.587 C298.989,227.587 299.565,227.491 299.565,227.372 C299.565,227.254 300.141,227.202 300.845,227.258 C301.589,227.318 302.125,227.239 302.125,227.071 C302.125,226.913 303.085,226.693 304.259,226.583 C305.432,226.473 306.393,226.282 306.393,226.16 C306.393,226.037 307.161,225.847 308.1,225.738 C309.038,225.629 309.807,225.437 309.807,225.312 C309.807,225.186 310.574,224.994 311.513,224.885 C312.452,224.776 313.158,224.587 313.083,224.466 C313.008,224.345 313.584,224.161 314.364,224.057 C315.143,223.954 315.781,223.76 315.781,223.627 C315.781,223.494 316.357,223.298 317.061,223.193 C317.765,223.087 318.341,222.897 318.341,222.77 C318.341,222.643 318.882,222.453 319.542,222.347 C320.202,222.242 320.814,222.04 320.901,221.9 C320.988,221.759 321.5,221.566 322.04,221.471 C322.579,221.376 323.088,221.193 323.17,221.065 C323.253,220.936 323.736,220.741 324.245,220.63 C324.753,220.52 325.169,220.312 325.169,220.168 C325.169,220.024 325.361,219.906 325.596,219.906 C325.831,219.906 326.023,219.796 326.023,219.661 C326.023,219.526 326.343,219.477 326.734,219.552 C327.125,219.627 327.445,219.555 327.445,219.393 C327.445,219.231 327.829,219.013 328.299,218.91 C328.768,218.807 329.152,218.611 329.152,218.474 C329.152,218.337 329.599,218.141 330.145,218.039 C330.692,217.936 331.072,217.745 330.991,217.613 C330.91,217.482 331.294,217.29 331.845,217.187 C332.395,217.083 332.782,216.895 332.703,216.769 C332.625,216.642 332.946,216.454 333.417,216.35 C333.888,216.247 334.273,216.055 334.273,215.923 C334.273,215.792 334.657,215.6 335.127,215.496 C335.596,215.393 335.98,215.201 335.98,215.07 C335.98,214.938 336.353,214.748 336.81,214.648 C337.266,214.548 337.71,214.282 337.797,214.057 C337.883,213.831 338.15,213.647 338.389,213.647 C338.629,213.647 338.825,213.529 338.825,213.385 C338.825,213.241 339.21,213.039 339.681,212.935 C340.152,212.832 340.471,212.64 340.39,212.509 C340.309,212.378 340.622,212.188 341.086,212.086 C341.549,211.984 342.003,211.666 342.094,211.38 C342.185,211.093 342.575,210.78 342.96,210.683 C343.346,210.586 343.661,210.381 343.661,210.228 C343.661,210.074 343.858,209.949 344.097,209.949 C344.337,209.949 344.602,209.768 344.687,209.548 C344.771,209.327 345.151,209.069 345.531,208.973 C345.911,208.878 346.222,208.674 346.222,208.521 C346.222,208.367 346.418,208.242 346.658,208.242 C346.897,208.242 347.167,208.05 347.257,207.815 C347.347,207.58 347.6,207.388 347.82,207.388 C348.039,207.388 348.438,207.132 348.706,206.819 C348.974,206.506 349.31,206.25 349.453,206.25 C349.596,206.25 350.009,205.93 350.372,205.539 C350.735,205.148 351.155,204.828 351.307,204.828 C351.459,204.828 351.968,204.444 352.437,203.974 C352.906,203.505 353.383,203.121 353.497,203.121 C353.611,203.121 354.139,202.673 354.671,202.125 C355.202,201.578 355.75,201.129 355.887,201.129 C356.214,201.129 367.559,189.784 367.559,189.458 C367.559,189.32 368.007,188.773 368.555,188.241 C369.102,187.709 369.55,187.181 369.55,187.067 C369.55,186.954 369.935,186.477 370.404,186.007 C370.873,185.538 371.257,185.03 371.257,184.878 C371.257,184.726 371.555,184.32 371.919,183.975 C372.283,183.63 372.663,183.124 372.763,182.851 C372.864,182.577 373.07,182.353 373.221,182.353 C373.372,182.353 373.583,182.077 373.69,181.739 C373.797,181.402 374.167,180.858 374.513,180.53 C374.858,180.203 375.223,179.711 375.324,179.437 C375.425,179.163 375.625,178.939 375.77,178.939 C375.914,178.939 376.113,178.619 376.211,178.228 C376.309,177.836 376.515,177.516 376.668,177.516 C376.822,177.516 376.947,177.32 376.947,177.081 C376.947,176.841 377.132,176.574 377.357,176.488 C377.582,176.402 377.848,175.957 377.948,175.501 C378.049,175.045 378.246,174.671 378.387,174.671 C378.528,174.671 378.724,174.351 378.822,173.96 C378.92,173.569 379.115,173.249 379.254,173.249 C379.394,173.249 379.508,173.053 379.508,172.813 C379.508,172.574 379.692,172.307 379.917,172.221 C380.142,172.134 380.409,171.69 380.509,171.234 C380.609,170.777 380.799,170.404 380.93,170.404 C381.062,170.404 381.254,170.02 381.357,169.55 C381.46,169.081 381.66,168.697 381.801,168.697 C381.942,168.697 382.138,168.377 382.236,167.986 C382.334,167.595 382.518,167.275 382.646,167.275 C382.773,167.275 382.961,166.89 383.064,166.421 C383.167,165.952 383.359,165.568 383.491,165.568 C383.622,165.568 383.814,165.183 383.917,164.714 C384.021,164.245 384.217,163.861 384.354,163.861 C384.491,163.861 384.687,163.413 384.79,162.865 C384.892,162.317 385.08,161.869 385.207,161.869 C385.333,161.869 385.521,161.485 385.624,161.016 C385.728,160.546 385.928,160.162 386.07,160.162 C386.213,160.162 386.411,159.65 386.511,159.024 C386.611,158.398 386.799,157.886 386.928,157.886 C387.058,157.886 387.247,157.438 387.35,156.89 C387.453,156.343 387.634,155.895 387.753,155.895 C387.873,155.895 388.052,155.383 388.152,154.757 C388.252,154.131 388.453,153.619 388.598,153.619 C388.743,153.619 388.948,153.043 389.053,152.339 C389.159,151.634 389.351,151.058 389.48,151.058 C389.609,151.058 389.801,150.482 389.907,149.778 C390.012,149.074 390.196,148.498 390.314,148.498 C390.433,148.498 390.615,147.858 390.719,147.075 C390.822,146.293 391.018,145.653 391.154,145.653 C391.29,145.653 391.49,144.885 391.599,143.946 C391.708,143.007 391.905,142.239 392.036,142.239 C392.168,142.239 392.364,141.343 392.472,140.248 C392.58,139.152 392.769,138.256 392.892,138.256 C393.014,138.256 393.205,137.296 393.315,136.122 C393.425,134.949 393.616,133.989 393.739,133.989 C393.862,133.989 394.055,132.612 394.168,130.93 C394.285,129.202 394.513,127.784 394.693,127.669 C395.143,127.383 395.147,101.906 394.698,101.617 C394.524,101.505 394.29,100.135 394.178,98.572 C394.065,97.009 393.873,95.665 393.751,95.585 C393.628,95.505 393.435,94.48 393.322,93.308 C393.208,92.135 393.012,91.111 392.885,91.032 C392.758,90.953 392.563,90.055 392.452,89.038 C392.341,88.021 392.154,87.125 392.035,87.047 C391.917,86.969 391.73,86.297 391.621,85.553 C391.511,84.81 391.316,84.202 391.187,84.202 C391.059,84.202 390.865,83.498 390.758,82.637 C390.65,81.777 390.451,81.073 390.316,81.073 C390.18,81.073 389.983,80.496 389.877,79.792 C389.771,79.088 389.579,78.512 389.45,78.512 C389.321,78.512 389.129,77.936 389.024,77.232 C388.918,76.528 388.732,75.952 388.611,75.952 C388.49,75.952 388.306,75.504 388.204,74.956 C388.101,74.408 387.911,73.96 387.782,73.96 C387.652,73.96 387.465,73.448 387.364,72.822 C387.264,72.196 387.07,71.684 386.933,71.684 C386.796,71.684 386.599,71.236 386.497,70.688 C386.394,70.141 386.204,69.693 386.075,69.693 C385.945,69.693 385.758,69.181 385.657,68.555 C385.557,67.929 385.359,67.417 385.217,67.417 C385.075,67.417 384.874,67.033 384.771,66.563 C384.668,66.094 384.476,65.71 384.344,65.71 C384.213,65.71 384.021,65.326 383.917,64.856 C383.814,64.387 383.622,64.003 383.491,64.003 C383.359,64.003 383.167,63.619 383.064,63.149 C382.961,62.68 382.769,62.296 382.637,62.296 C382.506,62.296 382.314,61.912 382.211,61.442 C382.107,60.973 381.915,60.589 381.784,60.589 C381.652,60.589 381.462,60.216 381.362,59.759 C381.262,59.303 380.996,58.859 380.771,58.772 C380.546,58.686 380.361,58.419 380.361,58.18 C380.361,57.94 380.247,57.744 380.108,57.744 C379.968,57.744 379.774,57.424 379.675,57.033 C379.577,56.642 379.382,56.321 379.241,56.321 C379.099,56.321 378.902,55.948 378.802,55.492 C378.702,55.035 378.435,54.591 378.21,54.505 C377.985,54.419 377.801,54.152 377.801,53.912 C377.801,53.673 377.675,53.477 377.522,53.477 C377.368,53.477 377.165,53.166 377.069,52.786 C376.974,52.406 376.716,52.026 376.495,51.941 C376.274,51.857 376.094,51.591 376.094,51.352 C376.094,51.112 375.968,50.916 375.815,50.916 C375.661,50.916 375.455,50.596 375.357,50.205 C375.259,49.814 375.061,49.494 374.916,49.494 C374.772,49.494 374.571,49.27 374.47,48.996 C374.37,48.722 374.004,48.23 373.659,47.902 C373.314,47.575 372.943,47.03 372.836,46.693 C372.729,46.356 372.518,46.08 372.367,46.08 C372.217,46.08 372.011,45.856 371.91,45.582 C371.809,45.308 371.429,44.802 371.065,44.457 C370.702,44.113 370.404,43.694 370.404,43.528 C370.404,43.361 369.956,42.79 369.408,42.258 C368.861,41.726 368.413,41.152 368.413,40.982 C368.413,40.667 366.881,39.103 365.323,37.829 C364.845,37.438 364.448,36.945 364.442,36.734 C364.425,36.196 359.871,31.697 359.094,31.45 C358.515,31.267 358.327,30.962 358.422,30.361 C358.44,30.244 358.308,30.148 358.128,30.148 C357.949,30.148 357.366,29.7 356.834,29.152 C356.303,28.605 355.726,28.156 355.553,28.156 C355.38,28.156 354.754,27.632 354.162,26.991 C353.57,26.349 352.95,25.909 352.783,26.012 C352.617,26.114 352.481,26.082 352.481,25.939 C352.481,25.528 351.081,24.126 350.827,24.283 C350.702,24.36 350.364,24.112 350.077,23.73 C349.791,23.348 349.374,23.036 349.152,23.036 C348.93,23.036 348.828,22.908 348.925,22.751 C349.021,22.595 348.897,22.467 348.648,22.467 C348.399,22.467 348.126,22.286 348.042,22.066 C347.957,21.845 347.577,21.586 347.197,21.491 C346.817,21.396 346.506,21.192 346.506,21.039 C346.506,20.885 346.31,20.76 346.071,20.76 C345.831,20.76 345.566,20.579 345.481,20.359 C345.397,20.138 345.016,19.879 344.637,19.784 C344.257,19.689 343.946,19.485 343.946,19.332 C343.946,19.178 343.75,19.053 343.51,19.053 C343.271,19.053 343.005,18.872 342.921,18.652 C342.836,18.431 342.456,18.172 342.076,18.077 C341.696,17.982 341.385,17.788 341.385,17.647 C341.385,17.506 341.012,17.309 340.556,17.209 C340.099,17.108 339.655,16.842 339.569,16.617 C339.483,16.392 339.216,16.208 338.976,16.208 C338.737,16.208 338.541,16.09 338.541,15.946 C338.541,15.802 338.156,15.6 337.687,15.496 C337.218,15.393 336.834,15.194 336.834,15.053 C336.834,14.911 336.514,14.716 336.122,14.618 C335.731,14.519 335.411,14.335 335.411,14.208 C335.411,14.081 335.027,13.893 334.558,13.789 C334.088,13.686 333.704,13.494 333.704,13.363 C333.704,13.231 333.32,13.039 332.851,12.936 C332.381,12.833 331.997,12.641 331.997,12.509 C331.997,12.378 331.613,12.186 331.144,12.083 C330.674,11.979 330.29,11.787 330.29,11.656 C330.29,11.524 329.906,11.332 329.437,11.229 C328.967,11.126 328.583,10.938 328.583,10.811 C328.583,10.685 328.135,10.497 327.587,10.394 C327.04,10.292 326.592,10.087 326.592,9.939 C326.592,9.792 326.08,9.589 325.454,9.489 C324.828,9.389 324.316,9.197 324.316,9.062 C324.316,8.928 323.804,8.736 323.178,8.636 C322.552,8.535 322.04,8.356 322.04,8.237 C322.04,8.118 321.592,7.937 321.044,7.834 C320.496,7.731 320.048,7.533 320.048,7.393 C320.048,7.253 319.472,7.052 318.768,6.947 C318.064,6.841 317.488,6.653 317.488,6.528 C317.488,6.403 316.944,6.209 316.279,6.098 C315.614,5.987 315.005,5.795 314.926,5.671 C314.846,5.547 314.207,5.359 313.505,5.255 C312.803,5.15 312.164,4.964 312.084,4.842 C312.005,4.72 311.172,4.526 310.233,4.411 C309.294,4.295 308.455,4.087 308.368,3.947 C308.281,3.807 307.417,3.61 306.448,3.509 C305.479,3.407 304.686,3.23 304.686,3.114 C304.686,2.998 303.725,2.813 302.552,2.703 C301.378,2.593 300.418,2.4 300.418,2.274 C300.418,2.148 298.978,1.952 297.218,1.838 C295.457,1.724 293.931,1.494 293.826,1.328 C293.633,1.022 275.86,0.798 270.902,1.038 M275.383,17.66 C272.801,17.787 270.152,18.023 269.496,18.187 C268.84,18.35 267.879,18.488 267.362,18.494 C266.844,18.499 264.949,18.81 263.149,19.184 C260.151,19.807 258.824,20.115 255.183,21.034 C234.703,26.201 213.355,41.682 200.812,60.463 C196.75,66.546 193.893,71.885 191.403,78.048 L190.268,80.856 L194.358,85.018 C196.607,87.308 199.019,89.88 199.717,90.735 C200.416,91.59 201.381,92.742 201.863,93.296 C202.702,94.26 205.856,98.38 206.885,99.855 C207.163,100.255 207.303,100.341 207.207,100.054 C206.853,99 213.374,93.475 218.768,90.259 C222.929,87.779 228.29,85.301 233.135,83.62 L235.411,82.83 L235.477,79.888 C235.634,72.821 236.136,67.853 237.191,62.927 L237.634,60.855 L236.905,60.082 C233.258,56.216 235.744,49.769 241.159,49.051 C242.328,48.896 242.667,48.715 243.071,48.031 C244.023,46.419 246.654,43.563 248.419,42.226 C260.845,32.81 279.03,39.711 295.22,59.986 L295.76,60.663 L300.01,59.215 C319.319,52.637 333.599,53.607 341.99,62.067 C348.05,68.177 349.392,77.151 346.169,90.014 C345.888,91.136 345.89,91.441 346.176,91.536 C347.987,92.14 354.777,98.232 357.028,101.272 C369.301,117.849 358.163,135.693 328.978,146.212 L327.239,146.839 L327.07,153.003 C325.893,196.147 297.192,204.643 268.249,170.415 L266.947,168.875 L265.119,169.52 C264.114,169.875 263.095,170.267 262.856,170.391 C262.616,170.515 262.016,170.705 261.524,170.813 C260.46,171.046 260.273,171.265 259.621,173.03 C258.059,177.259 252.46,178.507 249.002,175.398 L247.635,174.169 L243.948,174.408 C236.004,174.924 227.706,173.421 227.535,171.436 C227.507,171.103 227.394,172.175 227.284,173.818 C226.878,179.902 225.484,188.86 224.332,192.781 C224.091,193.601 224.08,193.926 224.296,193.843 C224.467,193.777 225.566,194.387 226.737,195.198 C235.152,201.021 249.199,207.462 257.033,209.09 C257.659,209.22 259.643,209.639 261.442,210.021 C268.444,211.506 274.987,212.225 281.499,212.225 C285.382,212.225 293.522,211.588 295.866,211.101 C296.57,210.955 297.787,210.755 298.569,210.657 C299.351,210.559 300.44,210.366 300.987,210.228 C301.535,210.089 303.135,209.704 304.543,209.372 C305.952,209.04 307.488,208.653 307.957,208.51 C310.117,207.857 315.127,206.212 315.639,205.988 C315.952,205.852 316.912,205.46 317.772,205.118 C322.036,203.422 329.752,199.565 331.144,198.434 C331.378,198.243 331.762,197.998 331.997,197.89 C334.291,196.833 342.443,190.764 346.361,187.197 C354.609,179.689 361.41,171.104 366.568,161.689 C367.739,159.553 368.697,157.771 368.697,157.729 C368.697,157.687 369.156,156.649 369.718,155.422 C371.602,151.306 373.398,146.611 374.38,143.235 C374.698,142.139 375.079,140.859 375.227,140.39 C375.374,139.92 375.7,138.64 375.951,137.545 C385.576,95.553 367.875,53.582 331.15,31.321 C326.209,28.326 322.264,26.44 314.074,23.157 C313.12,22.775 309.423,21.62 306.108,20.67 C299.916,18.895 285.822,17.083 280.646,17.396 C280.333,17.415 277.964,17.534 275.383,17.66 M257.673,43.101 C254.034,43.825 250.515,46.176 247.702,49.762 C246.774,50.944 246.778,50.748 247.646,52.458 C248.715,54.566 248.54,58.164 247.308,59.4 C247.102,59.607 246.932,59.863 246.931,59.969 C246.928,60.333 244.861,61.585 243.559,62.011 L242.256,62.438 L241.782,64.537 C240.533,70.059 239.973,81.342 240.959,81.118 C241.193,81.065 242.41,80.762 243.661,80.446 C249.977,78.848 258.915,77.322 264.379,76.91 L266.951,76.716 L269.816,74.811 C276.91,70.092 279.667,68.472 286.336,65.101 C288.839,63.836 290.937,62.755 290.998,62.699 C291.243,62.472 287.698,58.481 284.418,55.292 C274.474,45.621 265.521,41.54 257.673,43.101 M317.63,60.036 C312.882,60.5 304.209,62.649 300.02,64.399 C298.96,64.842 298.94,64.876 299.377,65.496 C301.087,67.929 304.28,72.838 305.666,75.169 C306.574,76.695 307.355,77.943 307.402,77.943 C308.069,77.943 317.086,79.842 319.033,80.392 C321.049,80.961 321.658,80.891 322.839,79.957 C326.56,77.01 332.118,78.955 333.293,83.616 C333.658,85.064 333.417,84.892 338.253,87.156 L341.522,88.686 L341.831,87.938 C343.118,84.814 343.602,76.602 342.707,73.07 C340.202,63.18 331.535,58.676 317.63,60.036 M113.007,63.36 C114.063,63.415 115.792,63.415 116.848,63.36 C117.904,63.306 117.04,63.261 114.927,63.261 C112.815,63.261 111.951,63.306 113.007,63.36 M288.896,69.269 C284.04,71.712 277.659,75.357 277.659,75.688 C277.659,75.785 280.891,75.952 284.842,76.06 C291.474,76.24 296.495,76.556 299.494,76.982 C300.547,77.132 300.702,77.086 300.694,76.624 C300.682,75.906 294.696,67.01 294.159,66.913 C293.925,66.87 291.556,67.93 288.896,69.269 M110.715,68.198 C112.389,68.248 115.205,68.248 116.974,68.198 C118.743,68.148 117.374,68.107 113.932,68.107 C110.489,68.107 109.042,68.148 110.715,68.198 M105.752,68.471 C106.105,68.539 106.681,68.539 107.033,68.471 C107.385,68.403 107.097,68.348 106.393,68.348 C105.688,68.348 105.4,68.403 105.752,68.471 M120.688,68.466 C120.962,68.538 121.41,68.538 121.684,68.466 C121.958,68.395 121.734,68.336 121.186,68.336 C120.639,68.336 120.415,68.395 120.688,68.466 M73.107,76.947 C72.716,77.171 72.523,77.354 72.68,77.354 C72.836,77.354 73.284,77.171 73.676,76.947 C74.067,76.724 74.259,76.541 74.102,76.541 C73.946,76.541 73.498,76.724 73.107,76.947 M270.252,81.039 C268.582,81.385 264.237,84.626 256.89,91.003 C254.273,93.276 243.862,103.509 243.501,104.165 C243.241,104.637 243.535,106.466 244.478,110.233 C244.713,111.172 245.045,112.516 245.215,113.22 C245.385,113.925 245.64,114.821 245.781,115.212 C245.922,115.603 246.318,116.883 246.661,118.057 C247.652,121.449 249.757,127.45 251.251,131.144 C253.824,137.503 258.276,146.843 258.925,147.245 C259.346,147.504 264.611,148.092 270.404,148.526 C277.01,149.02 293.278,148.757 294.017,148.144 C294.33,147.884 296.122,146.493 298,145.053 C307.954,137.419 319.628,126.115 319.398,124.335 C319.175,122.612 317.433,115.664 316.433,112.509 C315.455,109.423 313.192,102.653 312.89,101.913 C312.715,101.482 312.414,100.745 312.221,100.276 C312.028,99.807 311.64,98.782 311.358,98 C311.077,97.218 310.756,96.45 310.646,96.293 C310.535,96.137 310.347,95.69 310.227,95.3 C309.68,93.522 304.591,82.994 304.094,82.611 C303.646,82.266 300.484,81.773 295.724,81.307 C292.057,80.948 271.721,80.734 270.252,81.039 M257.033,82.516 C251.91,83.362 246.161,84.599 242.239,85.7 L240.817,86.099 L240.898,88.493 C240.943,89.81 241.114,91.912 241.278,93.164 C241.443,94.415 241.647,96.048 241.731,96.791 C241.937,98.605 241.908,98.619 245.775,94.76 C248.744,91.797 253.754,87.225 258.192,83.43 C259.71,82.132 259.649,82.085 257.033,82.516 M310.376,83.564 C310.376,83.72 311.072,85.316 311.922,87.113 C313.199,89.809 314.473,92.763 316.618,98 C317.413,99.941 318.435,102.778 319.898,107.104 C320.594,109.162 321.531,112.475 323.179,118.697 C323.665,120.536 323.555,120.62 327.353,115.515 C332.792,108.204 340.71,94.242 339.885,93.417 C338.757,92.29 331.636,89.61 331.283,90.18 C330.381,91.641 326.006,92.185 323.888,91.099 C322.086,90.175 320.333,87.793 320.333,86.269 C320.333,85.914 320.27,85.624 320.194,85.624 C320.118,85.624 318.87,85.317 317.42,84.94 C315.971,84.564 314.081,84.119 313.22,83.952 C312.36,83.785 311.368,83.566 311.016,83.465 C310.659,83.363 310.376,83.407 310.376,83.564 M232.678,88.863 C223.778,92.265 214.68,97.995 211.229,102.369 C210.603,103.162 209.924,103.753 209.721,103.683 C209.303,103.538 209.263,103.46 210.999,106.182 C211.673,107.24 212.225,108.171 212.225,108.25 C212.225,108.33 212.556,108.92 212.961,109.562 C213.812,110.909 217.915,119.006 217.915,119.338 C217.915,119.459 218.159,120.085 218.458,120.728 C219.296,122.534 219.788,123.733 220.48,125.662 C221.199,127.665 221.326,127.673 222.274,125.786 C223.378,123.587 224.763,121.129 225.635,119.821 C226.083,119.148 226.45,118.55 226.45,118.493 C226.45,117.951 234.072,107.585 236.775,104.451 C237.936,103.105 237.982,102.629 237.262,99.422 C237.006,98.285 236.306,93.033 235.964,89.679 C235.752,87.605 235.882,87.638 232.678,88.863 M52.908,89.631 L51.627,90.792 L52.979,89.739 C54.163,88.815 54.514,88.467 54.259,88.47 C54.22,88.471 53.612,88.993 52.908,89.631 M45.066,89.963 L44.23,90.888 L45.155,90.052 C45.664,89.592 46.08,89.176 46.08,89.127 C46.08,88.908 45.845,89.101 45.066,89.963 M288.327,92.579 C302.34,97.277 308.612,113.037 301.636,126.023 C292.376,143.26 266.957,141.423 259.781,122.998 C252.874,105.261 270.411,86.573 288.327,92.579 M47.771,94.088 L46.791,95.155 L47.858,94.175 C48.851,93.262 49.055,93.021 48.838,93.021 C48.791,93.021 48.311,93.501 47.771,94.088 M182.495,96.72 C183.582,97.815 184.535,98.711 184.613,98.711 C184.692,98.711 183.866,97.815 182.78,96.72 C181.693,95.624 180.739,94.728 180.661,94.728 C180.583,94.728 181.408,95.624 182.495,96.72 M38.243,96.791 L37.118,98 L38.327,96.875 C39.452,95.83 39.667,95.582 39.452,95.582 C39.405,95.582 38.861,96.126 38.243,96.791 M344.029,96.51 C343.883,96.704 343.407,97.694 342.971,98.711 C339.914,105.838 334.098,115.154 328.167,122.426 C324.581,126.823 324.843,126.348 325.142,127.915 C325.657,130.61 326.287,135.031 326.625,138.327 C326.978,141.761 327.354,142.4 328.455,141.433 C328.604,141.302 329.366,140.964 330.148,140.681 C349.841,133.564 360.446,120.45 355.785,108.978 C353.869,104.263 345.152,95.018 344.029,96.51 M42.795,99.067 L41.67,100.276 L42.879,99.151 C44.004,98.106 44.219,97.858 44.004,97.858 C43.957,97.858 43.413,98.402 42.795,99.067 M141.806,101.343 L139.536,103.69 L141.883,101.421 C144.063,99.313 144.36,98.996 144.153,98.996 C144.11,98.996 143.054,100.052 141.806,101.343 M40.23,101.912 L39.394,102.836 L40.319,102.001 C41.18,101.222 41.374,100.987 41.154,100.987 C41.105,100.987 40.689,101.403 40.23,101.912 M168.064,103.187 C168.734,103.247 169.758,103.247 170.34,103.185 C170.923,103.124 170.376,103.075 169.124,103.076 C167.872,103.077 167.395,103.127 168.064,103.187 M173.569,104.363 C174.276,104.811 175.119,105.515 175.444,105.927 C175.768,106.34 176.133,106.677 176.256,106.677 C176.601,106.677 175.219,105.267 173.989,104.363 C173.378,103.914 172.745,103.548 172.582,103.548 C172.418,103.548 172.862,103.914 173.569,104.363 M169.835,110.802 C173.04,114.01 175.726,116.634 175.804,116.634 C175.882,116.634 173.324,114.01 170.119,110.802 C166.915,107.595 164.229,104.97 164.15,104.97 C164.072,104.97 166.63,107.595 169.835,110.802 M176.378,107.175 C176.378,107.311 176.564,107.67 176.791,107.974 C177.189,108.507 177.198,108.504 177.041,107.882 C176.879,107.24 176.378,106.705 176.378,107.175 M151.627,128.156 C162.658,139.188 171.747,148.213 171.825,148.213 C171.903,148.213 162.942,139.188 151.912,128.156 C140.881,117.125 131.792,108.1 131.714,108.1 C131.636,108.1 140.597,117.125 151.627,128.156 M154.816,125.301 C164.315,134.838 172.125,142.583 172.17,142.511 C172.216,142.44 164.444,134.636 154.899,125.17 L137.545,107.96 L154.816,125.301 M177.45,110.802 C177.529,112.054 177.641,113.132 177.697,113.197 C177.895,113.423 177.743,109.945 177.525,109.238 C177.404,108.846 177.371,109.55 177.45,110.802 M237.687,111.011 C232.894,117.179 227.873,125.093 225.046,130.935 C224.231,132.619 223.453,133.929 223.318,133.845 C223.183,133.762 223.204,134.112 223.366,134.623 C223.527,135.135 223.726,135.842 223.808,136.195 C223.905,136.615 224.41,137.043 225.274,137.435 C229.994,139.577 233.609,141.035 236.834,142.095 C242.14,143.84 243.079,144.118 245.937,144.788 C247.346,145.118 249.274,145.575 250.223,145.805 C251.172,146.034 252.036,146.222 252.143,146.222 C252.541,146.222 252.304,145.525 250.916,142.611 C250.134,140.968 249.494,139.582 249.494,139.529 C249.494,139.477 249.125,138.625 248.675,137.636 C248.225,136.647 247.254,134.302 246.518,132.424 C245.782,130.546 245.068,128.754 244.933,128.441 C244.032,126.36 241.328,117.562 239.817,111.798 C239.083,108.998 239.213,109.046 237.687,111.011 M120.76,124.031 C122.004,125.283 123.086,126.307 123.164,126.307 C123.243,126.307 122.289,125.283 121.044,124.031 C119.8,122.78 118.717,121.755 118.639,121.755 C118.561,121.755 119.515,122.78 120.76,124.031 M180.357,126.736 C181.49,128.101 181.585,128.189 181.276,127.584 C181.115,127.27 180.683,126.758 180.317,126.448 C179.674,125.904 179.675,125.915 180.357,126.736 M144.088,147.36 C153.163,156.435 160.651,163.861 160.729,163.861 C160.808,163.861 153.447,156.435 144.373,147.36 C135.298,138.284 127.81,130.859 127.732,130.859 C127.653,130.859 135.014,138.284 144.088,147.36 M316.775,134.984 C312.098,139.66 307.559,143.791 304.459,146.196 C303.787,146.717 303.288,147.195 303.35,147.257 C303.756,147.663 317.292,144.987 320.76,143.815 L321.898,143.43 L321.877,141.199 C321.855,138.704 321.054,132.191 320.703,131.641 C320.545,131.395 319.342,132.418 316.775,134.984 M177.349,139.397 C175.614,141.117 174.272,142.523 174.367,142.523 C174.461,142.523 175.943,141.115 177.659,139.394 C179.374,137.673 180.717,136.266 180.641,136.268 C180.565,136.27 179.084,137.678 177.349,139.397 M225.444,143.092 C225.746,144.531 226.181,147.278 226.456,149.494 C226.612,150.745 226.863,152.474 227.014,153.334 C227.165,154.195 227.382,157.908 227.495,161.585 C227.608,165.262 227.75,168.041 227.81,167.761 C227.917,167.258 228.69,167.294 229.437,167.835 C232.5,170.056 247.194,170.584 247.225,168.474 C247.237,167.609 249.163,165.318 250.415,164.679 C252.802,163.462 255.81,163.887 258.03,165.755 L258.953,166.532 L261.336,165.723 C263.415,165.017 264.218,164.415 263.505,164.098 C263.203,163.963 259.283,157.991 257.307,154.655 C255.461,151.539 255.545,151.595 251.77,150.923 C246.421,149.97 241.631,148.783 236.57,147.156 C231.82,145.63 225.88,143.255 225.539,142.747 C225.384,142.515 225.349,142.642 225.444,143.092 M319.764,148.946 C314.013,150.415 307.78,151.606 302.694,152.206 C294.926,153.124 295.938,152.791 291.03,156.04 C285.769,159.523 280.913,162.32 275.597,164.929 C273.445,165.984 271.685,166.921 271.685,167.01 C271.684,167.368 276.89,172.995 279.65,175.617 C301.985,196.841 321.02,187.079 322.223,153.783 C322.441,147.755 322.669,148.204 319.764,148.946 M261.953,152.634 C261.728,152.859 261.761,152.914 265.373,158.406 C266.847,160.648 268.245,162.555 268.478,162.645 C269.219,162.929 284.583,154.898 285.196,153.906 C285.263,153.797 282.091,153.62 278.146,153.513 C271.313,153.327 265.892,152.998 263.327,152.613 C262.679,152.516 262.061,152.526 261.953,152.634 M16.843,158.74 C16.843,159.287 16.901,159.511 16.973,159.238 C17.044,158.964 17.044,158.516 16.973,158.242 C16.901,157.968 16.843,158.192 16.843,158.74 M12.012,159.166 C12.015,159.792 12.073,160.015 12.141,159.661 C12.21,159.307 12.207,158.795 12.136,158.523 C12.065,158.251 12.009,158.541 12.012,159.166 M215.71,159.735 C215.714,160.361 215.772,160.584 215.84,160.23 C215.908,159.876 215.905,159.364 215.834,159.092 C215.763,158.82 215.707,159.11 215.71,159.735 M210.88,160.447 C210.88,161.151 210.935,161.439 211.003,161.087 C211.071,160.735 211.071,160.159 211.003,159.807 C210.935,159.454 210.88,159.743 210.88,160.447 M11.749,165.425 C11.75,166.521 11.802,166.934 11.863,166.344 C11.925,165.753 11.924,164.857 11.861,164.352 C11.798,163.847 11.748,164.33 11.749,165.425 M210.893,170.688 C210.893,171.706 210.945,172.122 211.008,171.613 C211.071,171.105 211.071,170.272 211.008,169.764 C210.945,169.255 210.893,169.671 210.893,170.688 M215.71,171.115 C215.714,171.741 215.772,171.964 215.84,171.61 C215.908,171.256 215.905,170.744 215.834,170.472 C215.763,170.2 215.707,170.489 215.71,171.115 M12.006,171.542 C12.006,172.09 12.065,172.314 12.136,172.04 C12.208,171.766 12.208,171.318 12.136,171.044 C12.065,170.77 12.006,170.994 12.006,171.542 M114.487,177.587 L113.363,178.797 L114.572,177.672 C115.696,176.626 115.912,176.378 115.696,176.378 C115.65,176.378 115.106,176.922 114.487,177.587 M108.513,183.562 L107.388,184.771 L108.597,183.646 C109.722,182.601 109.937,182.353 109.722,182.353 C109.676,182.353 109.131,182.897 108.513,183.562 M51.622,191.528 L48.498,194.728 L51.698,191.604 C54.671,188.701 55.028,188.327 54.823,188.327 C54.781,188.327 53.341,189.767 51.622,191.528 M62.58,217.488 C70.168,225.077 76.44,231.286 76.518,231.286 C76.597,231.286 70.453,225.077 62.865,217.488 C55.277,209.899 49.005,203.69 48.927,203.69 C48.849,203.69 54.993,209.899 62.58,217.488 M194.718,219.124 C194.279,219.789 194.102,220.183 194.324,219.999 C194.752,219.646 195.841,217.915 195.636,217.915 C195.569,217.915 195.156,218.459 194.718,219.124 M192.051,222.964 C191.351,223.987 191.309,224.108 191.875,223.462 C192.628,222.603 193.273,221.613 193.08,221.613 C193.022,221.613 192.56,222.221 192.051,222.964 M102.2,224.093 C102.633,224.159 103.273,224.157 103.623,224.089 C103.973,224.022 103.619,223.968 102.836,223.97 C102.054,223.973 101.768,224.028 102.2,224.093 M189.86,225.796 C189.257,226.532 188.912,227.042 189.093,226.93 C189.48,226.691 191.282,224.458 191.088,224.458 C191.016,224.458 190.463,225.06 189.86,225.796 M187.883,228.228 L187.047,229.152 L187.972,228.317 C188.48,227.857 188.896,227.441 188.896,227.392 C188.896,227.172 188.661,227.366 187.883,228.228 M40.674,229.383 C40.674,229.432 41.09,229.849 41.599,230.308 L42.523,231.144 L41.688,230.219 C40.909,229.357 40.674,229.164 40.674,229.383 M185.914,230.427 C185.306,231.05 184.864,231.602 184.932,231.654 C185,231.706 185.552,231.197 186.159,230.522 C187.545,228.981 187.386,228.919 185.914,230.427 M189.874,233.349 L189.038,234.273 L189.963,233.438 C190.472,232.978 190.888,232.562 190.888,232.513 C190.888,232.293 190.653,232.487 189.874,233.349 M45.084,234.131 C45.855,234.913 46.549,235.553 46.627,235.553 C46.705,235.553 46.139,234.913 45.368,234.131 C44.598,233.349 43.903,232.708 43.825,232.708 C43.747,232.708 44.313,233.349 45.084,234.131 M80.432,232.909 C80.784,232.977 81.361,232.977 81.713,232.909 C82.065,232.841 81.777,232.786 81.073,232.786 C80.368,232.786 80.08,232.841 80.432,232.909 M182.482,234.202 L181.357,235.411 L182.566,234.287 C183.231,233.668 183.775,233.124 183.775,233.077 C183.775,232.862 183.527,233.078 182.482,234.202 M185.9,237.616 L184.202,239.394 L185.98,237.696 C186.958,236.762 187.758,235.962 187.758,235.918 C187.758,235.708 187.477,235.964 185.9,237.616 M179.201,237.153 C178.822,237.562 177.168,238.993 175.525,240.332 C171.866,243.314 171.958,243.235 172.172,243.235 C172.655,243.235 180.228,236.748 180.005,236.524 C179.941,236.461 179.58,236.744 179.201,237.153 M48.071,236.78 C48.071,236.829 48.487,237.245 48.996,237.705 L49.92,238.541 L49.085,237.616 C48.306,236.754 48.071,236.561 48.071,236.78 M181.768,241.457 L180.788,242.523 L181.855,241.543 C182.848,240.631 183.053,240.39 182.835,240.39 C182.788,240.39 182.308,240.87 181.768,241.457 M170.546,244.255 L169.693,244.989 L170.688,244.346 C171.966,243.522 171.969,243.519 171.661,243.521 C171.517,243.521 171.016,243.852 170.546,244.255 M167.701,246.247 L166.848,246.98 L167.772,246.368 C168.281,246.032 168.697,245.701 168.697,245.634 C168.697,245.421 168.577,245.495 167.701,246.247 M151.912,254.757 C151.521,254.98 151.329,255.163 151.485,255.163 C151.642,255.163 152.09,254.98 152.481,254.757 C152.872,254.533 153.064,254.35 152.908,254.35 C152.751,254.35 152.303,254.533 151.912,254.757 M149.991,255.477 C149.039,255.86 149.217,256.054 150.205,255.71 C150.674,255.546 151.058,255.361 151.058,255.298 C151.058,255.129 150.712,255.187 149.991,255.477 M89.892,259.731 C90.127,259.885 90.628,260.013 91.006,260.016 C91.919,260.021 91.688,259.86 90.461,259.634 C89.76,259.506 89.592,259.535 89.892,259.731 M136.708,259.771 C136.092,259.915 135.516,260.106 135.428,260.194 C135.166,260.459 137.522,259.972 137.815,259.701 C137.964,259.563 138.028,259.464 137.957,259.48 C137.887,259.495 137.325,259.626 136.708,259.771 M133.277,260.589 C132.49,260.789 132.479,260.808 133.135,260.835 C133.526,260.852 134.038,260.741 134.273,260.589 C134.757,260.276 134.507,260.276 133.277,260.589 M128.441,261.442 L127.303,261.646 L128.299,261.682 C128.846,261.702 129.486,261.594 129.721,261.442 C130.187,261.142 130.121,261.142 128.441,261.442 M99.067,261.638 C99.341,261.71 99.789,261.71 100.063,261.638 C100.336,261.567 100.112,261.508 99.565,261.508 C99.017,261.508 98.793,261.567 99.067,261.638 M120.048,262.296 L117.346,262.471 L119.906,262.498 C121.314,262.512 122.787,262.421 123.178,262.296 C123.992,262.035 124.06,262.035 120.048,262.296 M106.757,262.505 C107.505,262.564 108.657,262.563 109.317,262.504 C109.978,262.444 109.366,262.396 107.957,262.397 C106.549,262.398 106.009,262.447 106.757,262.505 M112.449,262.791 C113.354,262.848 114.762,262.847 115.578,262.79 C116.394,262.732 115.653,262.686 113.932,262.687 C112.211,262.687 111.543,262.734 112.449,262.791 M107.747,267.334 C108.101,267.402 108.613,267.399 108.885,267.328 C109.157,267.257 108.868,267.201 108.242,267.204 C107.616,267.207 107.393,267.265 107.747,267.334 M119.127,267.334 C119.481,267.402 119.993,267.399 120.265,267.328 C120.537,267.257 120.248,267.201 119.622,267.204 C118.996,267.207 118.773,267.265 119.127,267.334" id="path1"></path>
            <path d="M107.483,51.445 C107.404,51.648 102.065,52.038 99.192,52.051 C98.753,52.052 98.465,52.17 98.553,52.312 C98.641,52.454 97.503,52.661 96.013,52.772 C94.528,52.884 93.384,53.088 93.469,53.226 C93.554,53.364 93.104,53.493 92.469,53.512 C91.834,53.532 91.186,53.58 91.03,53.619 C90.873,53.658 90.265,53.708 89.679,53.73 C88.976,53.756 88.741,53.852 88.991,54.01 C89.235,54.165 88.756,54.321 87.649,54.446 C86.701,54.553 85.854,54.757 85.767,54.899 C85.679,55.041 84.843,55.244 83.909,55.349 C82.975,55.455 82.211,55.649 82.211,55.779 C82.211,55.91 81.573,56.102 80.793,56.205 C80.014,56.309 79.436,56.489 79.508,56.606 C79.58,56.723 79.011,56.902 78.244,57.004 C77.476,57.106 76.806,57.306 76.755,57.45 C76.705,57.593 76.289,57.777 75.832,57.859 C75.376,57.941 74.928,58.128 74.837,58.275 C74.746,58.422 74.063,58.633 73.32,58.744 C72.577,58.855 71.969,59.054 71.969,59.186 C71.969,59.317 71.521,59.509 70.973,59.612 C70.425,59.715 69.977,59.902 69.977,60.029 C69.977,60.156 69.593,60.344 69.124,60.447 C68.654,60.55 68.27,60.752 68.27,60.896 C68.27,61.04 68.174,61.143 68.057,61.124 C67.94,61.106 67.78,61.115 67.701,61.145 C67.623,61.176 67.245,61.258 66.86,61.328 C66.476,61.399 66.09,61.571 66.004,61.712 C65.917,61.852 65.496,62.054 65.067,62.162 C64.638,62.27 64.287,62.462 64.287,62.589 C64.287,62.716 63.903,62.904 63.434,63.007 C62.964,63.11 62.58,63.302 62.58,63.434 C62.58,63.565 62.196,63.757 61.727,63.861 C61.257,63.964 60.873,64.156 60.873,64.287 C60.873,64.419 60.5,64.609 60.044,64.709 C59.587,64.809 59.14,65.083 59.05,65.318 C58.96,65.554 58.756,65.666 58.597,65.568 C58.439,65.469 58.235,65.582 58.145,65.817 C58.055,66.052 57.608,66.326 57.151,66.426 C56.695,66.527 56.321,66.724 56.321,66.865 C56.321,67.006 56.001,67.202 55.61,67.3 C55.219,67.398 54.899,67.593 54.899,67.732 C54.899,67.872 54.713,67.986 54.486,67.986 C54.259,67.986 53.971,68.169 53.846,68.392 C53.721,68.616 53.555,68.812 53.477,68.827 C52.612,68.999 52.054,69.232 52.054,69.422 C52.054,69.55 51.8,69.735 51.489,69.834 C50.962,70.001 50.144,70.605 48.923,71.727 C48.642,71.986 48.143,72.282 47.815,72.387 C47.486,72.491 47.218,72.695 47.218,72.841 C47.218,72.987 47.022,73.107 46.782,73.107 C46.542,73.107 46.274,73.294 46.187,73.523 C46.099,73.751 45.756,74.024 45.425,74.129 C45.095,74.234 44.502,74.687 44.108,75.136 C43.715,75.585 43.283,75.952 43.149,75.952 C43.016,75.952 42.522,76.336 42.053,76.805 C41.584,77.275 41.081,77.659 40.937,77.659 C40.792,77.659 40.146,78.203 39.5,78.868 C38.855,79.533 38.238,80.077 38.129,80.077 C37.797,80.077 29.01,88.958 29.01,89.294 C29.01,89.466 28.818,89.607 28.583,89.607 C28.349,89.607 28.188,89.712 28.228,89.839 C28.267,89.966 27.883,90.488 27.374,90.999 C26.866,91.509 26.45,92.045 26.45,92.19 C26.45,92.335 25.96,92.933 25.363,93.52 C24.765,94.106 24.193,94.81 24.091,95.084 C23.99,95.358 23.783,95.582 23.633,95.582 C23.482,95.582 23.271,95.858 23.164,96.195 C23.057,96.533 22.664,97.091 22.291,97.437 C21.918,97.783 21.613,98.182 21.613,98.325 C21.613,98.468 21.357,98.804 21.044,99.072 C20.731,99.34 20.475,99.739 20.475,99.958 C20.475,100.178 20.283,100.431 20.048,100.521 C19.814,100.611 19.622,100.881 19.622,101.121 C19.622,101.36 19.496,101.556 19.343,101.556 C19.189,101.556 18.985,101.867 18.89,102.247 C18.795,102.627 18.536,103.007 18.316,103.091 C18.095,103.176 17.915,103.441 17.915,103.681 C17.915,103.921 17.789,104.117 17.636,104.117 C17.482,104.117 17.276,104.437 17.178,104.828 C17.08,105.219 16.885,105.539 16.746,105.539 C16.606,105.539 16.492,105.735 16.492,105.975 C16.492,106.214 16.308,106.481 16.083,106.568 C15.858,106.654 15.591,107.098 15.491,107.554 C15.391,108.011 15.205,108.384 15.078,108.384 C14.951,108.384 14.767,108.704 14.668,109.095 C14.57,109.486 14.374,109.807 14.233,109.807 C14.092,109.807 13.893,110.191 13.789,110.66 C13.686,111.129 13.498,111.514 13.371,111.514 C13.244,111.514 13.052,111.864 12.944,112.293 C12.837,112.722 12.599,113.165 12.416,113.278 C12.091,113.479 12.05,113.595 11.976,114.518 C11.956,114.761 11.826,114.891 11.687,114.804 C11.548,114.718 11.35,115.095 11.247,115.641 C11.145,116.187 10.949,116.634 10.812,116.634 C10.675,116.634 10.479,117.018 10.376,117.488 C10.272,117.957 10.076,118.341 9.939,118.341 C9.802,118.341 9.606,118.789 9.503,119.337 C9.401,119.885 9.213,120.333 9.086,120.333 C8.859,120.333 8.367,121.983 8.472,122.395 C8.502,122.513 8.404,122.609 8.255,122.609 C8.105,122.609 7.899,123.057 7.796,123.605 C7.694,124.152 7.497,124.6 7.36,124.6 C7.223,124.6 7.029,125.112 6.929,125.738 C6.829,126.364 6.643,126.876 6.516,126.876 C6.389,126.876 6.199,127.452 6.093,128.156 C5.988,128.861 5.799,129.437 5.674,129.437 C5.549,129.437 5.356,129.981 5.245,130.646 C5.134,131.311 4.941,131.92 4.817,131.999 C4.693,132.078 4.506,132.718 4.401,133.42 C4.296,134.122 4.107,134.761 3.979,134.84 C3.852,134.919 3.656,135.72 3.544,136.62 C3.432,137.52 3.234,138.256 3.105,138.256 C2.976,138.256 2.783,139.152 2.675,140.248 C2.567,141.343 2.382,142.239 2.264,142.239 C2.146,142.239 1.96,143.199 1.85,144.373 C1.74,145.546 1.545,146.506 1.418,146.506 C1.29,146.506 1.094,147.979 0.981,149.778 C0.869,151.578 0.683,153.05 0.568,153.05 C0.053,153.05 -0.024,177.719 0.49,178.047 C0.645,178.147 0.866,179.622 0.981,181.325 C1.096,183.029 1.285,184.268 1.401,184.08 C1.518,183.891 1.702,184.802 1.81,186.103 C1.918,187.405 2.122,188.51 2.263,188.559 C2.405,188.608 2.609,189.537 2.716,190.622 C2.822,191.707 3.005,192.595 3.121,192.595 C3.237,192.595 3.417,193.235 3.521,194.017 C3.625,194.799 3.818,195.44 3.951,195.44 C4.084,195.44 4.281,196.144 4.389,197.004 C4.496,197.865 4.699,198.569 4.839,198.569 C4.978,198.569 5.178,199.209 5.281,199.991 C5.385,200.774 5.58,201.414 5.715,201.414 C5.849,201.414 6.041,201.926 6.141,202.552 C6.241,203.178 6.427,203.69 6.554,203.69 C6.681,203.69 6.871,204.266 6.976,204.97 C7.082,205.674 7.276,206.25 7.408,206.25 C7.539,206.25 7.731,206.698 7.834,207.246 C7.937,207.794 8.133,208.242 8.27,208.242 C8.407,208.242 8.601,208.754 8.702,209.38 C8.802,210.006 8.985,210.518 9.109,210.518 C9.233,210.518 9.419,210.902 9.522,211.371 C9.625,211.841 9.827,212.225 9.971,212.225 C10.115,212.225 10.213,212.321 10.188,212.438 C10.073,212.982 13.618,220.247 14.249,220.76 C14.345,220.838 14.522,221.216 14.642,221.6 C14.762,221.984 15.035,222.473 15.249,222.687 C15.464,222.901 15.639,223.259 15.639,223.483 C15.639,223.706 15.753,223.889 15.892,223.889 C16.032,223.889 16.228,224.214 16.327,224.612 C16.427,225.009 16.619,225.266 16.755,225.183 C16.89,225.099 17.088,225.381 17.196,225.809 C17.303,226.236 17.477,226.651 17.582,226.731 C17.955,227.015 19.053,228.707 19.053,228.998 C19.053,229.161 19.178,229.294 19.332,229.294 C19.485,229.294 19.689,229.605 19.784,229.985 C19.879,230.365 20.138,230.745 20.359,230.83 C20.579,230.914 20.76,231.187 20.76,231.436 C20.76,231.685 20.888,231.809 21.044,231.713 C21.201,231.616 21.329,231.74 21.329,231.989 C21.329,232.238 21.521,232.515 21.755,232.606 C21.99,232.696 22.182,232.949 22.182,233.168 C22.182,233.388 22.438,233.787 22.751,234.055 C23.064,234.323 23.32,234.713 23.32,234.922 C23.32,235.131 23.448,235.223 23.605,235.127 C23.761,235.03 23.889,235.124 23.889,235.337 C23.889,235.549 24.268,236.036 24.73,236.42 C25.193,236.804 25.577,237.268 25.584,237.452 C25.591,237.635 26.012,238.202 26.521,238.71 C27.029,239.219 27.445,239.723 27.445,239.831 C27.445,239.939 28.181,240.751 29.081,241.637 C29.981,242.522 30.717,243.353 30.717,243.484 C30.717,243.837 32.067,245.226 32.41,245.226 C32.574,245.226 32.708,245.351 32.708,245.505 C32.708,245.853 35.807,248.925 36.158,248.925 C36.3,248.925 36.968,249.501 37.643,250.205 C38.318,250.909 39.02,251.485 39.203,251.485 C39.386,251.485 39.504,251.639 39.465,251.828 C39.426,252.016 39.532,252.176 39.7,252.183 C39.869,252.19 40.423,252.612 40.931,253.121 C41.44,253.629 42.006,254.051 42.19,254.058 C42.373,254.064 42.838,254.448 43.221,254.911 C43.605,255.374 44.039,255.752 44.184,255.752 C44.33,255.752 44.732,256.058 45.078,256.43 C45.424,256.803 45.971,257.192 46.293,257.295 C46.616,257.397 46.952,257.668 47.04,257.897 C47.128,258.126 47.396,258.313 47.635,258.313 C47.875,258.313 48.071,258.439 48.071,258.592 C48.071,258.746 48.382,258.949 48.762,259.044 C49.142,259.14 49.522,259.398 49.606,259.619 C49.691,259.839 49.956,260.02 50.196,260.02 C50.436,260.02 50.632,260.145 50.632,260.299 C50.632,260.452 50.942,260.656 51.322,260.751 C51.702,260.847 52.082,261.105 52.167,261.326 C52.251,261.546 52.517,261.727 52.756,261.727 C52.996,261.727 53.192,261.841 53.192,261.981 C53.192,262.12 53.512,262.315 53.903,262.413 C54.294,262.511 54.615,262.717 54.615,262.87 C54.615,263.024 54.811,263.149 55.05,263.149 C55.29,263.149 55.557,263.334 55.643,263.559 C55.729,263.784 56.173,264.05 56.63,264.15 C57.086,264.251 57.459,264.44 57.459,264.572 C57.459,264.703 57.844,264.895 58.313,264.999 C58.782,265.102 59.166,265.301 59.166,265.443 C59.166,265.584 59.486,265.779 59.878,265.877 C60.269,265.976 60.589,266.16 60.589,266.287 C60.589,266.414 60.973,266.602 61.442,266.706 C61.912,266.809 62.296,267.001 62.296,267.132 C62.296,267.264 62.68,267.456 63.149,267.559 C63.619,267.662 64.003,267.854 64.003,267.986 C64.003,268.117 64.387,268.309 64.856,268.413 C65.326,268.516 65.71,268.707 65.71,268.837 C65.71,268.967 66.239,269.163 66.885,269.272 C67.598,269.393 67.923,269.556 67.71,269.687 C67.492,269.822 67.738,269.974 68.364,270.092 C68.915,270.195 69.408,270.397 69.459,270.54 C69.509,270.683 69.999,270.878 70.546,270.973 C71.094,271.068 71.585,271.267 71.637,271.415 C71.689,271.563 72.032,271.684 72.399,271.684 C72.766,271.684 73.257,271.875 73.49,272.108 C73.812,272.43 73.949,272.447 74.057,272.18 C74.17,271.9 74.204,271.9 74.222,272.179 C74.235,272.372 74.757,272.613 75.383,272.713 C76.009,272.813 76.521,272.999 76.521,273.126 C76.521,273.253 77.097,273.443 77.801,273.548 C78.505,273.654 79.081,273.84 79.081,273.961 C79.081,274.082 79.561,274.271 80.147,274.381 C80.734,274.491 81.308,274.73 81.423,274.911 C81.567,275.137 81.636,275.106 81.642,274.814 C81.648,274.501 81.709,274.48 81.872,274.735 C82.106,275.104 82.967,275.326 84.29,275.362 C84.729,275.373 85.016,275.5 84.927,275.644 C84.838,275.788 85.598,275.995 86.614,276.104 C87.631,276.213 88.397,276.407 88.318,276.536 C88.238,276.664 89.072,276.858 90.171,276.966 C91.269,277.075 92.168,277.258 92.168,277.374 C92.168,277.49 93.32,277.675 94.728,277.786 C96.137,277.896 97.289,278.091 97.289,278.22 C97.289,278.349 99.017,278.546 101.129,278.66 C103.242,278.773 104.97,278.978 104.97,279.115 C104.97,279.254 108.966,279.366 113.932,279.366 C118.897,279.366 122.893,279.254 122.893,279.115 C122.893,278.978 124.622,278.773 126.734,278.66 C128.846,278.546 130.575,278.349 130.575,278.22 C130.575,278.091 131.727,277.896 133.135,277.786 C134.543,277.675 135.696,277.489 135.696,277.371 C135.696,277.252 136.528,277.067 137.545,276.958 C138.562,276.849 139.394,276.655 139.394,276.526 C139.394,276.397 140.162,276.203 141.101,276.094 C142.04,275.985 142.808,275.793 142.808,275.667 C142.808,275.541 143.576,275.349 144.514,275.24 C145.453,275.132 146.16,274.943 146.085,274.822 C146.01,274.7 146.586,274.516 147.365,274.413 C148.145,274.31 148.782,274.116 148.782,273.983 C148.782,273.849 149.358,273.654 150.063,273.548 C150.767,273.443 151.343,273.253 151.343,273.126 C151.343,272.999 151.855,272.813 152.481,272.713 C153.107,272.613 153.619,272.412 153.619,272.267 C153.619,272.122 154.195,271.917 154.899,271.812 C155.603,271.706 156.179,271.512 156.179,271.38 C156.179,271.249 156.627,271.057 157.175,270.954 C157.723,270.851 158.171,270.655 158.171,270.518 C158.171,270.381 158.693,270.185 159.332,270.083 C160.093,269.961 160.364,269.818 160.12,269.667 C159.876,269.516 160.164,269.369 160.95,269.243 C161.612,269.138 162.154,268.95 162.154,268.826 C162.154,268.701 162.538,268.516 163.007,268.413 C163.477,268.309 163.861,268.117 163.861,267.986 C163.861,267.854 164.245,267.662 164.714,267.559 C165.183,267.456 165.568,267.264 165.568,267.132 C165.568,267.001 165.952,266.809 166.421,266.706 C166.89,266.602 167.275,266.4 167.275,266.256 C167.275,266.112 167.471,265.994 167.71,265.994 C167.95,265.994 168.217,265.81 168.303,265.585 C168.389,265.36 168.833,265.094 169.29,264.993 C169.746,264.893 170.119,264.703 170.119,264.572 C170.119,264.44 170.505,264.248 170.975,264.145 C171.446,264.041 171.765,263.849 171.684,263.718 C171.603,263.587 171.911,263.398 172.369,263.297 C172.827,263.197 173.272,262.93 173.358,262.705 C173.445,262.48 173.712,262.296 173.951,262.296 C174.191,262.296 174.387,262.182 174.387,262.042 C174.387,261.903 174.707,261.708 175.098,261.61 C175.489,261.512 175.809,261.306 175.809,261.152 C175.809,260.999 176.005,260.873 176.245,260.873 C176.485,260.873 176.75,260.693 176.835,260.472 C176.919,260.252 177.299,259.993 177.679,259.898 C178.059,259.803 178.37,259.599 178.37,259.446 C178.37,259.292 178.533,259.166 178.733,259.166 C178.933,259.166 179.316,258.91 179.584,258.597 C179.852,258.284 180.265,258.028 180.501,258.028 C180.737,258.028 180.93,257.896 180.93,257.735 C180.93,257.574 181.154,257.357 181.428,257.254 C181.702,257.15 182.288,256.706 182.73,256.267 C183.173,255.827 183.685,255.463 183.868,255.456 C184.052,255.449 184.516,255.065 184.9,254.602 C185.284,254.14 185.71,253.761 185.846,253.761 C185.983,253.761 186.479,253.377 186.948,252.908 C187.418,252.438 187.897,252.054 188.013,252.054 C188.129,252.054 189.198,251.105 190.388,249.946 C191.578,248.787 192.613,247.9 192.689,247.976 C192.765,248.052 192.912,247.846 193.016,247.519 C193.12,247.192 193.314,246.993 193.448,247.075 C193.582,247.158 193.774,246.966 193.875,246.649 C193.976,246.331 194.168,246.139 194.302,246.222 C194.436,246.305 194.628,246.113 194.728,245.795 C194.829,245.478 195.021,245.286 195.155,245.368 C195.289,245.451 195.481,245.259 195.582,244.942 C195.683,244.624 195.875,244.432 196.009,244.515 C196.142,244.598 196.335,244.406 196.435,244.088 C196.536,243.771 196.737,243.584 196.883,243.674 C197.028,243.764 197.147,243.695 197.147,243.52 C197.147,243.346 197.883,242.455 198.782,241.54 C200.947,239.338 202.634,237.372 202.951,236.682 C203.092,236.374 203.295,236.122 203.402,236.122 C203.508,236.122 204.095,235.386 204.705,234.486 C205.316,233.587 205.977,232.748 206.175,232.623 C206.373,232.498 206.535,232.259 206.535,232.092 C206.535,231.925 206.923,231.323 207.398,230.754 C208.742,229.146 208.811,229.05 208.811,228.781 C208.811,228.642 209.067,228.233 209.38,227.872 C209.693,227.511 209.949,227.043 209.949,226.833 C209.949,226.622 210.074,226.45 210.228,226.45 C210.381,226.45 210.587,226.129 210.685,225.738 C210.784,225.347 210.969,225.027 211.098,225.027 C211.226,225.027 211.619,224.451 211.971,223.747 C212.322,223.043 212.705,222.467 212.822,222.467 C212.938,222.467 213.117,222.083 213.22,221.613 C213.324,221.144 213.516,220.76 213.647,220.76 C213.779,220.76 213.969,220.386 214.069,219.93 C214.169,219.474 214.435,219.029 214.66,218.943 C214.885,218.857 215.07,218.542 215.07,218.243 C215.07,217.944 215.262,217.54 215.496,217.346 C215.731,217.151 215.923,216.767 215.923,216.492 C215.923,216.218 216.115,215.833 216.35,215.639 C216.585,215.444 216.781,215.076 216.786,214.821 C216.791,214.567 216.983,214.11 217.212,213.806 C217.442,213.502 217.63,213.022 217.63,212.739 C217.63,212.456 217.748,212.225 217.892,212.225 C218.036,212.225 218.238,211.841 218.341,211.371 C218.444,210.902 218.655,210.518 218.81,210.518 C218.964,210.518 219.009,210.261 218.91,209.947 C218.81,209.633 218.929,208.973 219.175,208.481 C219.421,207.988 219.622,207.464 219.622,207.316 C219.622,207.169 219.799,206.644 220.016,206.151 C220.233,205.658 220.693,204.422 221.039,203.405 C221.386,202.388 221.774,201.3 221.904,200.987 C222.299,200.031 223.32,196.506 223.32,196.099 C223.32,195.889 223.437,195.494 223.581,195.222 C224.85,192.82 226.69,181.822 227.329,172.822 C227.661,168.146 227.464,155.863 227.016,153.334 C226.863,152.474 226.612,150.745 226.457,149.494 C226.302,148.242 225.994,146.257 225.773,145.084 C225.552,143.91 225.224,142.118 225.043,141.101 C224.862,140.084 224.592,139.029 224.444,138.758 C224.295,138.486 224.174,138.028 224.174,137.739 C224.174,136.869 222.047,129.889 220.561,125.881 C219.498,123.011 219.379,122.719 218.522,120.871 C218.188,120.149 217.915,119.459 217.915,119.338 C217.915,119.006 213.812,110.909 212.961,109.562 C212.556,108.92 212.225,108.336 212.225,108.262 C212.225,107.484 204.61,96.495 201.854,93.296 C201.377,92.742 200.418,91.59 199.722,90.735 C198.118,88.764 190.386,81.021 188.353,79.35 C187.507,78.655 186.355,77.688 185.793,77.202 C185.231,76.715 182.979,74.994 180.788,73.376 C178.597,71.759 176.636,70.268 176.429,70.064 C176.222,69.86 175.884,69.693 175.677,69.693 C175.47,69.693 175.228,69.501 175.138,69.266 C175.047,69.031 174.778,68.839 174.538,68.839 C174.298,68.839 174.102,68.714 174.102,68.56 C174.102,68.407 173.782,68.201 173.391,68.103 C173,68.004 172.68,67.81 172.68,67.67 C172.68,67.531 172.484,67.417 172.244,67.417 C172.005,67.417 171.738,67.233 171.652,67.007 C171.565,66.782 171.121,66.516 170.665,66.416 C170.208,66.316 169.835,66.13 169.835,66.003 C169.835,65.875 169.515,65.691 169.124,65.593 C168.733,65.495 168.413,65.299 168.413,65.158 C168.413,65.017 168.028,64.817 167.559,64.714 C167.09,64.611 166.706,64.419 166.706,64.287 C166.706,64.156 166.321,63.964 165.852,63.861 C165.383,63.757 164.999,63.565 164.999,63.434 C164.999,63.302 164.615,63.11 164.145,63.007 C163.676,62.904 163.292,62.712 163.292,62.58 C163.292,62.449 162.908,62.257 162.438,62.154 C161.969,62.051 161.585,61.863 161.585,61.736 C161.585,61.609 161.137,61.422 160.589,61.319 C160.041,61.216 159.593,61.011 159.593,60.864 C159.593,60.716 159.081,60.514 158.455,60.414 C157.829,60.314 157.317,60.126 157.317,59.996 C157.317,59.867 156.869,59.677 156.321,59.574 C155.774,59.472 155.326,59.275 155.326,59.138 C155.326,59.001 154.814,58.807 154.188,58.707 C153.562,58.607 153.05,58.427 153.05,58.308 C153.05,58.189 152.602,58.008 152.054,57.905 C151.506,57.802 151.058,57.605 151.058,57.467 C151.058,57.329 150.354,57.128 149.494,57.02 C148.633,56.913 147.929,56.719 147.929,56.591 C147.929,56.462 147.353,56.27 146.649,56.164 C145.945,56.059 145.368,55.871 145.368,55.748 C145.368,55.625 144.6,55.435 143.661,55.326 C142.723,55.217 141.954,55.025 141.954,54.899 C141.954,54.773 141.186,54.581 140.248,54.472 C139.309,54.363 138.541,54.17 138.541,54.042 C138.541,53.914 137.58,53.72 136.407,53.61 C135.233,53.5 134.273,53.312 134.273,53.192 C134.273,53.073 133.153,52.882 131.784,52.768 C130.415,52.655 129.224,52.449 129.137,52.311 C129.051,52.173 126.907,51.975 124.372,51.871 C121.838,51.766 119.764,51.573 119.764,51.441 C119.764,51.124 107.606,51.128 107.483,51.445 M121.044,63.45 C152.349,65.794 180.326,81.8 197.944,107.446 C218.263,137.021 221.662,174.665 206.968,207.388 C205.711,210.187 205.175,211.235 202.607,215.923 C181.966,253.594 136.508,274.168 93.306,265.392 C78.467,262.377 59.25,253.44 50.772,245.611 C50.458,245.321 49.242,244.316 48.069,243.378 C35.319,233.173 20.666,211.64 17.191,198 C17.171,197.922 17.076,197.666 16.981,197.431 C16.802,196.988 15.376,192.163 14.837,190.176 C14.471,188.826 13.501,184.048 13.104,181.642 C2.475,117.165 55.981,58.577 121.044,63.45 M104.97,68.587 C63.133,72.279 27.779,103.716 18.945,145.084 C15.811,159.758 16.222,176.923 20.026,190.176 C20.25,190.959 20.58,192.111 20.759,192.737 C33.026,235.605 74.628,264.941 119.447,262.327 C129.533,261.738 142.392,258.956 149.209,255.888 C149.679,255.676 150.895,255.164 151.912,254.749 C174.653,245.474 194.864,224.798 204.05,201.414 C230.612,133.793 177.217,62.212 104.97,68.587 M151.972,98.516 C154.277,99.886 181.355,127.385 181.93,128.939 C183.214,132.409 182.324,134.619 177.782,139.245 C172.728,144.392 175.525,146.085 154.748,125.3 C134.113,104.657 135.814,107.355 140.461,102.627 C145.667,97.329 148.359,96.368 151.972,98.516 M172.274,103.455 C176.771,104.985 179.085,110.867 176.926,115.283 C176.023,117.13 176.353,117.341 169.696,110.657 C163.852,104.789 163.755,104.671 164.367,104.242 C166.195,102.962 169.776,102.606 172.274,103.455 M129.599,106.855 C131.495,107.48 171.932,147.713 172.939,149.976 C174.673,153.873 173.723,156.351 168.46,161.656 C164.267,165.883 163.86,166.103 162.136,165.085 C161.128,164.49 114.654,117.981 114.615,117.529 C114.599,117.35 114.586,116.883 114.586,116.492 C114.586,116.101 114.599,115.643 114.615,115.475 C114.688,114.686 122.539,107.316 123.77,106.882 C125.432,106.294 127.866,106.283 129.599,106.855 M134.768,143.915 C137.547,146.714 140.178,149.383 140.614,149.845 L141.408,150.686 L120.766,171.422 L100.124,192.157 L94.084,186.117 L88.044,180.077 L103.549,164.549 C112.076,156.008 121.293,146.746 124.031,143.967 C126.77,141.188 129.169,138.894 129.363,138.869 C129.557,138.845 131.989,141.115 134.768,143.915 M67.132,165.564 C67.92,165.783 72.987,170.703 91.385,189.112 L114.643,212.382 L114.641,213.797 C114.639,215.581 114.392,215.939 110.567,219.696 C106.256,223.931 104.135,224.79 100.537,223.759 L98.853,223.277 L78.126,202.602 C55.403,179.935 56.045,180.67 56.04,177.311 C56.035,174.464 56.849,173.027 60.626,169.213 C64.343,165.458 65.144,165.01 67.132,165.564 M74.815,205.256 L92.026,222.468 L92.026,223.743 C92.026,226.23 85.081,232.443 81.799,232.893 C78.458,233.351 78.834,233.653 62.822,217.658 C47.001,201.853 47.37,202.299 47.364,198.996 C47.359,196.031 47.885,195.133 51.987,191.101 C54.992,188.147 55.141,188.043 56.351,188.043 L57.603,188.043 L74.815,205.256 M60.486,220.369 C67.07,227.039 66.772,226.54 64.73,227.474 C57.122,230.958 49.253,222.155 53.705,215.141 C54.337,214.144 54.355,214.158 60.486,220.369" id="path2"></path>
        </g>
    </g>
</svg>
